{
.appVersion = "1264";
copyright = "Copyright 2019 The Tomorrow Project Authors (https://github.com/MonicaRizzolli/Tomorrow)";
customParameters = (
{
name = panose;
value = (
0,
0,
8,
0,
0,
0,
0,
0,
0,
0
);
},
{
name = unicodeRanges;
value = (
0,
1,
2,
29
);
},
{
name = codePageRanges;
value = (
1252,
1250,
1257
);
},
{
name = blueScale;
value = 0.037;
},
{
name = glyphOrder;
value = (
.notdef,
CR,
space,
A,
Aacute,
Abreve,
uni1EAE,
uni1EB6,
uni1EB0,
uni1EB2,
uni1EB4,
Acircumflex,
uni1EA4,
uni1EAC,
uni1EA6,
uni1EA8,
uni1EAA,
uni0200,
Adieresis,
uni1EA0,
Agrave,
uni1EA2,
uni0202,
Amacron,
Aogonek,
Aring,
Aringacute,
Atilde,
AE,
AEacute,
B,
C,
Cacute,
Ccaron,
Ccedilla,
Ccircumflex,
Cdotaccent,
D,
uni01C4,
Eth,
Dcaron,
Dcroat,
uni01C5,
E,
Eacute,
Ebreve,
Ecaron,
Ecircumflex,
uni1EBE,
uni1EC6,
uni1EC0,
uni1EC2,
uni1EC4,
uni0204,
Edieresis,
Edotaccent,
uni1EB8,
Egrave,
uni1EBA,
uni0206,
Emacron,
Eogonek,
uni1EBC,
F,
G,
Gbreve,
Gcaron,
Gcircumflex,
uni0122,
Gdotaccent,
H,
Hbar,
Hcircumflex,
I,
Iacute,
Ibreve,
Icircumflex,
uni0208,
Idieresis,
Idotaccent,
uni1ECA,
Igrave,
uni1EC8,
uni020A,
Imacron,
Iogonek,
Itilde,
J,
Jcircumflex,
K,
uni0136,
L,
uni01C7,
Lacute,
Lcaron,
uni013B,
Ldot,
uni01C8,
Lslash,
M,
N,
uni01CA,
Nacute,
Ncaron,
uni0145,
Eng,
uni01CB,
Ntilde,
O,
Oacute,
Obreve,
Ocircumflex,
uni1ED0,
uni1ED8,
uni1ED2,
uni1ED4,
uni1ED6,
uni020C,
Odieresis,
uni022A,
uni0230,
uni1ECC,
Ograve,
uni1ECE,
Ohorn,
uni1EDA,
uni1EE2,
uni1EDC,
uni1EDE,
uni1EE0,
Ohungarumlaut,
uni020E,
Omacron,
uni01EA,
Oslash,
Oslashacute,
Otilde,
uni022C,
OE,
P,
Thorn,
Q,
R,
Racute,
Rcaron,
uni0156,
uni0210,
uni0212,
S,
Sacute,
Scaron,
Scedilla,
Scircumflex,
uni0218,
uni1E9E,
uni018F,
T,
Tbar,
Tcaron,
uni0162,
uni021A,
U,
Uacute,
Ubreve,
Ucircumflex,
uni0214,
Udieresis,
uni1EE4,
Ugrave,
uni1EE6,
Uhorn,
uni1EE8,
uni1EF0,
uni1EEA,
uni1EEC,
uni1EEE,
Uhungarumlaut,
uni0216,
Umacron,
Uogonek,
Uring,
Utilde,
V,
W,
Wacute,
Wcircumflex,
Wdieresis,
Wgrave,
X,
Y,
Yacute,
Ycircumflex,
Ydieresis,
uni1EF4,

glyphs = (
{
glyphname = .notdef;
lastChange = "2019-09-24 19:39:11 +0000";
layers = (
{
hints = (
{
horizontal = 1;
place = "{121, 109}";
type = Stem;
},
{
horizontal = 1;
place = "{345, 177}";
type = Stem;
},
{
place = "{180, 123}";
type = Stem;
},
{
place = "{416, 123}";
type = Stem;
},
{
place = "{65, 120}";
type = Stem;
},
{
place = "{535, 119}";
type = Stem;
}
);
layerId = "D215EC84-7FFD-4436-99F3-284D9B779A16";
paths = (
{
closed = 1;
nodes = (
"190 29 LINE",
"198 76 LINE",
"250 121 LINE",
"512 121 LINE",
"549 77 LINE",
"540 29 LINE",
"659 29 LINE",
"677 132 LINE",
"591 230 LINE",
"211 230 LINE",
"88 132 LINE",
"70 29 LINE"
);
},
{
closed = 1;
nodes = (
"364 345 LINE",
"395 522 LINE",
"272 522 LINE",
"241 345 LINE"
);
},
{
closed = 1;
nodes = (
"600 345 LINE",
"631 522 LINE",
"508 522 LINE",
"477 345 LINE"
);
}
);
width = 719;
}
);
note = .notdef;
},
{
glyphname = A;
lastChange = "2019-09-24 19:39:11 +0000";
layers = (
{
hints = (
{
horizontal = 1;
place = "{147, 144}";
type = Stem;
},
{
horizontal = 1;
place = "{596, 141}";
type = Stem;
},
{
place = "{0, 736}";
type = Stem;
}
);
layerId = "D215EC84-7FFD-4436-99F3-284D9B779A16";
paths = (
{
closed = 1;
nodes = (
"205.682 0 LINE",
"267.572 147 LINE",
"530.827 147 LINE",
"542.011 0 LINE",
"732.203 0 LINE",
"647.539 737 LINE",
"342.963 737 LINE",
"-7.049 0 LINE"
);
},
{
closed = 1;
nodes = (
"458.578 596 LINE",
"495 596 LINE",
"519.044 291 LINE",
"327.455 291 LINE"
);
}
);
width = 736;
}
);
leftKerningGroup = A;
note = A;
rightKerningGroup = A;
unicode = 0041;
},
{
glyphname = Aacute;
lastChange = "2019-09-24 19:39:11 +0000";
layers = (
{
hints = (
{
horizontal = 1;
place = "{147, 144}";
type = Stem;
},
{
horizontal = 1;
place = "{596, 141}";
type = Stem;
},
{
horizontal = 1;
place = "{795, 157}";
type = Stem;
},
{
place = "{0, 736}";
type = Stem;
},
{
horizontal = 1;
place = "{147, 144}";
type = Stem;
},
{
horizontal = 1;
place = "{596, 141}";
type = Stem;
},
{
place = "{0, 736}";
type = Stem;
},
{
horizontal = 1;
place = "{795, 157}";
type = Stem;
},
{
place = "{86.249, 287}";
type = Stem;
}
);
layerId = "D215EC84-7FFD-4436-99F3-284D9B779A16";
paths = (
{
closed = 1;
nodes = (
"205.682 0 LINE",
"267.572 147 LINE",
"530.827 147 LINE",
"542.011 0 LINE",
"732.203 0 LINE",
"647.539 737 LINE",
"342.963 737 LINE",
"-7.049 0 LINE"
);
},
{
closed = 1;
nodes = (
"458.578 596 LINE",
"495 596 LINE",
"519.044 291 LINE",
"327.455 291 LINE"
);
},
{
closed = 1;
nodes = (
"576.294 795 LINE",
"754.294 952 LINE",
"557.249 952 LINE",
"446.249 795 LINE"
);
}
);
width = 736;
}
);
leftKerningGroup = A;
note = Aacute;
rightKerningGroup = A;
unicode = 00C1;
},
{
glyphname = Abreve;
lastChange = "2019-09-24 19:39:11 +0000";
layers = (
{
hints = (
{
horizontal = 1;
place = "{147, 144}";
type = Stem;
},
{
horizontal = 1;
place = "{596, 141}";
type = Stem;
},
{
horizontal = 1;
place = "{795, 94}";
type = Stem;
},
{
place = "{170.5, 132}";
type = Stem;
},
{
place = "{425.5, 132}";
type = Stem;
},
{
horizontal = 1;
place = "{873, 74}";
type = Stem;
},
{
horizontal = 1;
place = "{147, 144}";
type = Stem;
},
{
horizontal = 1;
place = "{596, 141}";
type = Stem;
},
{
place = "{0, 736}";
type = Stem;
},
{
horizontal = 1;
place = "{795, 94}";
type = Stem;
},
{
place = "{-140.925, 132}";
type = Stem;
},
{
place = "{114.075, 132}";
type = Stem;
},
{
horizontal = 1;
place = "{873, 74}";
type = Stem;
}
);
layerId = "D215EC84-7FFD-4436-99F3-284D9B779A16";
paths = (
{
closed = 1;
nodes = (
"205.682 0 LINE",
"267.572 147 LINE",
"530.827 147 LINE",
"542.011 0 LINE",
"732.203 0 LINE",
"647.539 737 LINE",
"342.963 737 LINE",
"-7.049 0 LINE"
);
},
{
closed = 1;
nodes = (
"458.578 596 LINE",
"495 596 LINE",
"519.044 291 LINE",
"327.455 291 LINE"
);
},
{
closed = 1;
nodes = (
"620.075 795 LINE",
"720.075 873 LINE",
"733.075 947 LINE",
"597.075 947 LINE",
"589.075 902 LINE",
"573.075 889 LINE",
"482.075 889 LINE",
"470.075 902 LINE",
"478.075 947 LINE",
"342.075 947 LINE",
"329.075 873 LINE",
"400.075 795 LINE"
);
}
);
width = 736;
}
);
leftKerningGroup = A;
note = Abreve;
rightKerningGroup = A;
unicode = 0102;
},
{
glyphname = uni1EAE;
lastChange = "2019-09-24 19:39:11 +0000";
layers = (
{
hints = (
{
horizontal = 1;
place = "{147, 144}";
type = Stem;
},
{
horizontal = 1;
place = "{596, 141}";
type = Stem;
},
{
horizontal = 1;
place = "{795, 94}";
type = Stem;
},
{
horizontal = 1;
place = "{979, 157}";
type = Stem;
},
{
place = "{170.5, 132}";
type = Stem;
},
{
place = "{425.5, 132}";
type = Stem;
},
{
horizontal = 1;
place = "{873, 74}";
type = Stem;
},
{
horizontal = 1;
place = "{147, 144}";
type = Stem;
},
{
horizontal = 1;
place = "{596, 141}";
type = Stem;
},
{
place = "{0, 736}";
type = Stem;
},
{
horizontal = 1;
place = "{795, 94}";
type = Stem;
},
{
horizontal = 1;
place = "{979, 157}";
type = Stem;
},
{
place = "{-167.185, 132}";
type = Stem;
},
{
place = "{87.815, 132}";
type = Stem;
},
{
horizontal = 1;
place = "{873, 74}";
type = Stem;
},
{
horizontal = 1;
place = "{795, 94}";
type = Stem;
},
{
place = "{312.075, 132}";
type = Stem;
},
{
place = "{567.075, 132}";
type = Stem;
},
{
horizontal = 1;
place = "{873, 74}";
type = Stem;
},
{
horizontal = 1;
place = "{795, 94}";
type = Stem;
},
{
place = "{-140.925, 132}";
type = Stem;
},
{
place = "{114.075, 132}";
type = Stem;
},
{
horizontal = 1;
place = "{873, 74}";
type = Stem;
},
{
horizontal = 1;
place = "{979, 157}";
type = Stem;
},
{
place = "{119.341, 287}";
type = Stem;
}
);
layerId = "D215EC84-7FFD-4436-99F3-284D9B779A16";
paths = (
{
closed = 1;
nodes = (
"205.682 0 LINE",
"267.572 147 LINE",
"530.827 147 LINE",
"542.011 0 LINE",
"732.203 0 LINE",
"647.539 737 LINE",
"342.963 737 LINE",
"-7.049 0 LINE"
);
},
{
closed = 1;
nodes = (
"458.578 596 LINE",
"495 596 LINE",
"519.044 291 LINE",
"327.455 291 LINE"
);
},
{
closed = 1;
nodes = (
"620.075 795 LINE",
"720.075 873 LINE",
"733.075 947 LINE",
"597.075 947 LINE",
"589.075 902 LINE",
"573.075 889 LINE",
"482.075 889 LINE",
"470.075 902 LINE",
"478.075 947 LINE",
"342.075 947 LINE",
"329.075 873 LINE",
"400.075 795 LINE"
);
},
{
closed = 1;
nodes = (
"609.386 979 LINE",
"787.386 1136 LINE",
"590.341 1136 LINE",
"479.341 979 LINE"
);
}
);
width = 736;
}
);
leftKerningGroup = A;
note = uni1EAE;
rightKerningGroup = A;
unicode = 1EAE;
},
{
glyphname = uni1EB6;
lastChange = "2019-09-24 19:39:11 +0000";
layers = (
{
hints = (
{
horizontal = 1;
place = "{-197, 140}";
type = Stem;
},
{
horizontal = 1;
place = "{147, 144}";
type = Stem;
},
{
horizontal = 1;
place = "{596, 141}";
type = Stem;
},
{
horizontal = 1;
place = "{795, 94}";
type = Stem;
},
{
place = "{425.5, 132}";
type = Stem;
},
{
horizontal = 1;
place = "{873, 74}";
type = Stem;
},
{
place = "{170.5, 132}";
type = Stem;
},
{
place = "{270.5, 187}";
type = Stem;
},
{
horizontal = 1;
place = "{147, 144}";
type = Stem;
},
{
horizontal = 1;
place = "{596, 141}";
type = Stem;
},
{
place = "{0, 736}";
type = Stem;
},
{
horizontal = 1;
place = "{795, 94}";
type = Stem;
},
{
place = "{-140.925, 132}";
type = Stem;
},
{
place = "{114.075, 132}";
type = Stem;
},
{
horizontal = 1;
place = "{873, 74}";
type = Stem;
},
{
horizontal = 1;
place = "{-197, 140}";
type = Stem;
},
{
place = "{-34.002, 187}";
type = Stem;
},
{
horizontal = 1;
place = "{-197, 140}";
type = Stem;
},
{
place = "{-49.002, 187}";
type = Stem;
}
);
layerId = "D215EC84-7FFD-4436-99F3-284D9B779A16";
paths = (
{
closed = 1;
nodes = (
"205.682 0 LINE",
"267.572 147 LINE",
"530.827 147 LINE",
"542.011 0 LINE",
"732.203 0 LINE",
"647.539 737 LINE",
"342.963 737 LINE",
"-7.049 0 LINE"
);
},
{
closed = 1;
nodes = (
"433.998 -197 LINE",
"458.998 -57 LINE",
"267.998 -57 LINE",
"242.998 -197 LINE"
);
},
{
closed = 1;
nodes = (
"458.578 596 LINE",
"495 596 LINE",
"519.044 291 LINE",
"327.455 291 LINE"
);
},
{
closed = 1;
nodes = (
"620.075 795 LINE",
"720.075 873 LINE",
"733.075 947 LINE",
"597.075 947 LINE",
"589.075 902 LINE",
"573.075 889 LINE",
"482.075 889 LINE",
"470.075 902 LINE",
"478.075 947 LINE",
"342.075 947 LINE",
"329.075 873 LINE",
"400.075 795 LINE"
);
}
);
width = 736;
}
);
leftKerningGroup = A;
note = uni1EB6;
rightKerningGroup = A;
unicode = 1EB6;
},
{
glyphname = uni1EB0;
lastChange = "2019-09-24 19:39:11 +0000";
layers = (
{
hints = (
{
horizontal = 1;
place = "{147, 144}";
type = Stem;
},
{
horizontal = 1;
place = "{596, 141}";
type = Stem;
},
{
horizontal = 1;
place = "{795, 94}";
type = Stem;
},
{
horizontal = 1;
place = "{979, 157}";
type = Stem;
},
{
place = "{170.5, 132}";
type = Stem;
},
{
place = "{425.5, 132}";
type = Stem;
},
{
horizontal = 1;
place = "{873, 74}";
type = Stem;
},
{
horizontal = 1;
place = "{147, 144}";
type = Stem;
},
{
horizontal = 1;
place = "{596, 141}";
type = Stem;
},
{
place = "{0, 736}";
type = Stem;
},
{
horizontal = 1;
place = "{795, 94}";
type = Stem;
},
{
horizontal = 1;
place = "{979, 157}";
type = Stem;
},
{
place = "{-138.925, 132}";
type = Stem;
},
{
place = "{116.075, 132}";
type = Stem;
},
{
horizontal = 1;
place = "{873, 74}";
type = Stem;
},
{
horizontal = 1;
place = "{795, 94}";
type = Stem;
},
{
place = "{312.075, 132}";
type = Stem;
},
{
place = "{567.075, 132}";
type = Stem;
},
{
horizontal = 1;
place = "{873, 74}";
type = Stem;
},
{
horizontal = 1;
place = "{795, 94}";
type = Stem;
},
{
place = "{-140.925, 132}";
type = Stem;
},
{
place = "{114.075, 132}";
type = Stem;
},
{
horizontal = 1;
place = "{873, 74}";
type = Stem;
},
{
horizontal = 1;
place = "{979, 157}";
type = Stem;
},
{
place = "{-21.945, 287}";
type = Stem;
}
);
layerId = "D215EC84-7FFD-4436-99F3-284D9B779A16";
paths = (
{
closed = 1;
nodes = (
"205.682 0 LINE",
"267.572 147 LINE",
"530.827 147 LINE",
"542.011 0 LINE",
"732.203 0 LINE",
"647.539 737 LINE",
"342.963 737 LINE",
"-7.049 0 LINE"
);
},
{
closed = 1;
nodes = (
"458.578 596 LINE",
"495 596 LINE",
"519.044 291 LINE",
"327.455 291 LINE"
);
},
{
closed = 1;
nodes = (
"620.075 795 LINE",
"720.075 873 LINE",
"733.075 947 LINE",
"597.075 947 LINE",
"589.075 902 LINE",
"573.075 889 LINE",
"482.075 889 LINE",
"470.075 902 LINE",
"478.075 947 LINE",
"342.075 947 LINE",
"329.075 873 LINE",
"400.075 795 LINE"
);
},
{
closed = 1;
nodes = (
"603.055 979 LINE",
"526.055 1136 LINE",
"355.055 1136 LINE",
"484.055 979 LINE"
);
}
);
width = 736;
}
);
leftKerningGroup = A;
note = uni1EB0;
rightKerningGroup = A;
unicode = 1EB0;
},
{
glyphname = uni1EB2;
lastChange = "2019-09-24 19:39:11 +0000";
layers = (
{
hints = (
{
horizontal = 1;
place = "{147, 144}";
type = Stem;
},
{
horizontal = 1;
place = "{596, 141}";
type = Stem;
},
{
horizontal = 1;
place = "{795, 94}";
type = Stem;
},
{
horizontal = 1;
place = "{1105, 100}";
type = Stem;
},
{
place = "{299, 127}";
type = Stem;
},
{
horizontal = 1;
place = "{979, 80}";
type = Stem;
},
{
place = "{374, 125}";
type = Stem;
},
{
place = "{229, 113}";
type = Stem;
},
{
place = "{425.5, 132}";
type = Stem;
},
{
horizontal = 1;
place = "{873, 74}";
type = Stem;
},
{
place = "{170.5, 132}";
type = Stem;
},
{
horizontal = 1;
place = "{147, 144}";
type = Stem;
},
{
horizontal = 1;
place = "{596, 141}";
type = Stem;
},
{
place = "{0, 736}";
type = Stem;
},
{
horizontal = 1;
place = "{795, 94}";
type = Stem;
},
{
horizontal = 1;
place = "{979, 80}";
type = Stem;
},
{
horizontal = 1;
place = "{1105, 100}";
type = Stem;
},
{
place = "{-12.425, 127}";
type = Stem;
},
{
place = "{-82.425, 113}";
type = Stem;
},
{
place = "{62.575, 125}";
type = Stem;
},
{
place = "{114.075, 132}";
type = Stem;
},
{
horizontal = 1;
place = "{873, 74}";
type = Stem;
},
{
place = "{-140.925, 132}";
type = Stem;
},
{
horizontal = 1;
place = "{795, 94}";
type = Stem;
},
{
place = "{312.075, 132}";
type = Stem;
},
{
place = "{567.075, 132}";
type = Stem;
},
{
horizontal = 1;
place = "{873, 74}";
type = Stem;
},
{
horizontal = 1;
place = "{795, 94}";
type = Stem;
},
{
place = "{-140.925, 132}";
type = Stem;
},
{
place = "{114.075, 132}";
type = Stem;
},
{
horizontal = 1;
place = "{873, 74}";
type = Stem;
},
{
horizontal = 1;
place = "{979, 80}";
type = Stem;
},
{
horizontal = 1;
place = "{1105, 100}";
type = Stem;
},
{
place = "{143.075, 127}";
type = Stem;
},
{
place = "{73.075, 113}";
type = Stem;
},
{
place = "{218.075, 125}";
type = Stem;
}
);
layerId = "D215EC84-7FFD-4436-99F3-284D9B779A16";
paths = (
{
closed = 1;
nodes = (
"205.682 0 LINE",
"267.572 147 LINE",
"530.827 147 LINE",
"542.011 0 LINE",
"732.203 0 LINE",
"647.539 737 LINE",
"342.963 737 LINE",
"-7.049 0 LINE"
);
},
{
closed = 1;
nodes = (
"458.578 596 LINE",
"495 596 LINE",
"519.044 291 LINE",
"327.455 291 LINE"
);
},
{
closed = 1;
nodes = (
"620.075 795 LINE",
"720.075 873 LINE",
"733.075 947 LINE",
"597.075 947 LINE",
"589.075 902 LINE",
"573.075 889 LINE",
"482.075 889 LINE",
"470.075 902 LINE",
"478.075 947 LINE",
"342.075 947 LINE",
"329.075 873 LINE",
"400.075 795 LINE"
);
},
{
closed = 1;
nodes = (
"605.075 979 LINE",
"612.075 1020 LINE",
"693.075 1062 LINE",
"711.075 1165 LINE",
"675.075 1205 LINE",
"487.075 1205 LINE",
"437.075 1165 LINE",
"426.075 1105 LINE",
"541.075 1105 LINE",
"547.075 1134 LINE",
"579.075 1134 LINE",
"573.075 1105 LINE",
"488.075 1059 LINE",
"474.075 979 LINE"
);
}
);
width = 736;
}
);
leftKerningGroup = A;
note = uni1EB2;
rightKerningGroup = A;
unicode = 1EB2;
},
{
glyphname = uni1EB4;
lastChange = "2019-09-24 19:39:11 +0000";
layers = (
{
hints = (
{
horizontal = 1;
place = "{147, 144}";
type = Stem;
},
{
horizontal = 1;
place = "{596, 141}";
type = Stem;
},
{
horizontal = 1;
place = "{795, 94}";
type = Stem;
},
{
horizontal = 1;
place = "{986, 150}";
type = Stem;
},
{
place = "{147, 125}";
type = Stem;
},
{
place = "{425.5, 132}";
type = Stem;
},
{
horizontal = 1;
place = "{979, 151}";
type = Stem;
},
{
place = "{170.5, 132}";
type = Stem;
},
{
place = "{474, 125.5}";
type = Stem;
},
{
horizontal = 1;
place = "{873, 74}";
type = Stem;
},
{
horizontal = 1;
place = "{147, 144}";
type = Stem;
},
{
horizontal = 1;
place = "{596, 141}";
type = Stem;
},
{
place = "{0, 736}";
type = Stem;
},
{
horizontal = 1;
place = "{795, 94}";
type = Stem;
},
{
horizontal = 1;
place = "{986, 150}";
type = Stem;
},
{
place = "{-213.925, 125}";
type = Stem;
},
{
place = "{64.575, 132}";
type = Stem;
},
{
horizontal = 1;
place = "{979, 151}";
type = Stem;
},
{
place = "{-190.425, 132}";
type = Stem;
},
{
place = "{113.075, 125.5}";
type = Stem;
},
{
horizontal = 1;
place = "{873, 74}";
type = Stem;
},
{
horizontal = 1;
place = "{795, 94}";
type = Stem;
},
{
place = "{312.075, 132}";
type = Stem;
},
{
place = "{567.075, 132}";
type = Stem;
},
{
horizontal = 1;
place = "{873, 74}";
type = Stem;
},
{
horizontal = 1;
place = "{795, 94}";
type = Stem;
},
{
place = "{-140.925, 132}";
type = Stem;
},
{
place = "{114.075, 132}";
type = Stem;
},
{
horizontal = 1;
place = "{873, 74}";
type = Stem;
},
{
horizontal = 1;
place = "{986, 150}";
type = Stem;
},
{
place = "{-221.925, 125}";
type = Stem;
},
{
place = "{105.075, 125.5}";
type = Stem;
},
{
horizontal = 1;
place = "{979, 151}";
type = Stem;
}
);
layerId = "D215EC84-7FFD-4436-99F3-284D9B779A16";
paths = (
{
closed = 1;
nodes = (
"205.682 0 LINE",
"267.572 147 LINE",
"530.827 147 LINE",
"542.011 0 LINE",
"732.203 0 LINE",
"647.539 737 LINE",
"342.963 737 LINE",
"-7.049 0 LINE"
);
},
{
closed = 1;
nodes = (
"458.578 596 LINE",
"495 596 LINE",
"519.044 291 LINE",
"327.455 291 LINE"
);
},
{
closed = 1;
nodes = (
"620.075 795 LINE",
"720.075 873 LINE",
"733.075 947 LINE",
"597.075 947 LINE",
"589.075 902 LINE",
"573.075 889 LINE",
"482.075 889 LINE",
"470.075 902 LINE",
"478.075 947 LINE",
"342.075 947 LINE",
"329.075 873 LINE",
"400.075 795 LINE"
);
},
{
closed = 1;
nodes = (
"710.075 979 LINE",
"793.075 1053 LINE",
"806.075 1130 LINE",
"678.075 1130 LINE",
"673.075 1103 LINE",
"654.075 1077 LINE",
"634.075 1077 LINE",
"598.075 1136 LINE",
"418.075 1136 LINE",
"337.075 1065 LINE",
"322.075 986 LINE",
"450.075 986 LINE",
"455.075 1011 LINE",
"474.075 1042 LINE",
"494.075 1042 LINE",
"530.075 979 LINE"
);
}
);
width = 736;
}
);
leftKerningGroup = A;
note = uni1EB4;
rightKerningGroup = A;
unicode = 1EB4;
},
{
glyphname = Acircumflex;
lastChange = "2019-09-24 19:39:11 +0000";
layers = (
{
hints = (
{
horizontal = 1;
place = "{147, 144}";
type = Stem;
},
{
horizontal = 1;
place = "{596, 141}";
type = Stem;
},
{
horizontal = 1;
place = "{795, 152}";
type = Stem;
},
{
place = "{0, 736}";
type = Stem;
},
{
horizontal = 1;
place = "{147, 144}";
type = Stem;
},
{
horizontal = 1;
place = "{596, 141}";
type = Stem;
},
{
place = "{0, 736}";
type = Stem;
},
{
horizontal = 1;
place = "{795, 152}";
type = Stem;
},
{
place = "{-219.133, 424}";
type = Stem;
}
);
layerId = "D215EC84-7FFD-4436-99F3-284D9B779A16";
paths = (
{
closed = 1;
nodes = (
"205.682 0 LINE",
"267.572 147 LINE",
"530.827 147 LINE",
"542.011 0 LINE",
"732.203 0 LINE",
"647.539 737 LINE",
"342.963 737 LINE",
"-7.049 0 LINE"
);
},
{
closed = 1;
nodes = (
"458.578 596 LINE",
"495 596 LINE",
"519.044 291 LINE",
"327.455 291 LINE"
);
},
{
closed = 1;
nodes = (
"434.867 795 LINE",
"518.867 867 LINE",
"575.867 795 LINE",
"711.867 795 LINE",
"625.867 947 LINE",
"427.867 947 LINE",
"287.867 795 LINE"
);
}
);
width = 736;
}
);
leftKerningGroup = A;
note = Acircumflex;
rightKerningGroup = A;
unicode = 00C2;
},
{
glyphname = uni1EA4;
lastChange = "2019-09-24 19:39:11 +0000";
layers = (
{
hints = (
{
horizontal = 1;
place = "{147, 144}";
type = Stem;
},
{
horizontal = 1;
place = "{596, 141}";
type = Stem;
},
{
horizontal = 1;
place = "{876.73, 157}";
type = Stem;
},
{
place = "{0, 848}";
type = Stem;
},
{
horizontal = 1;
place = "{795, 152}";
type = Stem;
},
{
horizontal = 1;
place = "{147, 144}";
type = Stem;
},
{
horizontal = 1;
place = "{596, 141}";
type = Stem;
},
{
place = "{0, 736}";
type = Stem;
},
{
horizontal = 1;
place = "{876.73, 157}";
type = Stem;
},
{
place = "{-482.133, 696}";
type = Stem;
},
{
horizontal = 1;
place = "{795, 152}";
type = Stem;
},
{
horizontal = 1;
place = "{795, 152}";
type = Stem;
},
{
place = "{-219.133, 424}";
type = Stem;
},
{
horizontal = 1;
place = "{877, 157}";
type = Stem;
},
{
place = "{353.79, 287}";
type = Stem;
}
);
layerId = "D215EC84-7FFD-4436-99F3-284D9B779A16";
paths = (
{
closed = 1;
nodes = (
"205.682 0 LINE",
"267.572 147 LINE",
"530.827 147 LINE",
"542.011 0 LINE",
"732.203 0 LINE",
"647.539 737 LINE",
"342.963 737 LINE",
"-7.049 0 LINE"
);
},
{
closed = 1;
nodes = (
"458.578 596 LINE",
"495 596 LINE",
"519.044 291 LINE",
"327.455 291 LINE"
);
},
{
closed = 1;
nodes = (
"434.867 795 LINE",
"518.867 867 LINE",
"575.867 795 LINE",
"711.867 795 LINE",
"625.867 947 LINE",
"427.867 947 LINE",
"287.867 795 LINE"
);
},
{
closed = 1;
nodes = (
"843.835 877 LINE",
"1021.835 1034 LINE",
"824.79 1034 LINE",
"713.79 877 LINE"
);
}
);
width = 736;
}
);
leftKerningGroup = A;
note = uni1EA4;
rightKerningGroup = A;
unicode = 1EA4;
},
{
glyphname = uni1EAC;
lastChange = "2019-09-24 19:39:11 +0000";
layers = (
{
hints = (
{
horizontal = 1;
place = "{-197, 140}";
type = Stem;
},
{
horizontal = 1;
place = "{147, 144}";
type = Stem;
},
{
horizontal = 1;
place = "{596, 141}";
type = Stem;
},
{
horizontal = 1;
place = "{795, 152}";
type = Stem;
},
{
place = "{270.5, 187}";
type = Stem;
},
{
horizontal = 1;
place = "{147, 144}";
type = Stem;
},
{
horizontal = 1;
place = "{596, 141}";
type = Stem;
},
{
place = "{0, 736}";
type = Stem;
},
{
horizontal = 1;
place = "{795, 152}";
type = Stem;
},
{
place = "{-219.133, 424}";
type = Stem;
},
{
horizontal = 1;
place = "{-197, 140}";
type = Stem;
},
{
place = "{-34.002, 187}";
type = Stem;
},
{
horizontal = 1;
place = "{-197, 140}";
type = Stem;
},
{
place = "{-49.002, 187}";
type = Stem;
}
);
layerId = "D215EC84-7FFD-4436-99F3-284D9B779A16";
paths = (
{
closed = 1;
nodes = (
"205.682 0 LINE",
"267.572 147 LINE",
"530.827 147 LINE",
"542.011 0 LINE",
"732.203 0 LINE",
"647.539 737 LINE",
"342.963 737 LINE",
"-7.049 0 LINE"
);
},
{
closed = 1;
nodes = (
"433.998 -197 LINE",
"458.998 -57 LINE",
"267.998 -57 LINE",
"242.998 -197 LINE"
);
},
{
closed = 1;
nodes = (
"458.578 596 LINE",
"495 596 LINE",
"519.044 291 LINE",
"327.455 291 LINE"
);
},
{
closed = 1;
nodes = (
"434.867 795 LINE",
"518.867 867 LINE",
"575.867 795 LINE",
"711.867 795 LINE",
"625.867 947 LINE",
"427.867 947 LINE",
"287.867 795 LINE"
);
}
);
width = 736;
}
);
leftKerningGroup = A;
note = uni1EAC;
rightKerningGroup = A;
unicode = 1EAC;
},
{
glyphname = uni1EA6;
lastChange = "2019-09-24 19:39:11 +0000";
layers = (
{
hints = (
{
horizontal = 1;
place = "{147, 144}";
type = Stem;
},
{
horizontal = 1;
place = "{596, 141}";
type = Stem;
},
{
horizontal = 1;
place = "{876.77, 157}";
type = Stem;
},
{
place = "{-120, 856}";
type = Stem;
},
{
horizontal = 1;
place = "{795, 152}";
type = Stem;
},
{
horizontal = 1;
place = "{147, 144}";
type = Stem;
},
{
horizontal = 1;
place = "{596, 141}";
type = Stem;
},
{
place = "{0, 736}";
type = Stem;
},
{
horizontal = 1;
place = "{876.77, 157}";
type = Stem;
},
{
place = "{-672.071, 696}";
type = Stem;
},
{
horizontal = 1;
place = "{795, 152}";
type = Stem;
},
{
horizontal = 1;
place = "{795, 152}";
type = Stem;
},
{
place = "{-219.133, 424}";
type = Stem;
},
{
horizontal = 1;
place = "{877, 157}";
type = Stem;
},
{
place = "{-308.085, 287}";
type = Stem;
}
);
layerId = "D215EC84-7FFD-4436-99F3-284D9B779A16";
paths = (
{
closed = 1;
nodes = (
"205.682 0 LINE",
"267.572 147 LINE",
"530.827 147 LINE",
"542.011 0 LINE",
"732.203 0 LINE",
"647.539 737 LINE",
"342.963 737 LINE",
"-7.049 0 LINE"
);
},
{
closed = 1;
nodes = (
"458.578 596 LINE",
"495 596 LINE",
"519.044 291 LINE",
"327.455 291 LINE"
);
},
{
closed = 1;
nodes = (
"316.915 877 LINE",
"239.915 1034 LINE",
"68.915 1034 LINE",
"197.915 877 LINE"
);
},
{
closed = 1;
nodes = (
"434.867 795 LINE",
"518.867 867 LINE",
"575.867 795 LINE",
"711.867 795 LINE",
"625.867 947 LINE",
"427.867 947 LINE",
"287.867 795 LINE"
);
}
);
width = 736;
}
);
leftKerningGroup = A;
note = uni1EA6;
rightKerningGroup = A;
unicode = 1EA6;
},
{
glyphname = uni1EA8;
lastChange = "2019-09-24 19:39:11 +0000";
layers = (
{
hints = (
{
horizontal = 1;
place = "{147, 144}";
type = Stem;
},
{
horizontal = 1;
place = "{596, 141}";
type = Stem;
},
{
horizontal = 1;
place = "{795, 152}";
type = Stem;
},
{
horizontal = 1;
place = "{1002.68, 100}";
type = Stem;
},
{
place = "{560, 127}";
type = Stem;
},
{
place = "{490, 113}";
type = Stem;
},
{
place = "{635, 125}";
type = Stem;
},
{
horizontal = 1;
place = "{147, 144}";
type = Stem;
},
{
horizontal = 1;
place = "{596, 141}";
type = Stem;
},
{
place = "{0, 736}";
type = Stem;
},
{
horizontal = 1;
place = "{795, 152}";
type = Stem;
},
{
horizontal = 1;
place = "{1002.68, 100}";
type = Stem;
},
{
place = "{4.867, 127}";
type = Stem;
},
{
place = "{-65.133, 113}";
type = Stem;
},
{
place = "{79.867, 125}";
type = Stem;
},
{
horizontal = 1;
place = "{795, 152}";
type = Stem;
},
{
place = "{-219.133, 424}";
type = Stem;
},
{
horizontal = 1;
place = "{877, 80}";
type = Stem;
},
{
horizontal = 1;
place = "{1003, 100}";
type = Stem;
},
{
place = "{380.653, 127}";
type = Stem;
},
{
place = "{310.653, 113}";
type = Stem;
},
{
place = "{455.653, 125}";
type = Stem;
}
);
layerId = "D215EC84-7FFD-4436-99F3-284D9B779A16";
paths = (
{
closed = 1;
nodes = (
"205.682 0 LINE",
"267.572 147 LINE",
"530.827 147 LINE",
"542.011 0 LINE",
"732.203 0 LINE",
"647.539 737 LINE",
"342.963 737 LINE",
"-7.049 0 LINE"
);
},
{
closed = 1;
nodes = (
"458.578 596 LINE",
"495 596 LINE",
"519.044 291 LINE",
"327.455 291 LINE"
);
},
{
closed = 1;
nodes = (
"434.867 795 LINE",
"518.867 867 LINE",
"575.867 795 LINE",
"711.867 795 LINE",
"625.867 947 LINE",
"427.867 947 LINE",
"287.867 795 LINE"
);
},
{
closed = 1;
nodes = (
"842.653 877 LINE",
"849.653 918 LINE",
"930.653 960 LINE",
"948.653 1063 LINE",
"912.653 1103 LINE",
"724.653 1103 LINE",
"674.653 1063 LINE",
"663.653 1003 LINE",
"778.653 1003 LINE",
"784.653 1032 LINE",
"816.653 1032 LINE",
"810.653 1003 LINE",
"725.653 957 LINE",
"711.653 877 LINE"
);
}
);
width = 736;
}
);
leftKerningGroup = A;
note = uni1EA8;
rightKerningGroup = A;
unicode = 1EA8;
},
{
glyphname = uni1EAA;
lastChange = "2019-09-24 19:39:11 +0000";
layers = (
{
hints = (
{
horizontal = 1;
place = "{147, 144}";
type = Stem;
},
{
horizontal = 1;
place = "{596, 141}";
type = Stem;
},
{
horizontal = 1;
place = "{795, 152}";
type = Stem;
},
{
horizontal = 1;
place = "{986, 150}";
type = Stem;
},
{
place = "{147, 125}";
type = Stem;
},
{
place = "{474, 125.5}";
type = Stem;
},
{
horizontal = 1;
place = "{979, 151}";
type = Stem;
},
{
horizontal = 1;
place = "{147, 144}";
type = Stem;
},
{
horizontal = 1;
place = "{596, 141}";
type = Stem;
},
{
place = "{0, 736}";
type = Stem;
},
{
horizontal = 1;
place = "{795, 152}";
type = Stem;
},
{
horizontal = 1;
place = "{986, 150}";
type = Stem;
},
{
place = "{-248.133, 125}";
type = Stem;
},
{
place = "{78.867, 125.5}";
type = Stem;
},
{
horizontal = 1;
place = "{979, 151}";
type = Stem;
},
{
horizontal = 1;
place = "{795, 152}";
type = Stem;
},
{
place = "{-219.133, 424}";
type = Stem;
},
{
horizontal = 1;
place = "{986, 150}";
type = Stem;
},
{
place = "{-228.88, 125}";
type = Stem;
},
{
place = "{98.12, 125.5}";
type = Stem;
},
{
horizontal = 1;
place = "{979, 151}";
type = Stem;
}
);
layerId = "D215EC84-7FFD-4436-99F3-284D9B779A16";
paths = (
{
closed = 1;
nodes = (
"205.682 0 LINE",
"267.572 147 LINE",
"530.827 147 LINE",
"542.011 0 LINE",
"732.203 0 LINE",
"647.539 737 LINE",
"342.963 737 LINE",
"-7.049 0 LINE"
);
},
{
closed = 1;
nodes = (
"458.578 596 LINE",
"495 596 LINE",
"519.044 291 LINE",
"327.455 291 LINE"
);
},
{
closed = 1;
nodes = (
"434.867 795 LINE",
"518.867 867 LINE",
"575.867 795 LINE",
"711.867 795 LINE",
"625.867 947 LINE",
"427.867 947 LINE",
"287.867 795 LINE"
);
},
{
closed = 1;
nodes = (
"703.12 979 LINE",
"786.12 1053 LINE",
"799.12 1130 LINE",
"671.12 1130 LINE",
"666.12 1103 LINE",
"647.12 1077 LINE",
"627.12 1077 LINE",
"591.12 1136 LINE",
"411.12 1136 LINE",
"330.12 1065 LINE",
"315.12 986 LINE",
"443.12 986 LINE",
"448.12 1011 LINE",
"467.12 1042 LINE",
"487.12 1042 LINE",
"523.12 979 LINE"
);
}
);
width = 736;
}
);
leftKerningGroup = A;
note = uni1EAA;
rightKerningGroup = A;
unicode = 1EAA;
},
{
glyphname = uni0200;
lastChange = "2019-09-24 19:39:11 +0000";
layers = (
{
hints = (
{
horizontal = 1;
place = "{147, 144}";
type = Stem;
},
{
horizontal = 1;
place = "{596, 141}";
type = Stem;
},
{
horizontal = 1;
place = "{795, 157}";
type = Stem;
},
{
place = "{0, 736}";
type = Stem;
},
{
horizontal = 1;
place = "{147, 144}";
type = Stem;
},
{
horizontal = 1;
place = "{596, 141}";
type = Stem;
},
{
place = "{0, 736}";
type = Stem;
},
{
horizontal = 1;
place = "{795, 157}";
type = Stem;
},
{
place = "{-381.271, 497}";
type = Stem;
},
{
horizontal = 1;
place = "{795, 157}";
type = Stem;
},
{
place = "{17.129, 287}";
type = Stem;
},
{
horizontal = 1;
place = "{795, 157}";
type = Stem;
},
{
place = "{-178.275, 287}";
type = Stem;
}
);
layerId = "D215EC84-7FFD-4436-99F3-284D9B779A16";
paths = (
{
closed = 1;
nodes = (
"205.682 0 LINE",
"267.572 147 LINE",
"530.827 147 LINE",
"542.011 0 LINE",
"732.203 0 LINE",
"647.539 737 LINE",
"342.963 737 LINE",
"-7.049 0 LINE"
);
},
{
closed = 1;
nodes = (
"458.578 596 LINE",
"495 596 LINE",
"519.044 291 LINE",
"327.455 291 LINE"
);
},
{
closed = 1;
nodes = (
"446.725 795 LINE",
"369.725 952 LINE",
"198.725 952 LINE",
"327.725 795 LINE"
);
},
{
closed = 1;
nodes = (
"642.129 795 LINE",
"565.129 952 LINE",
"394.129 952 LINE",
"523.129 795 LINE"
);
}
);
width = 736;
}
);
leftKerningGroup = A;
note = uni0200;
rightKerningGroup = A;
unicode = 0200;
},
{
glyphname = Adieresis;
lastChange = "2019-09-24 19:39:11 +0000";
layers = (
{
hints = (
{
horizontal = 1;
place = "{147, 144}";
type = Stem;
},
{
horizontal = 1;
place = "{596, 141}";
type = Stem;
},
{
horizontal = 1;
place = "{795, 140}";
type = Stem;
},
{
place = "{134, 175}";
type = Stem;
},
{
place = "{419, 175}";
type = Stem;
},
{
horizontal = 1;
place = "{147, 144}";
type = Stem;
},
{
horizontal = 1;
place = "{596, 141}";
type = Stem;
},
{
place = "{0, 736}";
type = Stem;
},
{
horizontal = 1;
place = "{795, 140}";
type = Stem;
},
{
place = "{-433.74, 175}";
type = Stem;
},
{
place = "{-148.74, 175}";
type = Stem;
},
{
horizontal = 1;
place = "{795, 140}";
type = Stem;
},
{
place = "{-18.74, 187}";
type = Stem;
},
{
horizontal = 1;
place = "{795, 140}";
type = Stem;
},
{
place = "{254.41, 187}";
type = Stem;
}
);
layerId = "D215EC84-7FFD-4436-99F3-284D9B779A16";
paths = (
{
closed = 1;
nodes = (
"205.682 0 LINE",
"267.572 147 LINE",
"530.827 147 LINE",
"542.011 0 LINE",
"732.203 0 LINE",
"647.539 737 LINE",
"342.963 737 LINE",
"-7.049 0 LINE"
);
},
{
closed = 1;
nodes = (
"458.578 596 LINE",
"495 596 LINE",
"519.044 291 LINE",
"327.455 291 LINE"
);
},
{
closed = 1;
nodes = (
"464.26 795 LINE",
"489.26 935 LINE",
"298.26 935 LINE",
"273.26 795 LINE"
);
},
{
closed = 1;
nodes = (
"737.41 795 LINE",
"762.41 935 LINE",
"571.41 935 LINE",
"546.41 795 LINE"
);
}
);
width = 736;
}
);
leftKerningGroup = A;
note = Adieresis;
rightKerningGroup = A;
unicode = 00C4;
},
{
glyphname = uni1EA0;
lastChange = "2019-09-24 19:39:11 +0000";
layers = (
{
hints = (
{
horizontal = 1;
place = "{-197, 140}";
type = Stem;
},
{
horizontal = 1;
place = "{147, 144}";
type = Stem;
},
{
horizontal = 1;
place = "{596, 141}";
type = Stem;
},
{
place = "{270.5, 187}";
type = Stem;
},
{
horizontal = 1;
place = "{147, 144}";
type = Stem;
},
{
horizontal = 1;
place = "{596, 141}";
type = Stem;
},
{
place = "{0, 736}";
type = Stem;
},
{
horizontal = 1;
place = "{-197, 140}";
type = Stem;
},
{
place = "{-34.002, 187}";
type = Stem;
},
{
horizontal = 1;
place = "{-197, 140}";
type = Stem;
},
{
place = "{-49.002, 187}";
type = Stem;
}
);
layerId = "D215EC84-7FFD-4436-99F3-284D9B779A16";
paths = (
{
closed = 1;
nodes = (
"205.682 0 LINE",
"267.572 147 LINE",
"530.827 147 LINE",
"542.011 0 LINE",
"732.203 0 LINE",
"647.539 737 LINE",
"342.963 737 LINE",
"-7.049 0 LINE"
);
},
{
closed = 1;
nodes = (
"433.998 -197 LINE",
"458.998 -57 LINE",
"267.998 -57 LINE",
"242.998 -197 LINE"
);
},
{
closed = 1;
nodes = (
"458.578 596 LINE",
"495 596 LINE",
"519.044 291 LINE",
"327.455 291 LINE"
);
}
);
width = 736;
}
);
leftKerningGroup = A;
note = uni1EA0;
rightKerningGroup = A;
unicode = 1EA0;
},
{
glyphname = Agrave;
lastChange = "2019-09-24 19:39:11 +0000";
layers = (
{
hints = (
{
horizontal = 1;
place = "{147, 144}";
type = Stem;
},
{
horizontal = 1;
place = "{596, 141}";
type = Stem;
},
{
horizontal = 1;
place = "{795, 157}";
type = Stem;
},
{
place = "{0, 736}";
type = Stem;
},
{
horizontal = 1;
place = "{147, 144}";
type = Stem;
},
{
horizontal = 1;
place = "{596, 141}";
type = Stem;
},
{
place = "{0, 736}";
type = Stem;
},
{
horizontal = 1;
place = "{795, 157}";
type = Stem;
},
{
place = "{-64.251, 287}";
type = Stem;
}
);
layerId = "D215EC84-7FFD-4436-99F3-284D9B779A16";
paths = (
{
closed = 1;
nodes = (
"205.682 0 LINE",
"267.572 147 LINE",
"530.827 147 LINE",
"542.011 0 LINE",
"732.203 0 LINE",
"647.539 737 LINE",
"342.963 737 LINE",
"-7.049 0 LINE"
);
},
{
closed = 1;
nodes = (
"458.578 596 LINE",
"495 596 LINE",
"519.044 291 LINE",
"327.455 291 LINE"
);
},
{
closed = 1;
nodes = (
"560.749 795 LINE",
"483.749 952 LINE",
"312.749 952 LINE",
"441.749 795 LINE"
);
}
);
width = 736;
}
);
leftKerningGroup = A;
note = Agrave;
rightKerningGroup = A;
unicode = 00C0;
},
{
glyphname = uni1EA2;
lastChange = "2019-09-24 19:39:11 +0000";
layers = (
{
hints = (
{
horizontal = 1;
place = "{147, 144}";
type = Stem;
},
{
horizontal = 1;
place = "{596, 141}";
type = Stem;
},
{
horizontal = 1;
place = "{921, 100}";
type = Stem;
},
{
place = "{299, 127}";
type = Stem;
},
{
horizontal = 1;
place = "{795, 80}";
type = Stem;
},
{
place = "{374, 125}";
type = Stem;
},
{
place = "{229, 113}";
type = Stem;
},
{
horizontal = 1;
place = "{147, 144}";
type = Stem;
},
{
horizontal = 1;
place = "{596, 141}";
type = Stem;
},
{
place = "{0, 736}";
type = Stem;
},
{
horizontal = 1;
place = "{795, 80}";
type = Stem;
},
{
horizontal = 1;
place = "{921, 100}";
type = Stem;
},
{
place = "{106.249, 127}";
type = Stem;
},
{
place = "{36.249, 113}";
type = Stem;
},
{
place = "{181.249, 125}";
type = Stem;
}
);
layerId = "D215EC84-7FFD-4436-99F3-284D9B779A16";
paths = (
{
closed = 1;
nodes = (
"205.682 0 LINE",
"267.572 147 LINE",
"530.827 147 LINE",
"542.011 0 LINE",
"732.203 0 LINE",
"647.539 737 LINE",
"342.963 737 LINE",
"-7.049 0 LINE"
);
},
{
closed = 1;
nodes = (
"458.578 596 LINE",
"495 596 LINE",
"519.044 291 LINE",
"327.455 291 LINE"
);
},
{
closed = 1;
nodes = (
"568.249 795 LINE",
"575.249 836 LINE",
"656.249 878 LINE",
"674.249 981 LINE",
"638.249 1021 LINE",
"450.249 1021 LINE",
"400.249 981 LINE",
"389.249 921 LINE",
"504.249 921 LINE",
"510.249 950 LINE",
"542.249 950 LINE",
"536.249 921 LINE",
"451.249 875 LINE",
"437.249 795 LINE"
);
}
);
width = 736;
}
);
leftKerningGroup = A;
note = uni1EA2;
rightKerningGroup = A;
unicode = 1EA2;
},
{
glyphname = uni0202;
lastChange = "2019-10-06 15:59:15 +0000";
layers = (
{
hints = (
{
horizontal = 1;
place = "{147, 144}";
type = Stem;
},
{
horizontal = 1;
place = "{596, 141}";
type = Stem;
},
{
horizontal = 1;
place = "{853, 93}";
type = Stem;
},
{
place = "{170.5, 132}";
type = Stem;
},
{
place = "{425.5, 132}";
type = Stem;
},
{
horizontal = 1;
place = "{147, 144}";
type = Stem;
},
{
horizontal = 1;
place = "{596, 141}";
type = Stem;
},
{
place = "{0, 736}";
type = Stem;
},
{
horizontal = 1;
place = "{853, 93}";
type = Stem;
},
{
place = "{-154.357, 132}";
type = Stem;
},
{
place = "{100.643, 132}";
type = Stem;
},
{
horizontal = 1;
place = "{947, -94}";
type = Stem;
},
{
place = "{1189.643, -132}";
type = Stem;
},
{
place = "{934.643, -132}";
type = Stem;
},
{
horizontal = 1;
place = "{869, -74}";
type = Stem;
}
);
layerId = "D215EC84-7FFD-4436-99F3-284D9B779A16";
paths = (
{
closed = 1;
nodes = (
"205.682 0 LINE",
"267.572 147 LINE",
"530.827 147 LINE",
"542.011 0 LINE",
"732.203 0 LINE",
"647.539 737 LINE",
"342.963 737 LINE",
"-7.049 0 LINE"
);
},
{
closed = 1;
nodes = (
"458.578 596 LINE",
"495 596 LINE",
"519.044 291 LINE",
"327.455 291 LINE"
);
},
{
closed = 1;
nodes = (
"451.643 795 LINE",
"459.643 840 LINE",
"475.643 853 LINE",
"566.643 853 LINE",
"578.643 840 LINE",
"570.643 795 LINE",
"706.643 795 LINE",
"719.643 869 LINE",
"648.643 947 LINE",
"428.643 947 LINE",
"328.643 869 LINE",
"315.643 795 LINE"
);
}
);
width = 736;
}
);
leftKerningGroup = A;
note = uni0202;
rightKerningGroup = A;
unicode = 0202;
},
{
glyphname = Amacron;
lastChange = "2019-09-24 19:39:11 +0000";
layers = (
{
hints = (
{
horizontal = 1;
place = "{147, 144}";
type = Stem;
},
{
horizontal = 1;
place = "{596, 141}";
type = Stem;
},
{
horizontal = 1;
place = "{795, 118}";
type = Stem;
},
{
place = "{0, 736}";
type = Stem;
},
{
horizontal = 1;
place = "{147, 144}";
type = Stem;
},
{
horizontal = 1;
place = "{596, 141}";
type = Stem;
},
{
place = "{0, 736}";
type = Stem;
},
{
horizontal = 1;
place = "{795, 118}";
type = Stem;
},
{
place = "{-240.021, 460}";
type = Stem;
}
);
layerId = "D215EC84-7FFD-4436-99F3-284D9B779A16";
paths = (
{
closed = 1;
nodes = (
"205.682 0 LINE",
"267.572 147 LINE",
"530.827 147 LINE",
"542.011 0 LINE",
"732.203 0 LINE",
"647.539 737 LINE",
"342.963 737 LINE",
"-7.049 0 LINE"
);
},
{
closed = 1;
nodes = (
"458.578 596 LINE",
"495 596 LINE",
"519.044 291 LINE",
"327.455 291 LINE"
);
},
{
closed = 1;
nodes = (
"737.979 795 LINE",
"758.979 913 LINE",
"294.979 913 LINE",
"273.979 795 LINE"
);
}
);
width = 736;
}
);
leftKerningGroup = A;
note = Amacron;
rightKerningGroup = A;
unicode = 0100;
},
{
glyphname = Aogonek;
lastChange = "2019-10-06 16:00:53 +0000";
layers = (
{
hints = (
{
horizontal = 1;
place = "{-180, 102}";
type = Stem;
},
{
horizontal = 1;
place = "{147, 144}";
type = Stem;
},
{
horizontal = 1;
place = "{596, 141}";
type = Stem;
},
{
place = "{493, 150}";
type = Stem;
},
{
horizontal = 1;
place = "{147, 144}";
type = Stem;
},
{
horizontal = 1;
place = "{596, 141}";
type = Stem;
},
{
place = "{0, 736}";
type = Stem;
},
{
horizontal = 1;
place = "{-180, 102}";
type = Stem;
},
{
horizontal = 1;
place = "{-33, 33}";
type = Stem;
},
{
place = "{257.113, 150}";
type = Stem;
}
);
layerId = "D215EC84-7FFD-4436-99F3-284D9B779A16";
paths = (
{
closed = 1;
nodes = (
"615.033 -180 LINE",
"633.033 -78 LINE",
"605.033 -78 LINE",
"590.033 -60 LINE",
"595.033 -33 LINE",
"635.033 0 LINE",
"732.203 0 LINE",
"647.539 737 LINE",
"342.963 737 LINE",
"-7.049 0 LINE",
"205.682 0 LINE",
"267.572 147 LINE",
"530.827 147 LINE",
"542.011 0 LINE",
"491.033 -33 LINE",
"479.111 -101.621 LINE",
"551.565 -180 LINE"
);
},
{
closed = 1;
nodes = (
"458.578 596 LINE",
"495 596 LINE",
"519.044 291 LINE",
"327.455 291 LINE"
);
}
);
width = 736;
}
);
leftKerningGroup = A;
note = Aogonek;
rightKerningGroup = A;
unicode = 0104;
},
{
glyphname = Aring;
lastChange = "2019-09-24 19:39:11 +0000";
layers = (
{
hints = (
{
horizontal = 1;
place = "{147, 144}";
type = Stem;
},
{
horizontal = 1;
place = "{596, 141}";
type = Stem;
},
{
horizontal = 1;
place = "{795, 79}";
type = Stem;
},
{
horizontal = 1;
place = "{940, 80}";
type = Stem;
},
{
place = "{234, 97}";
type = Stem;
},
{
place = "{397, 97}";
type = Stem;
},
{
horizontal = 1;
place = "{147, 144}";
type = Stem;
},
{
horizontal = 1;
place = "{596, 141}";
type = Stem;
},
{
place = "{0, 736}";
type = Stem;
},
{
horizontal = 1;
place = "{795, 79}";
type = Stem;
},
{
horizontal = 1;
place = "{940, 80}";
type = Stem;
},
{
place = "{39.249, 97}";
type = Stem;
},
{
place = "{202.249, 97}";
type = Stem;
}
);
layerId = "D215EC84-7FFD-4436-99F3-284D9B779A16";
paths = (
{
closed = 1;
nodes = (
"205.682 0 LINE",
"267.572 147 LINE",
"530.827 147 LINE",
"542.011 0 LINE",
"732.203 0 LINE",
"647.539 737 LINE",
"342.963 737 LINE",
"-7.049 0 LINE"
);
},
{
closed = 1;
nodes = (
"458.578 596 LINE",
"495 596 LINE",
"519.044 291 LINE",
"327.455 291 LINE"
);
},
{
closed = 1;
nodes = (
"561.249 795 LINE",
"646.249 867 LINE",
"660.249 948 LINE",
"601.249 1020 LINE",
"481.249 1020 LINE",
"396.249 948 LINE",
"382.249 867 LINE",
"441.249 795 LINE"
);
},
{
closed = 1;
nodes = (
"484.249 895 LINE",
"488.249 919 LINE",
"513.249 940 LINE",
"541.249 940 LINE",
"558.249 919 LINE",
"554.249 895 LINE",
"529.249 874 LINE",
"501.249 874 LINE"
);
}
);
width = 736;
}
);
leftKerningGroup = A;
note = Aring;
rightKerningGroup = A;
unicode = 00C5;
},
{
glyphname = Aringacute;
lastChange = "2019-09-24 19:39:11 +0000";
layers = (
{
guideLines = (
{
position = "{432, 1052}";
}
);
hints = (
{
horizontal = 1;
place = "{147, 144}";
type = Stem;
},
{
horizontal = 1;
place = "{596, 141}";
type = Stem;
},
{
horizontal = 1;
place = "{795, 79}";
type = Stem;
},
{
horizontal = 1;
place = "{940, 80}";
type = Stem;
},
{
horizontal = 1;
place = "{1052, 157}";
type = Stem;
},
{
place = "{234, 97}";
type = Stem;
},
{
place = "{397, 97}";
type = Stem;
},
{
horizontal = 1;
place = "{147, 144}";
type = Stem;
},
{
horizontal = 1;
place = "{596, 141}";
type = Stem;
},
{
place = "{0, 736}";
type = Stem;
},
{
horizontal = 1;
place = "{795, 79}";
type = Stem;
},
{
horizontal = 1;
place = "{940, 80}";
type = Stem;
},
{
place = "{39.249, 97}";
type = Stem;
},
{
place = "{202.249, 97}";
type = Stem;
},
{
horizontal = 1;
place = "{1051.98, 157}";
type = Stem;
},
{
place = "{126.494, 287}";
type = Stem;
}
);
layerId = "D215EC84-7FFD-4436-99F3-284D9B779A16";
paths = (
{
closed = 1;
nodes = (
"205.682 0 LINE",
"267.572 147 LINE",
"530.827 147 LINE",
"542.011 0 LINE",
"732.203 0 LINE",
"647.539 737 LINE",
"342.963 737 LINE",
"-7.049 0 LINE"
);
},
{
closed = 1;
nodes = (
"458.578 596 LINE",
"495 596 LINE",
"519.044 291 LINE",
"327.455 291 LINE"
);
},
{
closed = 1;
nodes = (
"561.249 795 LINE",
"646.249 867 LINE",
"660.249 948 LINE",
"601.249 1020 LINE",
"481.249 1020 LINE",
"396.249 948 LINE",
"382.249 867 LINE",
"441.249 795 LINE"
);
},
{
closed = 1;
nodes = (
"484.249 895 LINE",
"488.249 919 LINE",
"513.249 940 LINE",
"541.249 940 LINE",
"558.249 919 LINE",
"554.249 895 LINE",
"529.249 874 LINE",
"501.249 874 LINE"
);
},
{
closed = 1;
nodes = (
"616.539 1051.98 LINE",
"794.539 1208.98 LINE",
"597.494 1208.98 LINE",
"486.494 1051.98 LINE"
);
}
);
width = 736;
}
);
leftKerningGroup = A;
note = Aringacute;
rightKerningGroup = A;
unicode = 01FA;
},
{
glyphname = Atilde;
lastChange = "2019-09-24 19:39:11 +0000";
layers = (
{
hints = (
{
horizontal = 1;
place = "{147, 144}";
type = Stem;
},
{
horizontal = 1;
place = "{596, 141}";
type = Stem;
},
{
horizontal = 1;
place = "{802, 150}";
type = Stem;
},
{
place = "{142, 125}";
type = Stem;
},
{
place = "{469, 125.5}";
type = Stem;
},
{
horizontal = 1;
place = "{795, 151}";
type = Stem;
},
{
horizontal = 1;
place = "{147, 144}";
type = Stem;
},
{
horizontal = 1;
place = "{596, 141}";
type = Stem;
},
{
place = "{0, 736}";
type = Stem;
},
{
horizontal = 1;
place = "{802, 150}";
type = Stem;
},
{
place = "{-275.393, 125}";
type = Stem;
},
{
place = "{51.607, 125.5}";
type = Stem;
},
{
horizontal = 1;
place = "{795, 151}";
type = Stem;
}
);
layerId = "D215EC84-7FFD-4436-99F3-284D9B779A16";
paths = (
{
closed = 1;
nodes = (
"205.682 0 LINE",
"267.572 147 LINE",
"530.827 147 LINE",
"542.011 0 LINE",
"732.203 0 LINE",
"647.539 737 LINE",
"342.963 737 LINE",
"-7.049 0 LINE"
);
},
{
closed = 1;
nodes = (
"458.578 596 LINE",
"495 596 LINE",
"519.044 291 LINE",
"327.455 291 LINE"
);
},
{
closed = 1;
nodes = (
"656.607 795 LINE",
"739.607 869 LINE",
"752.607 946 LINE",
"624.607 946 LINE",
"619.607 919 LINE",
"600.607 893 LINE",
"580.607 893 LINE",
"544.607 952 LINE",
"364.607 952 LINE",
"283.607 881 LINE",
"268.607 802 LINE",
"396.607 802 LINE",
"401.607 827 LINE",
"420.607 858 LINE",
"440.607 858 LINE",
"476.607 795 LINE"
);
}
);
width = 736;
}
);
leftKerningGroup = A;
note = Atilde;
rightKerningGroup = A;
unicode = 00C3;
},
{
glyphname = AE;
lastChange = "2019-09-24 19:39:11 +0000";
layers = (
{
hints = (
{
horizontal = 1;
place = "{0, 163}";
type = Stem;
},
{
horizontal = 1;
place = "{302, 152}";
type = Stem;
},
{
horizontal = 1;
place = "{574, 163}";
type = Stem;
},
{
place = "{0, 1037}";
type = Stem;
},
{
horizontal = 1;
place = "{147, 144}";
type = Stem;
},
{
horizontal = 1;
place = "{147, 144}";
type = Stem;
},
{
horizontal = 1;
place = "{596, 141}";
type = Stem;
},
{
place = "{0, 736}";
type = Stem;
}
);
layerId = "D215EC84-7FFD-4436-99F3-284D9B779A16";
paths = (
{
closed = 1;
nodes = (
"205.682 0 LINE",
"267.572 147 LINE",
"530.827 147 LINE",
"542.011 0 LINE",
"1036 0 LINE",
"1065 163 LINE",
"714 163 LINE",
"698 302 LINE",
"1051 302 LINE",
"1078 454 LINE",
"680.049 454 LINE",
"666.264 574 LINE",
"1137 574 LINE",
"1166 737 LINE",
"342.963 737 LINE",
"-7.049 0 LINE"
);
},
{
closed = 1;
nodes = (
"458.578 596 LINE",
"495 596 LINE",
"519.044 291 LINE",
"327.455 291 LINE"
);
}
);
width = 1087;
}
);
leftKerningGroup = A;
note = AE;
rightKerningGroup = AE;
unicode = 00C6;
},
{
glyphname = AEacute;
lastChange = "2019-09-24 19:39:11 +0000";
layers = (
{
hints = (
{
horizontal = 1;
place = "{0, 163}";
type = Stem;
},
{
horizontal = 1;
place = "{302, 152}";
type = Stem;
},
{
horizontal = 1;
place = "{574, 163}";
type = Stem;
},
{
horizontal = 1;
place = "{795, 157}";
type = Stem;
},
{
place = "{0, 1037}";
type = Stem;
},
{
horizontal = 1;
place = "{147, 144}";
type = Stem;
},
{
horizontal = 1;
place = "{0, 163}";
type = Stem;
},
{
horizontal = 1;
place = "{302, 152}";
type = Stem;
},
{
horizontal = 1;
place = "{574, 163}";
type = Stem;
},
{
place = "{0, 1037}";
type = Stem;
},
{
horizontal = 1;
place = "{147, 144}";
type = Stem;
},
{
horizontal = 1;
place = "{147, 144}";
type = Stem;
},
{
horizontal = 1;
place = "{596, 141}";
type = Stem;
},
{
place = "{0, 736}";
type = Stem;
},
{
horizontal = 1;
place = "{795, 157}";
type = Stem;
},
{
place = "{86.249, 287}";
type = Stem;
}
);
layerId = "D215EC84-7FFD-4436-99F3-284D9B779A16";
paths = (
{
closed = 1;
nodes = (
"205.682 0 LINE",
"267.572 147 LINE",
"530.827 147 LINE",
"542.011 0 LINE",
"1036 0 LINE",
"1065 163 LINE",
"714 163 LINE",
"698 302 LINE",
"1051 302 LINE",
"1078 454 LINE",
"680.049 454 LINE",
"666.264 574 LINE",
"1137 574 LINE",
"1166 737 LINE",
"342.963 737 LINE",
"-7.049 0 LINE"
);
},
{
closed = 1;
nodes = (
"458.578 596 LINE",
"495 596 LINE",
"519.044 291 LINE",
"327.455 291 LINE"
);
},
{
closed = 1;
nodes = (
"576.294 795 LINE",
"754.294 952 LINE",
"557.249 952 LINE",
"446.249 795 LINE"
);
}
);
width = 1087;
}
);
leftKerningGroup = A;
note = AEacute;
rightKerningGroup = AE;
unicode = 01FC;
},
{
glyphname = B;
lastChange = "2019-09-24 19:39:11 +0000";
layers = (
{
hints = (
{
horizontal = 1;
place = "{0, 142}";
type = Stem;
},
{
horizontal = 1;
place = "{321, 130}";
type = Stem;
},
{
horizontal = 1;
place = "{595, 142}";
type = Stem;
},
{
place = "{70, 187}";
type = Stem;
},
{
place = "{494.2, 179}";
type = Stem;
},
{
place = "{515.2, 187}";
type = Stem;
}
);
layerId = "D215EC84-7FFD-4436-99F3-284D9B779A16";
paths = (
{
closed = 1;
nodes = (
"593.2 0 LINE",
"724 111 LINE",
"761 324 LINE",
"695 398 LINE",
"754 449 LINE",
"786 626 LINE",
"694 737 LINE",
"198 737 LINE",
"68 0 LINE"
);
},
{
closed = 1;
nodes = (
"314 321 LINE",
"537 321 LINE",
"566 286 LINE",
"546 177 LINE",
"505 142 LINE",
"282 142 LINE"
);
},
{
closed = 1;
nodes = (
"362 595 LINE",
"564 595 LINE",
"593 560 LINE",
"580 486 LINE",
"539 451 LINE",
"337 451 LINE"
);
}
);
width = 747;
}
);
leftKerningGroup = B;
note = B;
rightKerningGroup = B;
unicode = 0042;
},
{
glyphname = C;
lastChange = "2019-09-24 19:39:11 +0000";
layers = (
{
hints = (
{
horizontal = 1;
place = "{0, 142}";
type = Stem;
},
{
horizontal = 1;
place = "{595, 142}";
type = Stem;
},
{
place = "{50, 187}";
type = Stem;
},
{
place = "{477, 181}";
type = Stem;
},
{
place = "{470, 182}";
type = Stem;
}
);
layerId = "D215EC84-7FFD-4436-99F3-284D9B779A16";
paths = (
{
closed = 1;
nodes = (
"549 0 LINE",
"680 111 LINE",
"706 261 LINE",
"523 261 LINE",
"508 177 LINE",
"465 142 LINE",
"298 142 LINE",
"268 177 LINE",
"336 560 LINE",
"378 595 LINE",
"539 595 LINE",
"569 560 LINE",
"554 477 LINE",
"738 477 LINE",
"764 626 LINE",
"672 737 LINE",
"289 737 LINE",
"158 626 LINE",
"68 111 LINE",
"159 0 LINE"
);
}
);
width = 670;
}
);
leftKerningGroup = C;
note = C;
rightKerningGroup = C;
unicode = 0043;
},
{
glyphname = Cacute;
lastChange = "2019-09-24 19:39:11 +0000";
layers = (
{
hints = (
{
horizontal = 1;
place = "{0, 142}";
type = Stem;
},
{
horizontal = 1;
place = "{595, 142}";
type = Stem;
},
{
horizontal = 1;
place = "{795, 157}";
type = Stem;
},
{
place = "{50, 187}";
type = Stem;
},
{
place = "{477, 181}";
type = Stem;
},
{
place = "{470, 182}";
type = Stem;
},
{
horizontal = 1;
place = "{0, 142}";
type = Stem;
},
{
horizontal = 1;
place = "{595, 142}";
type = Stem;
},
{
place = "{50, 187}";
type = Stem;
},
{
place = "{477, 181}";
type = Stem;
},
{
place = "{470, 182}";
type = Stem;
},
{
horizontal = 1;
place = "{795, 157}";
type = Stem;
},
{
place = "{65.5, 287}";
type = Stem;
}
);
layerId = "D215EC84-7FFD-4436-99F3-284D9B779A16";
paths = (
{
closed = 1;
nodes = (
"549 0 LINE",
"680 111 LINE",
"706 261 LINE",
"523 261 LINE",
"508 177 LINE",
"465 142 LINE",
"298 142 LINE",
"268 177 LINE",
"336 560 LINE",
"378 595 LINE",
"539 595 LINE",
"569 560 LINE",
"554 477 LINE",
"738 477 LINE",
"764 626 LINE",
"672 737 LINE",
"289 737 LINE",
"158 626 LINE",
"68 111 LINE",
"159 0 LINE"
);
},
{
closed = 1;
nodes = (
"555.545 795 LINE",
"733.545 952 LINE",
"536.5 952 LINE",
"425.5 795 LINE"
);
}
);
width = 670;
}
);
leftKerningGroup = C;
note = Cacute;
rightKerningGroup = C;
unicode = 0106;
},
{
glyphname = Ccaron;
lastChange = "2019-10-06 15:59:15 +0000";
layers = (
{
hints = (
{
horizontal = 1;
place = "{0, 142}";
type = Stem;
},
{
horizontal = 1;
place = "{595, 142}";
type = Stem;
},
{
horizontal = 1;
place = "{795, 152}";
type = Stem;
},
{
place = "{50, 187}";
type = Stem;
},
{
place = "{477, 181}";
type = Stem;
},
{
place = "{470, 182}";
type = Stem;
},
{
horizontal = 1;
place = "{0, 142}";
type = Stem;
},
{
horizontal = 1;
place = "{595, 142}";
type = Stem;
},
{
place = "{50, 187}";
type = Stem;
},
{
place = "{477, 181}";
type = Stem;
},
{
place = "{470, 182}";
type = Stem;
},
{
horizontal = 1;
place = "{795, 152}";
type = Stem;
},
{
place = "{-213.674, 424}";
type = Stem;
},
{
horizontal = 1;
place = "{947, -152}";
type = Stem;
},
{
place = "{1224.326, -424}";
type = Stem;
}
);
layerId = "D215EC84-7FFD-4436-99F3-284D9B779A16";
paths = (
{
closed = 1;
nodes = (
"549 0 LINE",
"680 111 LINE",
"706 261 LINE",
"523 261 LINE",
"508 177 LINE",
"465 142 LINE",
"298 142 LINE",
"268 177 LINE",
"336 560 LINE",
"378 595 LINE",
"539 595 LINE",
"569 560 LINE",
"554 477 LINE",
"738 477 LINE",
"764 626 LINE",
"672 737 LINE",
"289 737 LINE",
"158 626 LINE",
"68 111 LINE",
"159 0 LINE"
);
},
{
closed = 1;
nodes = (
"577.326 795 LINE",
"717.326 947 LINE",
"570.326 947 LINE",
"486.326 875 LINE",
"429.326 947 LINE",
"293.326 947 LINE",
"379.326 795 LINE"
);
}
);
width = 670;
}
);
leftKerningGroup = C;
note = Ccaron;
rightKerningGroup = C;
unicode = 010C;
},
{
glyphname = Ccedilla;
lastChange = "2019-10-06 16:22:08 +0000";
layers = (
{
hints = (
{
horizontal = 1;
place = "{0, 142}";
type = Stem;
},
{
horizontal = 1;
place = "{595, 142}";
type = Stem;
},
{
place = "{50, 187}";
type = Stem;
},
{
place = "{477, 181}";
type = Stem;
},
{
place = "{470, 182}";
type = Stem;
},
{
horizontal = 1;
place = "{0, 142}";
type = Stem;
},
{
horizontal = 1;
place = "{595, 142}";
type = Stem;
},
{
place = "{50, 187}";
type = Stem;
},
{
place = "{477, 181}";
type = Stem;
},
{
place = "{470, 182}";
type = Stem;
},
{
horizontal = 1;
place = "{-125, 125}";
type = Stem;
},
{
place = "{-23.5, 171}";
type = Stem;
}
);
layerId = "D215EC84-7FFD-4436-99F3-284D9B779A16";
paths = (
{
closed = 1;
nodes = (
"363.5 -125 LINE",
"435.5 0 LINE",
"549 0 LINE",
"680 111 LINE",
"706 261 LINE",
"523 261 LINE",
"508 177 LINE",
"465 142 LINE",
"298 142 LINE",
"268 177 LINE",
"336 560 LINE",
"378 595 LINE",
"539 595 LINE",
"569 560 LINE",
"554 477 LINE",
"738 477 LINE",
"764 626 LINE",
"672 737 LINE",
"289 737 LINE",
"158 626 LINE",
"68 111 LINE",
"159 0 LINE",
"272.5 0 LINE",
"230.5 -125 LINE"
);
}
);
width = 670;
}
);
leftKerningGroup = C;
note = Ccedilla;
rightKerningGroup = C;
unicode = 00C7;
},
{
glyphname = Ccircumflex;
lastChange = "2019-09-24 19:39:11 +0000";
layers = (
{
hints = (
{
horizontal = 1;
place = "{0, 142}";
type = Stem;
},
{
horizontal = 1;
place = "{595, 142}";
type = Stem;
},
{
horizontal = 1;
place = "{795, 152}";
type = Stem;
},
{
place = "{50, 187}";
type = Stem;
},
{
place = "{477, 181}";
type = Stem;
},
{
place = "{470, 182}";
type = Stem;
},
{
horizontal = 1;
place = "{0, 142}";
type = Stem;
},
{
horizontal = 1;
place = "{595, 142}";
type = Stem;
},
{
place = "{50, 187}";
type = Stem;
},
{
place = "{477, 181}";
type = Stem;
},
{
place = "{470, 182}";
type = Stem;
},
{
horizontal = 1;
place = "{795, 152}";
type = Stem;
},
{
place = "{-239.882, 424}";
type = Stem;
}
);
layerId = "D215EC84-7FFD-4436-99F3-284D9B779A16";
paths = (
{
closed = 1;
nodes = (
"549 0 LINE",
"680 111 LINE",
"706 261 LINE",
"523 261 LINE",
"508 177 LINE",
"465 142 LINE",
"298 142 LINE",
"268 177 LINE",
"336 560 LINE",
"378 595 LINE",
"539 595 LINE",
"569 560 LINE",
"554 477 LINE",
"738 477 LINE",
"764 626 LINE",
"672 737 LINE",
"289 737 LINE",
"158 626 LINE",
"68 111 LINE",
"159 0 LINE"
);
},
{
closed = 1;
nodes = (
"414.118 795 LINE",
"498.118 867 LINE",
"555.118 795 LINE",
"691.118 795 LINE",
"605.118 947 LINE",
"407.118 947 LINE",
"267.118 795 LINE"
);
}
);
width = 670;
}
);
leftKerningGroup = C;
note = Ccircumflex;
rightKerningGroup = C;
unicode = 0108;
},
{
glyphname = Cdotaccent;
lastChange = "2019-09-24 19:39:11 +0000";
layers = (
{
hints = (
{
horizontal = 1;
place = "{0, 142}";
type = Stem;
},
{
horizontal = 1;
place = "{595, 142}";
type = Stem;
},
{
horizontal = 1;
place = "{795, 140}";
type = Stem;
},
{
place = "{50, 187}";
type = Stem;
},
{
place = "{257.5, 187}";
type = Stem;
},
{
place = "{477, 181}";
type = Stem;
},
{
place = "{470, 182}";
type = Stem;
},
{
horizontal = 1;
place = "{0, 142}";
type = Stem;
},
{
horizontal = 1;
place = "{595, 142}";
type = Stem;
},
{
place = "{50, 187}";
type = Stem;
},
{
place = "{477, 181}";
type = Stem;
},
{
place = "{470, 182}";
type = Stem;
},
{
horizontal = 1;
place = "{795, 140}";
type = Stem;
},
{
place = "{103.435, 187}";
type = Stem;
}
);
layerId = "D215EC84-7FFD-4436-99F3-284D9B779A16";
paths = (
{
closed = 1;
nodes = (
"549 0 LINE",
"680 111 LINE",
"706 261 LINE",
"523 261 LINE",
"508 177 LINE",
"465 142 LINE",
"298 142 LINE",
"268 177 LINE",
"336 560 LINE",
"378 595 LINE",
"539 595 LINE",
"569 560 LINE",
"554 477 LINE",
"738 477 LINE",
"764 626 LINE",
"672 737 LINE",
"289 737 LINE",
"158 626 LINE",
"68 111 LINE",
"159 0 LINE"
);
},
{
closed = 1;
nodes = (
"586.435 795 LINE",
"611.435 935 LINE",
"420.435 935 LINE",
"395.435 795 LINE"
);
}
);
width = 670;
}
);
leftKerningGroup = C;
note = Cdotaccent;
rightKerningGroup = C;
unicode = 010A;
},
{
glyphname = D;
lastChange = "2019-09-24 19:39:11 +0000";
layers = (
{
hints = (
{
horizontal = 1;
place = "{0, 142}";
type = Stem;
},
{
horizontal = 1;
place = "{595, 142}";
type = Stem;
},
{
place = "{70, 187}";
type = Stem;
},
{
place = "{523.2, 181}";
type = Stem;
}
);
layerId = "D215EC84-7FFD-4436-99F3-284D9B779A16";
paths = (
{
closed = 1;
nodes = (
"553.2 0 LINE",
"733 153 LINE",
"809 584 LINE",
"683 737 LINE",
"198 737 LINE",
"68 0 LINE"
);
},
{
closed = 1;
nodes = (
"362 595 LINE",
"575 595 LINE",
"619 542 LINE",
"558 195 LINE",
"495 142 LINE",
"282 142 LINE"
);
}
);
width = 744;
}
);
leftKerningGroup = B;
note = D;
rightKerningGroup = D;
unicode = 0044;
},
{
glyphname = uni01C4;
lastChange = "2019-10-06 15:59:15 +0000";
layers = (
{
hints = (
{
horizontal = 1;
place = "{0, 152}";
type = Stem;
},
{
horizontal = 1;
place = "{585, 152}";
type = Stem;
},
{
horizontal = 1;
place = "{795, 152}";
type = Stem;
},
{
place = "{70, 187}";
type = Stem;
},
{
place = "{523.2, 181}";
type = Stem;
},
{
horizontal = 1;
place = "{0, 142}";
type = Stem;
},
{
place = "{778, 251}";
type = Stem;
},
{
horizontal = 1;
place = "{0, 152}";
type = Stem;
},
{
horizontal = 1;
place = "{585, 152}";
type = Stem;
},
{
horizontal = 1;
place = "{795, 152}";
type = Stem;
},
{
place = "{778, 590}";
type = Stem;
},
{
place = "{778, 251}";
type = Stem;
},
{
place = "{1118, 250}";
type = Stem;
},
{
horizontal = 1;
place = "{0, 152}";
type = Stem;
},
{
horizontal = 1;
place = "{585, 152}";
type = Stem;
},
{
place = "{778, 251}";
type = Stem;
},
{
place = "{1118, 250}";
type = Stem;
},
{
horizontal = 1;
place = "{0, 152}";
type = Stem;
},
{
horizontal = 1;
place = "{585, 152}";
type = Stem;
},
{
horizontal = 1;
place = "{795, 152}";
type = Stem;
},
{
place = "{778, 590}";
type = Stem;
},
{
place = "{778, 251}";
type = Stem;
},
{
place = "{1118, 250}";
type = Stem;
},
{
horizontal = 1;
place = "{0, 152}";
type = Stem;
},
{
horizontal = 1;
place = "{585, 152}";
type = Stem;
},
{
place = "{778, 251}";
type = Stem;
},
{
place = "{1118, 250}";
type = Stem;
},
{
horizontal = 1;
place = "{0, 142}";
type = Stem;
},
{
horizontal = 1;
place = "{595, 142}";
type = Stem;
},
{
place = "{70, 187}";
type = Stem;
},
{
place = "{523.2, 181}";
type = Stem;
},
{
horizontal = 1;
place = "{795, 152}";
type = Stem;
},
{
place = "{520.826, 424}";
type = Stem;
},
{
horizontal = 1;
place = "{947, -152}";
type = Stem;
},
{
place = "{1958.826, -424}";
type = Stem;
}
);
layerId = "D215EC84-7FFD-4436-99F3-284D9B779A16";
paths = (
{
closed = 1;
nodes = (
"553.2 0 LINE",
"733 153 LINE",
"809 584 LINE",
"683 737 LINE",
"198 737 LINE",
"68 0 LINE"
);
},
{
closed = 1;
nodes = (
"362 595 LINE",
"575 595 LINE",
"619 542 LINE",
"558 195 LINE",
"495 142 LINE",
"282 142 LINE"
);
},
{
closed = 1;
nodes = (
"1370 0 LINE",
"1397 152 LINE",
"1066.838 152 LINE",
"1072.838 187 LINE",
"1469.911 568.289 LINE",
"1500 737 LINE",
"930 737 LINE",
"903 585 LINE",
"1211.785 585 LINE",
"1205.785 550 LINE",
"806.331 170.072 LINE",
"776 0 LINE"
);
},
{
closed = 1;
nodes = (
"1311.826 795 LINE",
"1451.826 947 LINE",
"1304.826 947 LINE",
"1220.826 875 LINE",
"1163.826 947 LINE",
"1027.826 947 LINE",
"1113.826 795 LINE"
);
}
);
width = 1413;
}
);
leftKerningGroup = B;
note = uni01C4;
rightKerningGroup = uni01C4;
unicode = 01C4;
},
{
glyphname = Eth;
lastChange = "2019-09-24 19:39:11 +0000";
layers = (
{
hints = (
{
horizontal = 1;
place = "{0, 142}";
type = Stem;
},
{
horizontal = 1;
place = "{316, 118}";
type = Stem;
},
{
horizontal = 1;
place = "{595, 142}";
type = Stem;
},
{
place = "{70, 187}";
type = Stem;
},
{
place = "{523.2, 181}";
type = Stem;
}
);
layerId = "D215EC84-7FFD-4436-99F3-284D9B779A16";
paths = (
{
closed = 1;
nodes = (
"553.2 0 LINE",
"733 153 LINE",
"809 584 LINE",
"683 737 LINE",
"198 737 LINE",
"145 434 LINE",
"70 434 LINE",
"49 316 LINE",
"124 316 LINE",
"68 0 LINE"
);
},
{
closed = 1;
nodes = (
"313 316 LINE",
"417 316 LINE",
"438 434 LINE",
"334 434 LINE",
"362 595 LINE",
"575 595 LINE",
"619 542 LINE",
"558 195 LINE",
"495 142 LINE",
"282 142 LINE"
);
}
);
width = 744;
}
);
leftKerningGroup = B;
note = Eth;
rightKerningGroup = D;
unicode = 00D0;
},
{
glyphname = Dcaron;
lastChange = "2019-10-06 15:59:15 +0000";
layers = (
{
hints = (
{
horizontal = 1;
place = "{0, 142}";
type = Stem;
},
{
horizontal = 1;
place = "{595, 142}";
type = Stem;
},
{
horizontal = 1;
place = "{795, 152}";
type = Stem;
},
{
place = "{70, 187}";
type = Stem;
},
{
place = "{523.2, 181}";
type = Stem;
},
{
horizontal = 1;
place = "{0, 142}";
type = Stem;
},
{
horizontal = 1;
place = "{595, 142}";
type = Stem;
},
{
place = "{70, 187}";
type = Stem;
},
{
place = "{523.2, 181}";
type = Stem;
},
{
horizontal = 1;
place = "{795, 152}";
type = Stem;
},
{
place = "{-211.035, 424}";
type = Stem;
},
{
horizontal = 1;
place = "{947, -152}";
type = Stem;
},
{
place = "{1226.965, -424}";
type = Stem;
}
);
layerId = "D215EC84-7FFD-4436-99F3-284D9B779A16";
paths = (
{
closed = 1;
nodes = (
"553.2 0 LINE",
"733 153 LINE",
"809 584 LINE",
"683 737 LINE",
"198 737 LINE",
"68 0 LINE"
);
},
{
closed = 1;
nodes = (
"362 595 LINE",
"575 595 LINE",
"619 542 LINE",
"558 195 LINE",
"495 142 LINE",
"282 142 LINE"
);
},
{
closed = 1;
nodes = (
"579.965 795 LINE",
"719.965 947 LINE",
"572.965 947 LINE",
"488.965 875 LINE",
"431.965 947 LINE",
"295.965 947 LINE",
"381.965 795 LINE"
);
}
);
width = 744;
}
);
leftKerningGroup = B;
note = Dcaron;
rightKerningGroup = D;
unicode = 010E;
},
{
glyphname = Dcroat;
lastChange = "2019-09-24 19:39:11 +0000";
layers = (
{
hints = (
{
horizontal = 1;
place = "{0, 142}";
type = Stem;
},
{
horizontal = 1;
place = "{316, 118}";
type = Stem;
},
{
horizontal = 1;
place = "{595, 142}";
type = Stem;
},
{
place = "{70, 187}";
type = Stem;
},
{
place = "{523.2, 181}";
type = Stem;
},
{
horizontal = 1;
place = "{0, 142}";
type = Stem;
},
{
horizontal = 1;
place = "{316, 118}";
type = Stem;
},
{
horizontal = 1;
place = "{595, 142}";
type = Stem;
},
{
place = "{70, 187}";
type = Stem;
},
{
place = "{523.2, 181}";
type = Stem;
}
);
layerId = "D215EC84-7FFD-4436-99F3-284D9B779A16";
paths = (
{
closed = 1;
nodes = (
"553.2 0 LINE",
"733 153 LINE",
"809 584 LINE",
"683 737 LINE",
"198 737 LINE",
"145 434 LINE",
"70 434 LINE",
"49 316 LINE",
"124 316 LINE",
"68 0 LINE"
);
},
{
closed = 1;
nodes = (
"313 316 LINE",
"417 316 LINE",
"438 434 LINE",
"334 434 LINE",
"362 595 LINE",
"575 595 LINE",
"619 542 LINE",
"558 195 LINE",
"495 142 LINE",
"282 142 LINE"
);
}
);
width = 744;
}
);
leftKerningGroup = B;
note = Dcroat;
rightKerningGroup = D;
unicode = 0110;
},
{
glyphname = uni01C5;
lastChange = "2019-10-06 16:25:12 +0000";
layers = (
{
hints = (
{
horizontal = 1;
place = "{0, 128}";
type = Stem;
},
{
horizontal = 1;
place = "{395, 127}";
type = Stem;
},
{
horizontal = 1;
place = "{595, 142}";
type = Stem;
},
{
place = "{70, 187}";
type = Stem;
},
{
place = "{523.2, 181}";
type = Stem;
},
{
horizontal = 1;
place = "{0, 142}";
type = Stem;
},
{
horizontal = 1;
place = "{580, 152}";
type = Stem;
},
{
horizontal = 1;
place = "{0, 142}";
type = Stem;
},
{
horizontal = 1;
place = "{595, 142}";
type = Stem;
},
{
place = "{70, 187}";
type = Stem;
},
{
place = "{523.2, 181}";
type = Stem;
},
{
horizontal = 1;
place = "{0, 128}";
type = Stem;
},
{
horizontal = 1;
place = "{395, 127}";
type = Stem;
},
{
horizontal = 1;
place = "{580, 152}";
type = Stem;
},
{
place = "{798, 506}";
type = Stem;
},
{
horizontal = 1;
place = "{0, 128}";
type = Stem;
},
{
horizontal = 1;
place = "{395, 127}";
type = Stem;
},
{
place = "{798, 506}";
type = Stem;
},
{
horizontal = 1;
place = "{580, 152}";
type = Stem;
},
{
place = "{456.326, 424}";
type = Stem;
},
{
horizontal = 1;
place = "{732, -152}";
type = Stem;
},
{
place = "{1894.326, -424}";
type = Stem;
}
);
layerId = "D215EC84-7FFD-4436-99F3-284D9B779A16";
paths = (
{
closed = 1;
nodes = (
"553.2 0 LINE",
"733 153 LINE",
"809 584 LINE",
"683 737 LINE",
"198 737 LINE",
"68 0 LINE"
);
},
{
closed = 1;
nodes = (
"362 595 LINE",
"575 595 LINE",
"619 542 LINE",
"558 195 LINE",
"495 142 LINE",
"282 142 LINE"
);
},
{
closed = 1;
nodes = (
"1306 0 LINE",
"1329 128 LINE",
"1085.561 128 LINE",
"1365.755 382.038 LINE",
"1390 522 LINE",
"911 522 LINE",
"889 395 LINE",
"1103.218 395 LINE",
"820.024 135.738 LINE",
"796 0 LINE"
);
},
{
closed = 1;
nodes = (
"1247.326 580 LINE",
"1387.326 732 LINE",
"1240.326 732 LINE",
"1156.326 660 LINE",
"1099.326 732 LINE",
"963.326 732 LINE",
"1049.326 580 LINE"
);
}
);
width = 1354;
}
);
leftKerningGroup = B;
note = uni01C5;
unicode = 01C5;
},
{
glyphname = E;
lastChange = "2019-09-24 19:39:11 +0000";
layers = (
{
hints = (
{
horizontal = 1;
place = "{0, 152}";
type = Stem;
},
{
horizontal = 1;
place = "{308, 141}";
type = Stem;
},
{
horizontal = 1;
place = "{585, 152}";
type = Stem;
},
{
place = "{70, 187}";
type = Stem;
}
);
layerId = "D215EC84-7FFD-4436-99F3-284D9B779A16";
paths = (
{
closed = 1;
nodes = (
"632.2 0 LINE",
"659 152 LINE",
"284 152 LINE",
"311 308 LINE",
"650 308 LINE",
"674 449 LINE",
"336 449 LINE",
"360 585 LINE",
"735 585 LINE",
"762 737 LINE",
"198 737 LINE",
"68 0 LINE"
);
}
);
width = 680;
}
);
leftKerningGroup = B;
note = E;
rightKerningGroup = AE;
unicode = 0045;
},
{
glyphname = Eacute;
lastChange = "2019-09-24 19:39:11 +0000";
layers = (
{
hints = (
{
horizontal = 1;
place = "{0, 152}";
type = Stem;
},
{
horizontal = 1;
place = "{308, 141}";
type = Stem;
},
{
horizontal = 1;
place = "{585, 152}";
type = Stem;
},
{
horizontal = 1;
place = "{795, 157}";
type = Stem;
},
{
place = "{70, 187}";
type = Stem;
},
{
horizontal = 1;
place = "{0, 152}";
type = Stem;
},
{
horizontal = 1;
place = "{308, 141}";
type = Stem;
},
{
horizontal = 1;
place = "{585, 152}";
type = Stem;
},
{
place = "{70, 187}";
type = Stem;
},
{
horizontal = 1;
place = "{795, 157}";
type = Stem;
},
{
place = "{65, 287}";
type = Stem;
}
);
layerId = "D215EC84-7FFD-4436-99F3-284D9B779A16";
paths = (
{
closed = 1;
nodes = (
"632.2 0 LINE",
"659 152 LINE",
"284 152 LINE",
"311 308 LINE",
"650 308 LINE",
"674 449 LINE",
"336 449 LINE",
"360 585 LINE",
"735 585 LINE",
"762 737 LINE",
"198 737 LINE",
"68 0 LINE"
);
},
{
closed = 1;
nodes = (
"555.045 795 LINE",
"733.045 952 LINE",
"536 952 LINE",
"425 795 LINE"
);
}
);
width = 680;
}
);
leftKerningGroup = B;
note = Eacute;
rightKerningGroup = AE;
unicode = 00C9;
},
{
glyphname = Ebreve;
lastChange = "2019-09-24 19:39:11 +0000";
layers = (
{
hints = (
{
horizontal = 1;
place = "{0, 152}";
type = Stem;
},
{
horizontal = 1;
place = "{308, 141}";
type = Stem;
},
{
horizontal = 1;
place = "{585, 152}";
type = Stem;
},
{
horizontal = 1;
place = "{795, 94}";
type = Stem;
},
{
place = "{70, 187}";
type = Stem;
},
{
place = "{412.7, 132}";
type = Stem;
},
{
horizontal = 1;
place = "{873, 74}";
type = Stem;
},
{
place = "{157.7, 132}";
type = Stem;
},
{
horizontal = 1;
place = "{0, 152}";
type = Stem;
},
{
horizontal = 1;
place = "{308, 141}";
type = Stem;
},
{
horizontal = 1;
place = "{585, 152}";
type = Stem;
},
{
place = "{70, 187}";
type = Stem;
},
{
horizontal = 1;
place = "{795, 94}";
type = Stem;
},
{
place = "{-162.174, 132}";
type = Stem;
},
{
place = "{92.826, 132}";
type = Stem;
},
{
horizontal = 1;
place = "{873, 74}";
type = Stem;
}
);
layerId = "D215EC84-7FFD-4436-99F3-284D9B779A16";
paths = (
{
closed = 1;
nodes = (
"632.2 0 LINE",
"659 152 LINE",
"284 152 LINE",
"311 308 LINE",
"650 308 LINE",
"674 449 LINE",
"336 449 LINE",
"360 585 LINE",
"735 585 LINE",
"762 737 LINE",
"198 737 LINE",
"68 0 LINE"
);
},
{
closed = 1;
nodes = (
"598.826 795 LINE",
"698.826 873 LINE",
"711.826 947 LINE",
"575.826 947 LINE",
"567.826 902 LINE",
"551.826 889 LINE",
"460.826 889 LINE",
"448.826 902 LINE",
"456.826 947 LINE",
"320.826 947 LINE",
"307.826 873 LINE",
"378.826 795 LINE"
);
}
);
width = 680;
}
);
leftKerningGroup = B;
note = Ebreve;
rightKerningGroup = AE;
unicode = 0114;
},
{
glyphname = Ecaron;
lastChange = "2019-10-06 15:59:15 +0000";
layers = (
{
hints = (
{
horizontal = 1;
place = "{0, 152}";
type = Stem;
},
{
horizontal = 1;
place = "{308, 141}";
type = Stem;
},
{
horizontal = 1;
place = "{585, 152}";
type = Stem;
},
{
horizontal = 1;
place = "{795, 152}";
type = Stem;
},
{
place = "{70, 187}";
type = Stem;
},
{
horizontal = 1;
place = "{0, 152}";
type = Stem;
},
{
horizontal = 1;
place = "{308, 141}";
type = Stem;
},
{
horizontal = 1;
place = "{585, 152}";
type = Stem;
},
{
place = "{70, 187}";
type = Stem;
},
{
horizontal = 1;
place = "{795, 152}";
type = Stem;
},
{
place = "{-214.174, 424}";
type = Stem;
},
{
horizontal = 1;
place = "{947, -152}";
type = Stem;
},
{
place = "{1223.826, -424}";
type = Stem;
}
);
layerId = "D215EC84-7FFD-4436-99F3-284D9B779A16";
paths = (
{
closed = 1;
nodes = (
"632.2 0 LINE",
"659 152 LINE",
"284 152 LINE",
"311 308 LINE",
"650 308 LINE",
"674 449 LINE",
"336 449 LINE",
"360 585 LINE",
"735 585 LINE",
"762 737 LINE",
"198 737 LINE",
"68 0 LINE"
);
},
{
closed = 1;
nodes = (
"576.826 795 LINE",
"716.826 947 LINE",
"569.826 947 LINE",
"485.826 875 LINE",
"428.826 947 LINE",
"292.826 947 LINE",
"378.826 795 LINE"
);
}
);
width = 680;
}
);
leftKerningGroup = B;
note = Ecaron;
rightKerningGroup = AE;
unicode = 011A;
},
{
glyphname = Ecircumflex;
lastChange = "2019-09-24 19:39:11 +0000";
layers = (
{
hints = (
{
horizontal = 1;
place = "{0, 152}";
type = Stem;
},
{
horizontal = 1;
place = "{308, 141}";
type = Stem;
},
{
horizontal = 1;
place = "{585, 152}";
type = Stem;
},
{
horizontal = 1;
place = "{795, 152}";
type = Stem;
},
{
place = "{70, 187}";
type = Stem;
},
{
horizontal = 1;
place = "{0, 152}";
type = Stem;
},
{
horizontal = 1;
place = "{308, 141}";
type = Stem;
},
{
horizontal = 1;
place = "{585, 152}";
type = Stem;
},
{
place = "{70, 187}";
type = Stem;
},
{
horizontal = 1;
place = "{795, 152}";
type = Stem;
},
{
place = "{-240.382, 424}";
type = Stem;
}
);
layerId = "D215EC84-7FFD-4436-99F3-284D9B779A16";
paths = (
{
closed = 1;
nodes = (
"632.2 0 LINE",
"659 152 LINE",
"284 152 LINE",
"311 308 LINE",
"650 308 LINE",
"674 449 LINE",
"336 449 LINE",
"360 585 LINE",
"735 585 LINE",
"762 737 LINE",
"198 737 LINE",
"68 0 LINE"
);
},
{
closed = 1;
nodes = (
"413.618 795 LINE",
"497.618 867 LINE",
"554.618 795 LINE",
"690.618 795 LINE",
"604.618 947 LINE",
"406.618 947 LINE",
"266.618 795 LINE"
);
}
);
width = 680;
}
);
leftKerningGroup = B;
note = Ecircumflex;
rightKerningGroup = AE;
unicode = 00CA;
},
{
glyphname = uni1EBE;
lastChange = "2019-09-24 19:39:11 +0000";
layers = (
{
hints = (
{
horizontal = 1;
place = "{0, 152}";
type = Stem;
},
{
horizontal = 1;
place = "{308, 141}";
type = Stem;
},
{
horizontal = 1;
place = "{585, 152}";
type = Stem;
},
{
horizontal = 1;
place = "{876.73, 157}";
type = Stem;
},
{
place = "{70, 187}";
type = Stem;
},
{
horizontal = 1;
place = "{795, 152}";
type = Stem;
},
{
horizontal = 1;
place = "{0, 152}";
type = Stem;
},
{
horizontal = 1;
place = "{308, 141}";
type = Stem;
},
{
horizontal = 1;
place = "{585, 152}";
type = Stem;
},
{
place = "{70, 187}";
type = Stem;
},
{
horizontal = 1;
place = "{876.73, 157}";
type = Stem;
},
{
place = "{-503.382, 696}";
type = Stem;
},
{
horizontal = 1;
place = "{795, 152}";
type = Stem;
},
{
horizontal = 1;
place = "{795, 152}";
type = Stem;
},
{
place = "{-240.382, 424}";
type = Stem;
},
{
horizontal = 1;
place = "{877, 157}";
type = Stem;
},
{
place = "{332.541, 287}";
type = Stem;
}
);
layerId = "D215EC84-7FFD-4436-99F3-284D9B779A16";
paths = (
{
closed = 1;
nodes = (
"632.2 0 LINE",
"659 152 LINE",
"284 152 LINE",
"311 308 LINE",
"650 308 LINE",
"674 449 LINE",
"336 449 LINE",
"360 585 LINE",
"735 585 LINE",
"762 737 LINE",
"198 737 LINE",
"68 0 LINE"
);
},
{
closed = 1;
nodes = (
"413.618 795 LINE",
"497.618 867 LINE",
"554.618 795 LINE",
"690.618 795 LINE",
"604.618 947 LINE",
"406.618 947 LINE",
"266.618 795 LINE"
);
},
{
closed = 1;
nodes = (
"822.586 877 LINE",
"1000.586 1034 LINE",
"803.541 1034 LINE",
"692.541 877 LINE"
);
}
);
width = 680;
}
);
leftKerningGroup = B;
note = uni1EBE;
rightKerningGroup = AE;
unicode = 1EBE;
},
{
glyphname = uni1EC6;
lastChange = "2019-09-24 19:39:11 +0000";
layers = (
{
hints = (
{
horizontal = 1;
place = "{-197, 140}";
type = Stem;
},
{
horizontal = 1;
place = "{0, 152}";
type = Stem;
},
{
horizontal = 1;
place = "{308, 141}";
type = Stem;
},
{
horizontal = 1;
place = "{585, 152}";
type = Stem;
},
{
horizontal = 1;
place = "{795, 152}";
type = Stem;
},
{
place = "{70, 187}";
type = Stem;
},
{
place = "{257.7, 187}";
type = Stem;
},
{
horizontal = 1;
place = "{0, 152}";
type = Stem;
},
{
horizontal = 1;
place = "{308, 141}";
type = Stem;
},
{
horizontal = 1;
place = "{585, 152}";
type = Stem;
},
{
place = "{70, 187}";
type = Stem;
},
{
horizontal = 1;
place = "{795, 152}";
type = Stem;
},
{
place = "{-240.382, 424}";
type = Stem;
},
{
horizontal = 1;
place = "{-197, 140}";
type = Stem;
},
{
place = "{-57.702, 187}";
type = Stem;
},
{
horizontal = 1;
place = "{-197, 140}";
type = Stem;
},
{
place = "{-72.702, 187}";
type = Stem;
}
);
layerId = "D215EC84-7FFD-4436-99F3-284D9B779A16";
paths = (
{
closed = 1;
nodes = (
"632.2 0 LINE",
"659 152 LINE",
"284 152 LINE",
"311 308 LINE",
"650 308 LINE",
"674 449 LINE",
"336 449 LINE",
"360 585 LINE",
"735 585 LINE",
"762 737 LINE",
"198 737 LINE",
"68 0 LINE"
);
},
{
closed = 1;
nodes = (
"410.298 -197 LINE",
"435.298 -57 LINE",
"244.298 -57 LINE",
"219.298 -197 LINE"
);
},
{
closed = 1;
nodes = (
"413.618 795 LINE",
"497.618 867 LINE",
"554.618 795 LINE",
"690.618 795 LINE",
"604.618 947 LINE",
"406.618 947 LINE",
"266.618 795 LINE"
);
}
);
width = 680;
}
);
leftKerningGroup = B;
note = uni1EC6;
rightKerningGroup = AE;
unicode = 1EC6;
},
{
glyphname = uni1EC0;
lastChange = "2019-09-24 19:39:11 +0000";
layers = (
{
hints = (
{
horizontal = 1;
place = "{0, 152}";
type = Stem;
},
{
horizontal = 1;
place = "{308, 141}";
type = Stem;
},
{
horizontal = 1;
place = "{585, 152}";
type = Stem;
},
{
horizontal = 1;
place = "{876.77, 157}";
type = Stem;
},
{
place = "{70, 187}";
type = Stem;
},
{
horizontal = 1;
place = "{795, 152}";
type = Stem;
},
{
horizontal = 1;
place = "{0, 152}";
type = Stem;
},
{
horizontal = 1;
place = "{308, 141}";
type = Stem;
},
{
horizontal = 1;
place = "{585, 152}";
type = Stem;
},
{
place = "{70, 187}";
type = Stem;
},
{
horizontal = 1;
place = "{876.77, 157}";
type = Stem;
},
{
place = "{-693.32, 696}";
type = Stem;
},
{
horizontal = 1;
place = "{795, 152}";
type = Stem;
},
{
horizontal = 1;
place = "{795, 152}";
type = Stem;
},
{
place = "{-240.382, 424}";
type = Stem;
},
{
horizontal = 1;
place = "{877, 157}";
type = Stem;
},
{
place = "{-329.334, 287}";
type = Stem;
}
);
layerId = "D215EC84-7FFD-4436-99F3-284D9B779A16";
paths = (
{
closed = 1;
nodes = (
"632.2 0 LINE",
"659 152 LINE",
"284 152 LINE",
"311 308 LINE",
"650 308 LINE",
"674 449 LINE",
"336 449 LINE",
"360 585 LINE",
"735 585 LINE",
"762 737 LINE",
"198 737 LINE",
"68 0 LINE"
);
},
{
closed = 1;
nodes = (
"295.666 877 LINE",
"218.666 1034 LINE",
"47.666 1034 LINE",
"176.666 877 LINE"
);
},
{
closed = 1;
nodes = (
"413.618 795 LINE",
"497.618 867 LINE",
"554.618 795 LINE",
"690.618 795 LINE",
"604.618 947 LINE",
"406.618 947 LINE",
"266.618 795 LINE"
);
}
);
width = 680;
}
);
leftKerningGroup = B;
note = uni1EC0;
rightKerningGroup = AE;
unicode = 1EC0;
},
{
glyphname = uni1EC2;
lastChange = "2019-09-24 19:39:11 +0000";
layers = (
{
hints = (
{
horizontal = 1;
place = "{0, 152}";
type = Stem;
},
{
horizontal = 1;
place = "{308, 141}";
type = Stem;
},
{
horizontal = 1;
place = "{585, 152}";
type = Stem;
},
{
horizontal = 1;
place = "{795, 152}";
type = Stem;
},
{
horizontal = 1;
place = "{1002.68, 100}";
type = Stem;
},
{
place = "{70, 187}";
type = Stem;
},
{
place = "{477.2, 113}";
type = Stem;
},
{
place = "{547.2, 127}";
type = Stem;
},
{
place = "{622.2, 125}";
type = Stem;
},
{
horizontal = 1;
place = "{0, 152}";
type = Stem;
},
{
horizontal = 1;
place = "{308, 141}";
type = Stem;
},
{
horizontal = 1;
place = "{585, 152}";
type = Stem;
},
{
place = "{70, 187}";
type = Stem;
},
{
horizontal = 1;
place = "{795, 152}";
type = Stem;
},
{
horizontal = 1;
place = "{1002.68, 100}";
type = Stem;
},
{
place = "{-16.382, 127}";
type = Stem;
},
{
place = "{-86.382, 113}";
type = Stem;
},
{
place = "{58.618, 125}";
type = Stem;
},
{
horizontal = 1;
place = "{795, 152}";
type = Stem;
},
{
place = "{-240.382, 424}";
type = Stem;
},
{
horizontal = 1;
place = "{877, 80}";
type = Stem;
},
{
horizontal = 1;
place = "{1003, 100}";
type = Stem;
},
{
place = "{359.404, 127}";
type = Stem;
},
{
place = "{289.404, 113}";
type = Stem;
},
{
place = "{434.404, 125}";
type = Stem;
}
);
layerId = "D215EC84-7FFD-4436-99F3-284D9B779A16";
paths = (
{
closed = 1;
nodes = (
"632.2 0 LINE",
"659 152 LINE",
"284 152 LINE",
"311 308 LINE",
"650 308 LINE",
"674 449 LINE",
"336 449 LINE",
"360 585 LINE",
"735 585 LINE",
"762 737 LINE",
"198 737 LINE",
"68 0 LINE"
);
},
{
closed = 1;
nodes = (
"413.618 795 LINE",
"497.618 867 LINE",
"554.618 795 LINE",
"690.618 795 LINE",
"604.618 947 LINE",
"406.618 947 LINE",
"266.618 795 LINE"
);
},
{
closed = 1;
nodes = (
"821.404 877 LINE",
"828.404 918 LINE",
"909.404 960 LINE",
"927.404 1063 LINE",
"891.404 1103 LINE",
"703.404 1103 LINE",
"653.404 1063 LINE",
"642.404 1003 LINE",
"757.404 1003 LINE",
"763.404 1032 LINE",
"795.404 1032 LINE",
"789.404 1003 LINE",
"704.404 957 LINE",
"690.404 877 LINE"
);
}
);
width = 680;
}
);
leftKerningGroup = B;
note = uni1EC2;
rightKerningGroup = AE;
unicode = 1EC2;
},
{
glyphname = uni1EC4;
lastChange = "2019-09-24 19:39:11 +0000";
layers = (
{
hints = (
{
horizontal = 1;
place = "{0, 152}";
type = Stem;
},
{
horizontal = 1;
place = "{308, 141}";
type = Stem;
},
{
horizontal = 1;
place = "{585, 152}";
type = Stem;
},
{
horizontal = 1;
place = "{795, 152}";
type = Stem;
},
{
horizontal = 1;
place = "{986, 150}";
type = Stem;
},
{
place = "{134.2, 125}";
type = Stem;
},
{
horizontal = 1;
place = "{979, 151}";
type = Stem;
},
{
place = "{70, 187}";
type = Stem;
},
{
place = "{461.2, 125.5}";
type = Stem;
},
{
horizontal = 1;
place = "{0, 152}";
type = Stem;
},
{
horizontal = 1;
place = "{308, 141}";
type = Stem;
},
{
horizontal = 1;
place = "{585, 152}";
type = Stem;
},
{
place = "{70, 187}";
type = Stem;
},
{
horizontal = 1;
place = "{795, 152}";
type = Stem;
},
{
horizontal = 1;
place = "{986, 150}";
type = Stem;
},
{
place = "{-269.382, 125}";
type = Stem;
},
{
place = "{57.618, 125.5}";
type = Stem;
},
{
horizontal = 1;
place = "{979, 151}";
type = Stem;
},
{
horizontal = 1;
place = "{795, 152}";
type = Stem;
},
{
place = "{-240.382, 424}";
type = Stem;
},
{
horizontal = 1;
place = "{986, 150}";
type = Stem;
},
{
place = "{-250.129, 125}";
type = Stem;
},
{
place = "{76.871, 125.5}";
type = Stem;
},
{
horizontal = 1;
place = "{979, 151}";
type = Stem;
}
);
layerId = "D215EC84-7FFD-4436-99F3-284D9B779A16";
paths = (
{
closed = 1;
nodes = (
"632.2 0 LINE",
"659 152 LINE",
"284 152 LINE",
"311 308 LINE",
"650 308 LINE",
"674 449 LINE",
"336 449 LINE",
"360 585 LINE",
"735 585 LINE",
"762 737 LINE",
"198 737 LINE",
"68 0 LINE"
);
},
{
closed = 1;
nodes = (
"413.618 795 LINE",
"497.618 867 LINE",
"554.618 795 LINE",
"690.618 795 LINE",
"604.618 947 LINE",
"406.618 947 LINE",
"266.618 795 LINE"
);
},
{
closed = 1;
nodes = (
"681.871 979 LINE",
"764.871 1053 LINE",
"777.871 1130 LINE",
"649.871 1130 LINE",
"644.871 1103 LINE",
"625.871 1077 LINE",
"605.871 1077 LINE",
"569.871 1136 LINE",
"389.871 1136 LINE",
"308.871 1065 LINE",
"293.871 986 LINE",
"421.871 986 LINE",
"426.871 1011 LINE",
"445.871 1042 LINE",
"465.871 1042 LINE",
"501.871 979 LINE"
);
}
);
width = 680;
}
);
leftKerningGroup = B;
note = uni1EC4;
rightKerningGroup = AE;
unicode = 1EC4;
},
{
glyphname = uni0204;
lastChange = "2019-09-24 19:39:11 +0000";
layers = (
{
hints = (
{
horizontal = 1;
place = "{0, 152}";
type = Stem;
},
{
horizontal = 1;
place = "{308, 141}";
type = Stem;
},
{
horizontal = 1;
place = "{585, 152}";
type = Stem;
},
{
horizontal = 1;
place = "{795, 157}";
type = Stem;
},
{
place = "{70, 187}";
type = Stem;
},
{
horizontal = 1;
place = "{0, 152}";
type = Stem;
},
{
horizontal = 1;
place = "{308, 141}";
type = Stem;
},
{
horizontal = 1;
place = "{585, 152}";
type = Stem;
},
{
place = "{70, 187}";
type = Stem;
},
{
horizontal = 1;
place = "{795, 157}";
type = Stem;
},
{
place = "{-402.52, 497}";
type = Stem;
},
{
horizontal = 1;
place = "{795, 157}";
type = Stem;
},
{
place = "{-4.12, 287}";
type = Stem;
},
{
horizontal = 1;
place = "{795, 157}";
type = Stem;
},
{
place = "{-199.524, 287}";
type = Stem;
}
);
layerId = "D215EC84-7FFD-4436-99F3-284D9B779A16";
paths = (
{
closed = 1;
nodes = (
"632.2 0 LINE",
"659 152 LINE",
"284 152 LINE",
"311 308 LINE",
"650 308 LINE",
"674 449 LINE",
"336 449 LINE",
"360 585 LINE",
"735 585 LINE",
"762 737 LINE",
"198 737 LINE",
"68 0 LINE"
);
},
{
closed = 1;
nodes = (
"425.476 795 LINE",
"348.476 952 LINE",
"177.476 952 LINE",
"306.476 795 LINE"
);
},
{
closed = 1;
nodes = (
"620.88 795 LINE",
"543.88 952 LINE",
"372.88 952 LINE",
"501.88 795 LINE"
);
}
);
width = 680;
}
);
leftKerningGroup = B;
note = uni0204;
rightKerningGroup = AE;
unicode = 0204;
},
{
glyphname = Edieresis;
lastChange = "2019-09-24 19:39:11 +0000";
layers = (
{
hints = (
{
horizontal = 1;
place = "{0, 152}";
type = Stem;
},
{
horizontal = 1;
place = "{308, 141}";
type = Stem;
},
{
horizontal = 1;
place = "{585, 152}";
type = Stem;
},
{
horizontal = 1;
place = "{795, 140}";
type = Stem;
},
{
place = "{121.2, 175}";
type = Stem;
},
{
place = "{406.2, 175}";
type = Stem;
},
{
place = "{70, 187}";
type = Stem;
},
{
horizontal = 1;
place = "{0, 152}";
type = Stem;
},
{
horizontal = 1;
place = "{308, 141}";
type = Stem;
},
{
horizontal = 1;
place = "{585, 152}";
type = Stem;
},
{
place = "{70, 187}";
type = Stem;
},
{
horizontal = 1;
place = "{795, 140}";
type = Stem;
},
{
place = "{-454.989, 175}";
type = Stem;
},
{
place = "{-169.989, 175}";
type = Stem;
},
{
horizontal = 1;
place = "{795, 140}";
type = Stem;
},
{
place = "{-39.989, 187}";
type = Stem;
},
{
horizontal = 1;
place = "{795, 140}";
type = Stem;
},
{
place = "{233.161, 187}";
type = Stem;
}
);
layerId = "D215EC84-7FFD-4436-99F3-284D9B779A16";
paths = (
{
closed = 1;
nodes = (
"632.2 0 LINE",
"659 152 LINE",
"284 152 LINE",
"311 308 LINE",
"650 308 LINE",
"674 449 LINE",
"336 449 LINE",
"360 585 LINE",
"735 585 LINE",
"762 737 LINE",
"198 737 LINE",
"68 0 LINE"
);
},
{
closed = 1;
nodes = (
"443.011 795 LINE",
"468.011 935 LINE",
"277.011 935 LINE",
"252.011 795 LINE"
);
},
{
closed = 1;
nodes = (
"716.161 795 LINE",
"741.161 935 LINE",
"550.161 935 LINE",
"525.161 795 LINE"
);
}
);
width = 680;
}
);
leftKerningGroup = B;
note = Edieresis;
rightKerningGroup = AE;
unicode = 00CB;
},
{
glyphname = Edotaccent;
lastChange = "2019-09-24 19:39:11 +0000";
layers = (
{
hints = (
{
horizontal = 1;
place = "{0, 152}";
type = Stem;
},
{
horizontal = 1;
place = "{308, 141}";
type = Stem;
},
{
horizontal = 1;
place = "{585, 152}";
type = Stem;
},
{
horizontal = 1;
place = "{795, 140}";
type = Stem;
},
{
place = "{257.7, 187}";
type = Stem;
},
{
place = "{70, 187}";
type = Stem;
},
{
horizontal = 1;
place = "{0, 152}";
type = Stem;
},
{
horizontal = 1;
place = "{308, 141}";
type = Stem;
},
{
horizontal = 1;
place = "{585, 152}";
type = Stem;
},
{
place = "{70, 187}";
type = Stem;
},
{
horizontal = 1;
place = "{795, 140}";
type = Stem;
},
{
place = "{102.935, 187}";
type = Stem;
}
);
layerId = "D215EC84-7FFD-4436-99F3-284D9B779A16";
paths = (
{
closed = 1;
nodes = (
"632.2 0 LINE",
"659 152 LINE",
"284 152 LINE",
"311 308 LINE",
"650 308 LINE",
"674 449 LINE",
"336 449 LINE",
"360 585 LINE",
"735 585 LINE",
"762 737 LINE",
"198 737 LINE",
"68 0 LINE"
);
},
{
closed = 1;
nodes = (
"585.935 795 LINE",
"610.935 935 LINE",
"419.935 935 LINE",
"394.935 795 LINE"
);
}
);
width = 680;
}
);
leftKerningGroup = B;
note = Edotaccent;
rightKerningGroup = AE;
unicode = 0116;
},
{
glyphname = uni1EB8;
lastChange = "2019-09-24 19:39:11 +0000";
layers = (
{
hints = (
{
horizontal = 1;
place = "{-197, 140}";
type = Stem;
},
{
horizontal = 1;
place = "{0, 152}";
type = Stem;
},
{
horizontal = 1;
place = "{308, 141}";
type = Stem;
},
{
horizontal = 1;
place = "{585, 152}";
type = Stem;
},
{
place = "{70, 187}";
type = Stem;
},
{
place = "{257.7, 187}";
type = Stem;
},
{
horizontal = 1;
place = "{0, 152}";
type = Stem;
},
{
horizontal = 1;
place = "{308, 141}";
type = Stem;
},
{
horizontal = 1;
place = "{585, 152}";
type = Stem;
},
{
place = "{70, 187}";
type = Stem;
},
{
horizontal = 1;
place = "{-197, 140}";
type = Stem;
},
{
place = "{-57.702, 187}";
type = Stem;
},
{
horizontal = 1;
place = "{-197, 140}";
type = Stem;
},
{
place = "{-72.702, 187}";
type = Stem;
}
);
layerId = "D215EC84-7FFD-4436-99F3-284D9B779A16";
paths = (
{
closed = 1;
nodes = (
"632.2 0 LINE",
"659 152 LINE",
"284 152 LINE",
"311 308 LINE",
"650 308 LINE",
"674 449 LINE",
"336 449 LINE",
"360 585 LINE",
"735 585 LINE",
"762 737 LINE",
"198 737 LINE",
"68 0 LINE"
);
},
{
closed = 1;
nodes = (
"410.298 -197 LINE",
"435.298 -57 LINE",
"244.298 -57 LINE",
"219.298 -197 LINE"
);
}
);
width = 680;
}
);
leftKerningGroup = B;
note = uni1EB8;
rightKerningGroup = AE;
unicode = 1EB8;
},
{
glyphname = Egrave;
lastChange = "2019-09-24 19:39:11 +0000";
layers = (
{
hints = (
{
horizontal = 1;
place = "{0, 152}";
type = Stem;
},
{
horizontal = 1;
place = "{308, 141}";
type = Stem;
},
{
horizontal = 1;
place = "{585, 152}";
type = Stem;
},
{
horizontal = 1;
place = "{795, 157}";
type = Stem;
},
{
place = "{70, 187}";
type = Stem;
},
{
horizontal = 1;
place = "{0, 152}";
type = Stem;
},
{
horizontal = 1;
place = "{308, 141}";
type = Stem;
},
{
horizontal = 1;
place = "{585, 152}";
type = Stem;
},
{
place = "{70, 187}";
type = Stem;
},
{
horizontal = 1;
place = "{795, 157}";
type = Stem;
},
{
place = "{-85.5, 287}";
type = Stem;
}
);
layerId = "D215EC84-7FFD-4436-99F3-284D9B779A16";
paths = (
{
closed = 1;
nodes = (
"632.2 0 LINE",
"659 152 LINE",
"284 152 LINE",
"311 308 LINE",
"650 308 LINE",
"674 449 LINE",
"336 449 LINE",
"360 585 LINE",
"735 585 LINE",
"762 737 LINE",
"198 737 LINE",
"68 0 LINE"
);
},
{
closed = 1;
nodes = (
"539.5 795 LINE",
"462.5 952 LINE",
"291.5 952 LINE",
"420.5 795 LINE"
);
}
);
width = 680;
}
);
leftKerningGroup = B;
note = Egrave;
rightKerningGroup = AE;
unicode = 00C8;
},
{
glyphname = uni1EBA;
lastChange = "2019-09-24 19:39:11 +0000";
layers = (
{
hints = (
{
horizontal = 1;
place = "{0, 152}";
type = Stem;
},
{
horizontal = 1;
place = "{308, 141}";
type = Stem;
},
{
horizontal = 1;
place = "{585, 152}";
type = Stem;
},
{
horizontal = 1;
place = "{921, 100}";
type = Stem;
},
{
place = "{70, 187}";
type = Stem;
},
{
place = "{286.2, 127}";
type = Stem;
},
{
horizontal = 1;
place = "{795, 80}";
type = Stem;
},
{
place = "{361.2, 125}";
type = Stem;
},
{
place = "{216.2, 113}";
type = Stem;
},
{
horizontal = 1;
place = "{0, 152}";
type = Stem;
},
{
horizontal = 1;
place = "{308, 141}";
type = Stem;
},
{
horizontal = 1;
place = "{585, 152}";
type = Stem;
},
{
place = "{70, 187}";
type = Stem;
},
{
horizontal = 1;
place = "{795, 80}";
type = Stem;
},
{
horizontal = 1;
place = "{921, 100}";
type = Stem;
},
{
place = "{85, 127}";
type = Stem;
},
{
place = "{15, 113}";
type = Stem;
},
{
place = "{160, 125}";
type = Stem;
}
);
layerId = "D215EC84-7FFD-4436-99F3-284D9B779A16";
paths = (
{
closed = 1;
nodes = (
"632.2 0 LINE",
"659 152 LINE",
"284 152 LINE",
"311 308 LINE",
"650 308 LINE",
"674 449 LINE",
"336 449 LINE",
"360 585 LINE",
"735 585 LINE",
"762 737 LINE",
"198 737 LINE",
"68 0 LINE"
);
},
{
closed = 1;
nodes = (
"547 795 LINE",
"554 836 LINE",
"635 878 LINE",
"653 981 LINE",
"617 1021 LINE",
"429 1021 LINE",
"379 981 LINE",
"368 921 LINE",
"483 921 LINE",
"489 950 LINE",
"521 950 LINE",
"515 921 LINE",
"430 875 LINE",
"416 795 LINE"
);
}
);
width = 680;
}
);
leftKerningGroup = B;
note = uni1EBA;
rightKerningGroup = AE;
unicode = 1EBA;
},
{
glyphname = uni0206;
lastChange = "2019-10-06 15:59:15 +0000";
layers = (
{
hints = (
{
horizontal = 1;
place = "{0, 152}";
type = Stem;
},
{
horizontal = 1;
place = "{308, 141}";
type = Stem;
},
{
horizontal = 1;
place = "{585, 152}";
type = Stem;
},
{
horizontal = 1;
place = "{853, 93}";
type = Stem;
},
{
place = "{157.7, 132}";
type = Stem;
},
{
place = "{412.7, 132}";
type = Stem;
},
{
place = "{70, 187}";
type = Stem;
},
{
horizontal = 1;
place = "{0, 152}";
type = Stem;
},
{
horizontal = 1;
place = "{308, 141}";
type = Stem;
},
{
horizontal = 1;
place = "{585, 152}";
type = Stem;
},
{
place = "{70, 187}";
type = Stem;
},
{
horizontal = 1;
place = "{853, 93}";
type = Stem;
},
{
place = "{-175.606, 132}";
type = Stem;
},
{
place = "{79.394, 132}";
type = Stem;
},
{
horizontal = 1;
place = "{947, -94}";
type = Stem;
},
{
place = "{1168.394, -132}";
type = Stem;
},
{
place = "{913.394, -132}";
type = Stem;
},
{
horizontal = 1;
place = "{869, -74}";
type = Stem;
}
);
layerId = "D215EC84-7FFD-4436-99F3-284D9B779A16";
paths = (
{
closed = 1;
nodes = (
"632.2 0 LINE",
"659 152 LINE",
"284 152 LINE",
"311 308 LINE",
"650 308 LINE",
"674 449 LINE",
"336 449 LINE",
"360 585 LINE",
"735 585 LINE",
"762 737 LINE",
"198 737 LINE",
"68 0 LINE"
);
},
{
closed = 1;
nodes = (
"430.394 795 LINE",
"438.394 840 LINE",
"454.394 853 LINE",
"545.394 853 LINE",
"557.394 840 LINE",
"549.394 795 LINE",
"685.394 795 LINE",
"698.394 869 LINE",
"627.394 947 LINE",
"407.394 947 LINE",
"307.394 869 LINE",
"294.394 795 LINE"
);
}
);
width = 680;
}
);
leftKerningGroup = B;
note = uni0206;
rightKerningGroup = AE;
unicode = 0206;
},
{
glyphname = Emacron;
lastChange = "2019-09-24 19:39:11 +0000";
layers = (
{
hints = (
{
horizontal = 1;
place = "{0, 152}";
type = Stem;
},
{
horizontal = 1;
place = "{308, 141}";
type = Stem;
},
{
horizontal = 1;
place = "{585, 152}";
type = Stem;
},
{
horizontal = 1;
place = "{795, 118}";
type = Stem;
},
{
place = "{70, 187}";
type = Stem;
},
{
horizontal = 1;
place = "{0, 152}";
type = Stem;
},
{
horizontal = 1;
place = "{308, 141}";
type = Stem;
},
{
horizontal = 1;
place = "{585, 152}";
type = Stem;
},
{
place = "{70, 187}";
type = Stem;
},
{
horizontal = 1;
place = "{795, 118}";
type = Stem;
},
{
place = "{-261.27, 460}";
type = Stem;
}
);
layerId = "D215EC84-7FFD-4436-99F3-284D9B779A16";
paths = (
{
closed = 1;
nodes = (
"632.2 0 LINE",
"659 152 LINE",
"284 152 LINE",
"311 308 LINE",
"650 308 LINE",
"674 449 LINE",
"336 449 LINE",
"360 585 LINE",
"735 585 LINE",
"762 737 LINE",
"198 737 LINE",
"68 0 LINE"
);
},
{
closed = 1;
nodes = (
"716.73 795 LINE",
"737.73 913 LINE",
"273.73 913 LINE",
"252.73 795 LINE"
);
}
);
width = 680;
}
);
leftKerningGroup = B;
note = Emacron;
rightKerningGroup = AE;
unicode = 0112;
},
{
glyphname = Eogonek;
lastChange = "2019-10-06 16:02:13 +0000";
layers = (
{
hints = (
{
horizontal = 1;
place = "{-180, 102}";
type = Stem;
},
{
horizontal = 1;
place = "{0, 152}";
type = Stem;
},
{
horizontal = 1;
place = "{308, 141}";
type = Stem;
},
{
horizontal = 1;
place = "{585, 152}";
type = Stem;
},
{
place = "{70, 187}";
type = Stem;
},
{
place = "{493.2, 137}";
type = Stem;
},
{
horizontal = 1;
place = "{0, 152}";
type = Stem;
},
{
horizontal = 1;
place = "{308, 141}";
type = Stem;
},
{
horizontal = 1;
place = "{585, 152}";
type = Stem;
},
{
place = "{70, 187}";
type = Stem;
},
{
horizontal = 1;
place = "{-180, 102}";
type = Stem;
},
{
horizontal = 1;
place = "{-33, 33}";
type = Stem;
},
{
place = "{254.28, 150}";
type = Stem;
}
);
layerId = "D215EC84-7FFD-4436-99F3-284D9B779A16";
paths = (
{
closed = 1;
nodes = (
"612.2 -180 LINE",
"630.2 -78 LINE",
"602.2 -78 LINE",
"587.2 -60 LINE",
"592.2 -33 LINE",
"632.2 0 LINE",
"659 152 LINE",
"284 152 LINE",
"311 308 LINE",
"650 308 LINE",
"674 449 LINE",
"336 449 LINE",
"360 585 LINE",
"735 585 LINE",
"762 737 LINE",
"198 737 LINE",
"68 0 LINE",
"539.2 0 LINE",
"488.2 -33 LINE",
"476.278 -101.621 LINE",
"548.732 -180 LINE"
);
}
);
width = 680;
}
);
leftKerningGroup = B;
note = Eogonek;
rightKerningGroup = AE;
unicode = 0118;
},
{
glyphname = uni1EBC;
lastChange = "2019-09-24 19:39:11 +0000";
layers = (
{
hints = (
{
horizontal = 1;
place = "{0, 152}";
type = Stem;
},
{
horizontal = 1;
place = "{308, 141}";
type = Stem;
},
{
horizontal = 1;
place = "{585, 152}";
type = Stem;
},
{
horizontal = 1;
place = "{802, 150}";
type = Stem;
},
{
place = "{129.2, 125}";
type = Stem;
},
{
horizontal = 1;
place = "{795, 151}";
type = Stem;
},
{
place = "{70, 187}";
type = Stem;
},
{
place = "{456.2, 125.5}";
type = Stem;
},
{
horizontal = 1;
place = "{0, 152}";
type = Stem;
},
{
horizontal = 1;
place = "{308, 141}";
type = Stem;
},
{
horizontal = 1;
place = "{585, 152}";
type = Stem;
},
{
place = "{70, 187}";
type = Stem;
},
{
horizontal = 1;
place = "{802, 150}";
type = Stem;
},
{
place = "{-296.642, 125}";
type = Stem;
},
{
place = "{30.358, 125.5}";
type = Stem;
},
{
horizontal = 1;
place = "{795, 151}";
type = Stem;
}
);
layerId = "D215EC84-7FFD-4436-99F3-284D9B779A16";
paths = (
{
closed = 1;
nodes = (
"632.2 0 LINE",
"659 152 LINE",
"284 152 LINE",
"311 308 LINE",
"650 308 LINE",
"674 449 LINE",
"336 449 LINE",
"360 585 LINE",
"735 585 LINE",
"762 737 LINE",
"198 737 LINE",
"68 0 LINE"
);
},
{
closed = 1;
nodes = (
"635.358 795 LINE",
"718.358 869 LINE",
"731.358 946 LINE",
"603.358 946 LINE",
"598.358 919 LINE",
"579.358 893 LINE",
"559.358 893 LINE",
"523.358 952 LINE",
"343.358 952 LINE",
"262.358 881 LINE",
"247.358 802 LINE",
"375.358 802 LINE",
"380.358 827 LINE",
"399.358 858 LINE",
"419.358 858 LINE",
"455.358 795 LINE"
);
}
);
width = 680;
}
);
leftKerningGroup = B;
note = uni1EBC;
rightKerningGroup = AE;
unicode = 1EBC;
},
{
glyphname = F;
lastChange = "2019-09-24 19:39:11 +0000";
layers = (
{
hints = (
{
horizontal = 1;
place = "{288, 141}";
type = Stem;
},
{
horizontal = 1;
place = "{585, 152}";
type = Stem;
},
{
place = "{70, 187}";
type = Stem;
}
);
layerId = "D215EC84-7FFD-4436-99F3-284D9B779A16";
paths = (
{
closed = 1;
nodes = (
"257 0 LINE",
"308 288 LINE",
"631 288 LINE",
"656 429 LINE",
"333 429 LINE",
"360 585 LINE",
"729 585 LINE",
"756 737 LINE",
"198 737 LINE",
"68 0 LINE"
);
}
);
width = 639;
}
);
leftKerningGroup = B;
note = F;
rightKerningGroup = F;
unicode = 0046;
},
{
glyphname = G;
lastChange = "2019-09-24 19:39:11 +0000";
layers = (
{
hints = (
{
horizontal = 1;
place = "{0, 141.9}";
type = Stem;
},
{
horizontal = 1;
place = "{253, 143}";
type = Stem;
},
{
horizontal = 1;
place = "{595.1, 141.9}";
type = Stem;
},
{
place = "{50, 187}";
type = Stem;
},
{
place = "{537.3, 157.3}";
type = Stem;
},
{
place = "{502.1, 181.5}";
type = Stem;
}
);
layerId = "D215EC84-7FFD-4436-99F3-284D9B779A16";
paths = (
{
closed = 1;
nodes = (
"462.5 0 LINE",
"549 66 LINE",
"537.3 0 LINE",
"696.6 0 LINE",
"766 396 LINE",
"461 396 LINE",
"436 253 LINE",
"571 253 LINE",
"566 227 LINE",
"455 142 LINE",
"298 142 LINE",
"268 178 LINE",
"336 560 LINE",
"378 595 LINE",
"571 595 LINE",
"601 560 LINE",
"589 491 LINE",
"772 490 LINE",
"796 626 LINE",
"704 737 LINE",
"289 737 LINE",
"158 626 LINE",
"68 111 LINE",
"159.1 0 LINE"
);
}
);
width = 818;
}
);
leftKerningGroup = C;
note = G;
rightKerningGroup = G;
unicode = 0047;
},
{
glyphname = Gbreve;
lastChange = "2019-09-24 19:39:11 +0000";
layers = (
{
hints = (
{
horizontal = 1;
place = "{0, 141.9}";
type = Stem;
},
{
horizontal = 1;
place = "{253, 143}";
type = Stem;
},
{
horizontal = 1;
place = "{595.1, 141.9}";
type = Stem;
},
{
horizontal = 1;
place = "{795, 94}";
type = Stem;
},
{
place = "{50, 187}";
type = Stem;
},
{
place = "{428.87, 132}";
type = Stem;
},
{
horizontal = 1;
place = "{873, 74}";
type = Stem;
},
{
place = "{173.87, 132}";
type = Stem;
},
{
place = "{537.3, 157.3}";
type = Stem;
},
{
place = "{502.1, 181.5}";
type = Stem;
},
{
horizontal = 1;
place = "{0, 141.9}";
type = Stem;
},
{
horizontal = 1;
place = "{253, 143}";
type = Stem;
},
{
horizontal = 1;
place = "{595.1, 141.9}";
type = Stem;
},
{
place = "{50, 187}";
type = Stem;
},
{
place = "{537.3, 157.3}";
type = Stem;
},
{
place = "{502.1, 181.5}";
type = Stem;
},
{
horizontal = 1;
place = "{795, 94}";
type = Stem;
},
{
place = "{-140.174, 132}";
type = Stem;
},
{
place = "{114.826, 132}";
type = Stem;
},
{
horizontal = 1;
place = "{873, 74}";
type = Stem;
}
);
layerId = "D215EC84-7FFD-4436-99F3-284D9B779A16";
paths = (
{
closed = 1;
nodes = (
"462.5 0 LINE",
"549 66 LINE",
"537.3 0 LINE",
"696.6 0 LINE",
"766 396 LINE",
"461 396 LINE",
"436 253 LINE",
"571 253 LINE",
"566 227 LINE",
"455 142 LINE",
"298 142 LINE",
"268 178 LINE",
"336 560 LINE",
"378 595 LINE",
"571 595 LINE",
"601 560 LINE",
"589 491 LINE",
"772 490 LINE",
"796 626 LINE",
"704 737 LINE",
"289 737 LINE",
"158 626 LINE",
"68 111 LINE",
"159.1 0 LINE"
);
},
{
closed = 1;
nodes = (
"620.826 795 LINE",
"720.826 873 LINE",
"733.826 947 LINE",
"597.826 947 LINE",
"589.826 902 LINE",
"573.826 889 LINE",
"482.826 889 LINE",
"470.826 902 LINE",
"478.826 947 LINE",
"342.826 947 LINE",
"329.826 873 LINE",
"400.826 795 LINE"
);
}
);
width = 818;
}
);
leftKerningGroup = C;
note = Gbreve;
rightKerningGroup = G;
unicode = 011E;
},
{
glyphname = Gcaron;
lastChange = "2019-10-06 15:59:15 +0000";
layers = (
{
hints = (
{
horizontal = 1;
place = "{0, 141.9}";
type = Stem;
},
{
horizontal = 1;
place = "{253, 143}";
type = Stem;
},
{
horizontal = 1;
place = "{595.1, 141.9}";
type = Stem;
},
{
horizontal = 1;
place = "{795, 152}";
type = Stem;
},
{
place = "{50, 187}";
type = Stem;
},
{
place = "{537.3, 157.3}";
type = Stem;
},
{
place = "{502.1, 181.5}";
type = Stem;
},
{
horizontal = 1;
place = "{0, 141.9}";
type = Stem;
},
{
horizontal = 1;
place = "{253, 143}";
type = Stem;
},
{
horizontal = 1;
place = "{595.1, 141.9}";
type = Stem;
},
{
place = "{50, 187}";
type = Stem;
},
{
place = "{537.3, 157.3}";
type = Stem;
},
{
place = "{502.1, 181.5}";
type = Stem;
},
{
horizontal = 1;
place = "{795, 152}";
type = Stem;
},
{
place = "{-192.174, 424}";
type = Stem;
},
{
horizontal = 1;
place = "{947, -152}";
type = Stem;
},
{
place = "{1245.826, -424}";
type = Stem;
}
);
layerId = "D215EC84-7FFD-4436-99F3-284D9B779A16";
paths = (
{
closed = 1;
nodes = (
"462.5 0 LINE",
"549 66 LINE",
"537.3 0 LINE",
"696.6 0 LINE",
"766 396 LINE",
"461 396 LINE",
"436 253 LINE",
"571 253 LINE",
"566 227 LINE",
"455 142 LINE",
"298 142 LINE",
"268 178 LINE",
"336 560 LINE",
"378 595 LINE",
"571 595 LINE",
"601 560 LINE",
"589 491 LINE",
"772 490 LINE",
"796 626 LINE",
"704 737 LINE",
"289 737 LINE",
"158 626 LINE",
"68 111 LINE",
"159.1 0 LINE"
);
},
{
closed = 1;
nodes = (
"598.826 795 LINE",
"738.826 947 LINE",
"591.826 947 LINE",
"507.826 875 LINE",
"450.826 947 LINE",
"314.826 947 LINE",
"400.826 795 LINE"
);
}
);
width = 818;
}
);
leftKerningGroup = C;
note = Gcaron;
rightKerningGroup = G;
unicode = 01E6;
},
{
glyphname = Gcircumflex;
lastChange = "2019-09-24 19:39:11 +0000";
layers = (
{
hints = (
{
horizontal = 1;
place = "{0, 141.9}";
type = Stem;
},
{
horizontal = 1;
place = "{253, 143}";
type = Stem;
},
{
horizontal = 1;
place = "{595.1, 141.9}";
type = Stem;
},
{
horizontal = 1;
place = "{795, 152}";
type = Stem;
},
{
place = "{50, 187}";
type = Stem;
},
{
place = "{537.3, 157.3}";
type = Stem;
},
{
place = "{502.1, 181.5}";
type = Stem;
},
{
horizontal = 1;
place = "{0, 141.9}";
type = Stem;
},
{
horizontal = 1;
place = "{253, 143}";
type = Stem;
},
{
horizontal = 1;
place = "{595.1, 141.9}";
type = Stem;
},
{
place = "{50, 187}";
type = Stem;
},
{
place = "{537.3, 157.3}";
type = Stem;
},
{
place = "{502.1, 181.5}";
type = Stem;
},
{
horizontal = 1;
place = "{795, 152}";
type = Stem;
},
{
place = "{-218.382, 424}";
type = Stem;
}
);
layerId = "D215EC84-7FFD-4436-99F3-284D9B779A16";
paths = (
{
closed = 1;
nodes = (
"462.5 0 LINE",
"549 66 LINE",
"537.3 0 LINE",
"696.6 0 LINE",
"766 396 LINE",
"461 396 LINE",
"436 253 LINE",
"571 253 LINE",
"566 227 LINE",
"455 142 LINE",
"298 142 LINE",
"268 178 LINE",
"336 560 LINE",
"378 595 LINE",
"571 595 LINE",
"601 560 LINE",
"589 491 LINE",
"772 490 LINE",
"796 626 LINE",
"704 737 LINE",
"289 737 LINE",
"158 626 LINE",
"68 111 LINE",
"159.1 0 LINE"
);
},
{
closed = 1;
nodes = (
"435.618 795 LINE",
"519.618 867 LINE",
"576.618 795 LINE",
"712.618 795 LINE",
"626.618 947 LINE",
"428.618 947 LINE",
"288.618 795 LINE"
);
}
);
width = 818;
}
);
leftKerningGroup = C;
note = Gcircumflex;
rightKerningGroup = G;
unicode = 011C;
},
{
glyphname = uni0122;
lastChange = "2019-09-24 19:39:11 +0000";
layers = (
{
hints = (
{
horizontal = 1;
place = "{-240, 183}";
type = Stem;
},
{
horizontal = 1;
place = "{0, 141.9}";
type = Stem;
},
{
horizontal = 1;
place = "{253, 143}";
type = Stem;
},
{
horizontal = 1;
place = "{595.1, 141.9}";
type = Stem;
},
{
place = "{50, 187}";
type = Stem;
},
{
place = "{537.3, 157.3}";
type = Stem;
},
{
place = "{502.1, 181.5}";
type = Stem;
},
{
horizontal = 1;
place = "{0, 141.9}";
type = Stem;
},
{
horizontal = 1;
place = "{253, 143}";
type = Stem;
},
{
horizontal = 1;
place = "{595.1, 141.9}";
type = Stem;
},
{
place = "{50, 187}";
type = Stem;
},
{
place = "{537.3, 157.3}";
type = Stem;
},
{
place = "{502.1, 181.5}";
type = Stem;
},
{
horizontal = 1;
place = "{-240, 183}";
type = Stem;
},
{
place = "{-163, 220}";
type = Stem;
}
);
layerId = "D215EC84-7FFD-4436-99F3-284D9B779A16";
paths = (
{
closed = 1;
nodes = (
"462.5 0 LINE",
"549 66 LINE",
"537.3 0 LINE",
"696.6 0 LINE",
"766 396 LINE",
"461 396 LINE",
"436 253 LINE",
"571 253 LINE",
"566 227 LINE",
"455 142 LINE",
"298 142 LINE",
"268 178 LINE",
"336 560 LINE",
"378 595 LINE",
"571 595 LINE",
"601 560 LINE",
"589 491 LINE",
"772 490 LINE",
"796 626 LINE",
"704 737 LINE",
"289 737 LINE",
"158 626 LINE",
"68 111 LINE",
"159.1 0 LINE"
);
},
{
closed = 1;
nodes = (
"260 -240 LINE",
"406 -57 LINE",
"216 -57 LINE",
"137 -240 LINE"
);
}
);
width = 818;
}
);
leftKerningGroup = C;
note = uni0122;
rightKerningGroup = G;
unicode = 0122;
},
{
glyphname = Gdotaccent;
lastChange = "2019-09-24 19:39:11 +0000";
layers = (
{
hints = (
{
horizontal = 1;
place = "{0, 141.9}";
type = Stem;
},
{
horizontal = 1;
place = "{253, 143}";
type = Stem;
},
{
horizontal = 1;
place = "{595.1, 141.9}";
type = Stem;
},
{
horizontal = 1;
place = "{795, 140}";
type = Stem;
},
{
place = "{50, 187}";
type = Stem;
},
{
place = "{273.87, 187}";
type = Stem;
},
{
place = "{537.3, 157.3}";
type = Stem;
},
{
place = "{502.1, 181.5}";
type = Stem;
},
{
horizontal = 1;
place = "{0, 141.9}";
type = Stem;
},
{
horizontal = 1;
place = "{253, 143}";
type = Stem;
},
{
horizontal = 1;
place = "{595.1, 141.9}";
type = Stem;
},
{
place = "{50, 187}";
type = Stem;
},
{
place = "{537.3, 157.3}";
type = Stem;
},
{
place = "{502.1, 181.5}";
type = Stem;
},
{
horizontal = 1;
place = "{795, 140}";
type = Stem;
},
{
place = "{124.935, 187}";
type = Stem;
}
);
layerId = "D215EC84-7FFD-4436-99F3-284D9B779A16";
paths = (
{
closed = 1;
nodes = (
"462.5 0 LINE",
"549 66 LINE",
"537.3 0 LINE",
"696.6 0 LINE",
"766 396 LINE",
"461 396 LINE",
"436 253 LINE",
"571 253 LINE",
"566 227 LINE",
"455 142 LINE",
"298 142 LINE",
"268 178 LINE",
"336 560 LINE",
"378 595 LINE",
"571 595 LINE",
"601 560 LINE",
"589 491 LINE",
"772 490 LINE",
"796 626 LINE",
"704 737 LINE",
"289 737 LINE",
"158 626 LINE",
"68 111 LINE",
"159.1 0 LINE"
);
},
{
closed = 1;
nodes = (
"607.935 795 LINE",
"632.935 935 LINE",
"441.935 935 LINE",
"416.935 795 LINE"
);
}
);
width = 818;
}
);
leftKerningGroup = C;
note = Gdotaccent;
rightKerningGroup = G;
unicode = 0120;
},
{
glyphname = H;
lastChange = "2019-09-24 19:39:11 +0000";
layers = (
{
hints = (
{
horizontal = 1;
place = "{317, 146}";
type = Stem;
},
{
place = "{70, 187}";
type = Stem;
},
{
place = "{508, 187}";
type = Stem;
}
);
layerId = "D215EC84-7FFD-4436-99F3-284D9B779A16";
paths = (
{
closed = 1;
nodes = (
"257 0 LINE",
"312.896 317 LINE",
"563.896 317 LINE",
"508 0 LINE",
"697 0 LINE",
"826.953 737 LINE",
"637.953 737 LINE",
"589.639 463 LINE",
"338.639 463 LINE",
"386.953 737 LINE",
"197.953 737 LINE",
"68 0 LINE"
);
}
);
width = 765;
}
);
leftKerningGroup = B;
note = H;
rightKerningGroup = H;
unicode = 0048;
},
{
glyphname = Hbar;
lastChange = "2019-10-06 16:02:35 +0000";
layers = (
{
hints = (
{
horizontal = 1;
place = "{317, 146}";
type = Stem;
},
{
horizontal = 1;
place = "{537, 117}";
type = Stem;
},
{
place = "{70, 187}";
type = Stem;
},
{
place = "{508, 187}";
type = Stem;
},
{
horizontal = 1;
place = "{317, 146}";
type = Stem;
},
{
place = "{70, 187}";
type = Stem;
},
{
place = "{508, 187}";
type = Stem;
}
);
layerId = "D215EC84-7FFD-4436-99F3-284D9B779A16";
paths = (
{
closed = 1;
nodes = (
"257 0 LINE",
"312.896 317 LINE",
"563.896 317 LINE",
"508 0 LINE",
"697 0 LINE",
"791.688 537 LINE",
"853 537 LINE",
"873 654 LINE",
"812.318 654 LINE",
"826.953 737 LINE",
"637.953 737 LINE",
"623.318 654 LINE",
"372.318 654 LINE",
"386.953 737 LINE",
"197.953 737 LINE",
"183.318 654 LINE",
"122 654 LINE",
"102 537 LINE",
"162.688 537 LINE",
"68 0 LINE"
);
},
{
closed = 1;
nodes = (
"351.687 537 LINE",
"602.687 537 LINE",
"589.639 463 LINE",
"338.639 463 LINE"
);
}
);
width = 765;
}
);
leftKerningGroup = B;
note = Hbar;
rightKerningGroup = H;
unicode = 0126;
},
{
glyphname = Hcircumflex;
lastChange = "2019-09-24 19:39:11 +0000";
layers = (
{
hints = (
{
horizontal = 1;
place = "{317, 146}";
type = Stem;
},
{
horizontal = 1;
place = "{795, 152}";
type = Stem;
},
{
place = "{70, 187}";
type = Stem;
},
{
place = "{508, 187}";
type = Stem;
},
{
horizontal = 1;
place = "{317, 146}";
type = Stem;
},
{
place = "{70, 187}";
type = Stem;
},
{
place = "{508, 187}";
type = Stem;
},
{
horizontal = 1;
place = "{795, 152}";
type = Stem;
},
{
place = "{-202.906, 424}";
type = Stem;
}
);
layerId = "D215EC84-7FFD-4436-99F3-284D9B779A16";
paths = (
{
closed = 1;
nodes = (
"257 0 LINE",
"312.896 317 LINE",
"563.896 317 LINE",
"508 0 LINE",
"697 0 LINE",
"826.953 737 LINE",
"637.953 737 LINE",
"589.639 463 LINE",
"338.639 463 LINE",
"386.953 737 LINE",
"197.953 737 LINE",
"68 0 LINE"
);
},
{
closed = 1;
nodes = (
"451.094 795 LINE",
"535.094 867 LINE",
"592.094 795 LINE",
"728.094 795 LINE",
"642.094 947 LINE",
"444.094 947 LINE",
"304.094 795 LINE"
);
}
);
width = 765;
}
);
leftKerningGroup = B;
note = Hcircumflex;
rightKerningGroup = H;
unicode = 0124;
},
{
glyphname = I;
lastChange = "2019-09-24 19:39:11 +0000";
layers = (
{
hints = (
{
horizontal = 1;
place = "{0, 141}";
type = Stem;
},
{
horizontal = 1;
place = "{596, 141}";
type = Stem;
},
{
place = "{120.99, 177}";
type = Stem;
}
);
layerId = "D215EC84-7FFD-4436-99F3-284D9B779A16";
paths = (
{
closed = 1;
nodes = (
"382 0 LINE",
"407 141 LINE",
"324 141 LINE",
"406 596 LINE",
"487 596 LINE",
"512 737 LINE",
"168 737 LINE",
"143 596 LINE",
"223 596 LINE",
"144 141 LINE",
"63 141 LINE",
"38 0 LINE"
);
}
);
width = 420;
}
);
leftKerningGroup = B;
note = I;
rightKerningGroup = H;
unicode = 0049;
},
{
glyphname = Iacute;
lastChange = "2019-09-24 19:39:11 +0000";
layers = (
{
hints = (
{
horizontal = 1;
place = "{0, 141}";
type = Stem;
},
{
horizontal = 1;
place = "{596, 141}";
type = Stem;
},
{
horizontal = 1;
place = "{795, 157}";
type = Stem;
},
{
place = "{120.99, 177}";
type = Stem;
},
{
horizontal = 1;
place = "{0, 141}";
type = Stem;
},
{
horizontal = 1;
place = "{596, 141}";
type = Stem;
},
{
place = "{120.99, 177}";
type = Stem;
},
{
horizontal = 1;
place = "{795, 157}";
type = Stem;
},
{
place = "{-77.155, 287}";
type = Stem;
}
);
layerId = "D215EC84-7FFD-4436-99F3-284D9B779A16";
paths = (
{
closed = 1;
nodes = (
"382 0 LINE",
"407 141 LINE",
"324 141 LINE",
"406 596 LINE",
"487 596 LINE",
"512 737 LINE",
"168 737 LINE",
"143 596 LINE",
"223 596 LINE",
"144 141 LINE",
"63 141 LINE",
"38 0 LINE"
);
},
{
closed = 1;
nodes = (
"412.89 795 LINE",
"590.89 952 LINE",
"393.845 952 LINE",
"282.845 795 LINE"
);
}
);
width = 420;
}
);
leftKerningGroup = B;
note = Iacute;
rightKerningGroup = H;
unicode = 00CD;
},
{
glyphname = Ibreve;
lastChange = "2019-09-24 19:39:11 +0000";
layers = (
{
hints = (
{
horizontal = 1;
place = "{0, 141}";
type = Stem;
},
{
horizontal = 1;
place = "{596, 141}";
type = Stem;
},
{
horizontal = 1;
place = "{795, 94}";
type = Stem;
},
{
place = "{16.5, 132}";
type = Stem;
},
{
place = "{271.5, 132}";
type = Stem;
},
{
horizontal = 1;
place = "{873, 74}";
type = Stem;
},
{
place = "{120.99, 177}";
type = Stem;
},
{
horizontal = 1;
place = "{0, 141}";
type = Stem;
},
{
horizontal = 1;
place = "{596, 141}";
type = Stem;
},
{
place = "{120.99, 177}";
type = Stem;
},
{
horizontal = 1;
place = "{795, 94}";
type = Stem;
},
{
place = "{-304.329, 132}";
type = Stem;
},
{
place = "{-49.329, 132}";
type = Stem;
},
{
horizontal = 1;
place = "{873, 74}";
type = Stem;
}
);
layerId = "D215EC84-7FFD-4436-99F3-284D9B779A16";
paths = (
{
closed = 1;
nodes = (
"382 0 LINE",
"407 141 LINE",
"324 141 LINE",
"406 596 LINE",
"487 596 LINE",
"512 737 LINE",
"168 737 LINE",
"143 596 LINE",
"223 596 LINE",
"144 141 LINE",
"63 141 LINE",
"38 0 LINE"
);
},
{
closed = 1;
nodes = (
"456.671 795 LINE",
"556.671 873 LINE",
"569.671 947 LINE",
"433.671 947 LINE",
"425.671 902 LINE",
"409.671 889 LINE",
"318.671 889 LINE",
"306.671 902 LINE",
"314.671 947 LINE",
"178.671 947 LINE",
"165.671 873 LINE",
"236.671 795 LINE"
);
}
);
width = 420;
}
);
leftKerningGroup = B;
note = Ibreve;
rightKerningGroup = H;
unicode = 012C;
},
{
glyphname = Icircumflex;
lastChange = "2019-09-24 19:39:11 +0000";
layers = (
{
hints = (
{
horizontal = 1;
place = "{0, 141}";
type = Stem;
},
{
horizontal = 1;
place = "{596, 141}";
type = Stem;
},
{
horizontal = 1;
place = "{795, 152}";
type = Stem;
},
{
place = "{120.99, 177}";
type = Stem;
},
{
horizontal = 1;
place = "{0, 141}";
type = Stem;
},
{
horizontal = 1;
place = "{596, 141}";
type = Stem;
},
{
place = "{120.99, 177}";
type = Stem;
},
{
horizontal = 1;
place = "{795, 152}";
type = Stem;
},
{
place = "{-382.537, 424}";
type = Stem;
}
);
layerId = "D215EC84-7FFD-4436-99F3-284D9B779A16";
paths = (
{
closed = 1;
nodes = (
"382 0 LINE",
"407 141 LINE",
"324 141 LINE",
"406 596 LINE",
"487 596 LINE",
"512 737 LINE",
"168 737 LINE",
"143 596 LINE",
"223 596 LINE",
"144 141 LINE",
"63 141 LINE",
"38 0 LINE"
);
},
{
closed = 1;
nodes = (
"271.463 795 LINE",
"355.463 867 LINE",
"412.463 795 LINE",
"548.463 795 LINE",
"462.463 947 LINE",
"264.463 947 LINE",
"124.463 795 LINE"
);
}
);
width = 420;
}
);
leftKerningGroup = B;
note = Icircumflex;
rightKerningGroup = H;
unicode = 00CE;
},
{
glyphname = uni0208;
lastChange = "2019-09-24 19:39:11 +0000";
layers = (
{
hints = (
{
horizontal = 1;
place = "{0, 141}";
type = Stem;
},
{
horizontal = 1;
place = "{596, 141}";
type = Stem;
},
{
horizontal = 1;
place = "{795, 157}";
type = Stem;
},
{
place = "{120.99, 177}";
type = Stem;
},
{
horizontal = 1;
place = "{0, 141}";
type = Stem;
},
{
horizontal = 1;
place = "{596, 141}";
type = Stem;
},
{
place = "{120.99, 177}";
type = Stem;
},
{
horizontal = 1;
place = "{795, 157}";
type = Stem;
},
{
place = "{-544.675, 497}";
type = Stem;
},
{
horizontal = 1;
place = "{795, 157}";
type = Stem;
},
{
place = "{-146.275, 287}";
type = Stem;
},
{
horizontal = 1;
place = "{795, 157}";
type = Stem;
},
{
place = "{-341.679, 287}";
type = Stem;
}
);
layerId = "D215EC84-7FFD-4436-99F3-284D9B779A16";
paths = (
{
closed = 1;
nodes = (
"382 0 LINE",
"407 141 LINE",
"324 141 LINE",
"406 596 LINE",
"487 596 LINE",
"512 737 LINE",
"168 737 LINE",
"143 596 LINE",
"223 596 LINE",
"144 141 LINE",
"63 141 LINE",
"38 0 LINE"
);
},
{
closed = 1;
nodes = (
"283.321 795 LINE",
"206.321 952 LINE",
"35.321 952 LINE",
"164.321 795 LINE"
);
},
{
closed = 1;
nodes = (
"478.725 795 LINE",
"401.725 952 LINE",
"230.725 952 LINE",
"359.725 795 LINE"
);
}
);
width = 420;
}
);
leftKerningGroup = B;
note = uni0208;
rightKerningGroup = H;
unicode = 0208;
},
{
glyphname = Idieresis;
lastChange = "2019-09-24 19:39:11 +0000";
layers = (
{
hints = (
{
horizontal = 1;
place = "{0, 141}";
type = Stem;
},
{
horizontal = 1;
place = "{596, 141}";
type = Stem;
},
{
horizontal = 1;
place = "{795, 140}";
type = Stem;
},
{
place = "{-20, 175}";
type = Stem;
},
{
place = "{265, 175}";
type = Stem;
},
{
place = "{120.99, 177}";
type = Stem;
},
{
horizontal = 1;
place = "{0, 141}";
type = Stem;
},
{
horizontal = 1;
place = "{596, 141}";
type = Stem;
},
{
place = "{120.99, 177}";
type = Stem;
},
{
horizontal = 1;
place = "{795, 140}";
type = Stem;
},
{
place = "{-597.144, 175}";
type = Stem;
},
{
place = "{-312.144, 175}";
type = Stem;
},
{
horizontal = 1;
place = "{795, 140}";
type = Stem;
},
{
place = "{-182.144, 187}";
type = Stem;
},
{
horizontal = 1;
place = "{795, 140}";
type = Stem;
},
{
place = "{91.006, 187}";
type = Stem;
}
);
layerId = "D215EC84-7FFD-4436-99F3-284D9B779A16";
paths = (
{
closed = 1;
nodes = (
"382 0 LINE",
"407 141 LINE",
"324 141 LINE",
"406 596 LINE",
"487 596 LINE",
"512 737 LINE",
"168 737 LINE",
"143 596 LINE",
"223 596 LINE",
"144 141 LINE",
"63 141 LINE",
"38 0 LINE"
);
},
{
closed = 1;
nodes = (
"300.856 795 LINE",
"325.856 935 LINE",
"134.856 935 LINE",
"109.856 795 LINE"
);
},
{
closed = 1;
nodes = (
"574.006 795 LINE",
"599.006 935 LINE",
"408.006 935 LINE",
"383.006 795 LINE"
);
}
);
width = 420;
}
);
leftKerningGroup = B;
note = Idieresis;
rightKerningGroup = H;
unicode = 00CF;
},
{
glyphname = Idotaccent;
lastChange = "2019-09-24 19:39:11 +0000";
layers = (
{
hints = (
{
horizontal = 1;
place = "{0, 141}";
type = Stem;
},
{
horizontal = 1;
place = "{596, 141}";
type = Stem;
},
{
horizontal = 1;
place = "{795, 140}";
type = Stem;
},
{
place = "{116.5, 187}";
type = Stem;
},
{
place = "{120.99, 177}";
type = Stem;
},
{
horizontal = 1;
place = "{0, 141}";
type = Stem;
},
{
horizontal = 1;
place = "{596, 141}";
type = Stem;
},
{
place = "{120.99, 177}";
type = Stem;
},
{
horizontal = 1;
place = "{795, 140}";
type = Stem;
},
{
place = "{-39.22, 187}";
type = Stem;
}
);
layerId = "D215EC84-7FFD-4436-99F3-284D9B779A16";
paths = (
{
closed = 1;
nodes = (
"382 0 LINE",
"407 141 LINE",
"324 141 LINE",
"406 596 LINE",
"487 596 LINE",
"512 737 LINE",
"168 737 LINE",
"143 596 LINE",
"223 596 LINE",
"144 141 LINE",
"63 141 LINE",
"38 0 LINE"
);
},
{
closed = 1;
nodes = (
"443.78 795 LINE",
"468.78 935 LINE",
"277.78 935 LINE",
"252.78 795 LINE"
);
}
);
width = 420;
}
);
leftKerningGroup = B;
note = Idotaccent;
rightKerningGroup = H;
unicode = 0130;
},
{
glyphname = uni1ECA;
lastChange = "2019-09-24 19:39:11 +0000";
layers = (
{
hints = (
{
horizontal = 1;
place = "{-197, 140}";
type = Stem;
},
{
horizontal = 1;
place = "{0, 141}";
type = Stem;
},
{
horizontal = 1;
place = "{596, 141}";
type = Stem;
},
{
place = "{120.99, 177}";
type = Stem;
},
{
place = "{116.5, 187}";
type = Stem;
},
{
horizontal = 1;
place = "{0, 141}";
type = Stem;
},
{
horizontal = 1;
place = "{596, 141}";
type = Stem;
},
{
place = "{120.99, 177}";
type = Stem;
},
{
horizontal = 1;
place = "{-197, 140}";
type = Stem;
},
{
place = "{-197.802, 187}";
type = Stem;
},
{
horizontal = 1;
place = "{-197, 140}";
type = Stem;
},
{
place = "{-212.802, 187}";
type = Stem;
}
);
layerId = "D215EC84-7FFD-4436-99F3-284D9B779A16";
paths = (
{
closed = 1;
nodes = (
"382 0 LINE",
"407 141 LINE",
"324 141 LINE",
"406 596 LINE",
"487 596 LINE",
"512 737 LINE",
"168 737 LINE",
"143 596 LINE",
"223 596 LINE",
"144 141 LINE",
"63 141 LINE",
"38 0 LINE"
);
},
{
closed = 1;
nodes = (
"270.198 -197 LINE",
"295.198 -57 LINE",
"104.198 -57 LINE",
"79.198 -197 LINE"
);
}
);
width = 420;
}
);
leftKerningGroup = B;
note = uni1ECA;
rightKerningGroup = H;
unicode = 1ECA;
},
{
glyphname = Igrave;
lastChange = "2019-09-24 19:39:11 +0000";
layers = (
{
hints = (
{
horizontal = 1;
place = "{0, 141}";
type = Stem;
},
{
horizontal = 1;
place = "{596, 141}";
type = Stem;
},
{
horizontal = 1;
place = "{795, 157}";
type = Stem;
},
{
place = "{120.99, 177}";
type = Stem;
},
{
horizontal = 1;
place = "{0, 141}";
type = Stem;
},
{
horizontal = 1;
place = "{596, 141}";
type = Stem;
},
{
place = "{120.99, 177}";
type = Stem;
},
{
horizontal = 1;
place = "{795, 157}";
type = Stem;
},
{
place = "{-227.655, 287}";
type = Stem;
}
);
layerId = "D215EC84-7FFD-4436-99F3-284D9B779A16";
paths = (
{
closed = 1;
nodes = (
"382 0 LINE",
"407 141 LINE",
"324 141 LINE",
"406 596 LINE",
"487 596 LINE",
"512 737 LINE",
"168 737 LINE",
"143 596 LINE",
"223 596 LINE",
"144 141 LINE",
"63 141 LINE",
"38 0 LINE"
);
},
{
closed = 1;
nodes = (
"397.345 795 LINE",
"320.345 952 LINE",
"149.345 952 LINE",
"278.345 795 LINE"
);
}
);
width = 420;
}
);
leftKerningGroup = B;
note = Igrave;
rightKerningGroup = H;
unicode = 00CC;
},
{
glyphname = uni1EC8;
lastChange = "2019-09-24 19:39:11 +0000";
layers = (
{
hints = (
{
horizontal = 1;
place = "{0, 141}";
type = Stem;
},
{
horizontal = 1;
place = "{596, 141}";
type = Stem;
},
{
horizontal = 1;
place = "{921, 100}";
type = Stem;
},
{
place = "{145, 127}";
type = Stem;
},
{
horizontal = 1;
place = "{795, 80}";
type = Stem;
},
{
place = "{220, 125}";
type = Stem;
},
{
place = "{75, 113}";
type = Stem;
},
{
place = "{120.99, 177}";
type = Stem;
},
{
horizontal = 1;
place = "{0, 141}";
type = Stem;
},
{
horizontal = 1;
place = "{596, 141}";
type = Stem;
},
{
place = "{120.99, 177}";
type = Stem;
},
{
horizontal = 1;
place = "{795, 80}";
type = Stem;
},
{
horizontal = 1;
place = "{921, 100}";
type = Stem;
},
{
place = "{-57.155, 127}";
type = Stem;
},
{
place = "{-127.155, 113}";
type = Stem;
},
{
place = "{17.845, 125}";
type = Stem;
}
);
layerId = "D215EC84-7FFD-4436-99F3-284D9B779A16";
paths = (
{
closed = 1;
nodes = (
"382 0 LINE",
"407 141 LINE",
"324 141 LINE",
"406 596 LINE",
"487 596 LINE",
"512 737 LINE",
"168 737 LINE",
"143 596 LINE",
"223 596 LINE",
"144 141 LINE",
"63 141 LINE",
"38 0 LINE"
);
},
{
closed = 1;
nodes = (
"404.845 795 LINE",
"411.845 836 LINE",
"492.845 878 LINE",
"510.845 981 LINE",
"474.845 1021 LINE",
"286.845 1021 LINE",
"236.845 981 LINE",
"225.845 921 LINE",
"340.845 921 LINE",
"346.845 950 LINE",
"378.845 950 LINE",
"372.845 921 LINE",
"287.845 875 LINE",
"273.845 795 LINE"
);
}
);
width = 420;
}
);
leftKerningGroup = B;
note = uni1EC8;
rightKerningGroup = H;
unicode = 1EC8;
},
{
glyphname = uni020A;
lastChange = "2019-10-06 15:59:15 +0000";
layers = (
{
hints = (
{
horizontal = 1;
place = "{0, 141}";
type = Stem;
},
{
horizontal = 1;
place = "{596, 141}";
type = Stem;
},
{
horizontal = 1;
place = "{853, 93}";
type = Stem;
},
{
place = "{120.99, 177}";
type = Stem;
},
{
place = "{16.5, 132}";
type = Stem;
},
{
place = "{271.5, 132}";
type = Stem;
},
{
horizontal = 1;
place = "{0, 141}";
type = Stem;
},
{
horizontal = 1;
place = "{596, 141}";
type = Stem;
},
{
place = "{120.99, 177}";
type = Stem;
},
{
horizontal = 1;
place = "{853, 93}";
type = Stem;
},
{
place = "{-317.761, 132}";
type = Stem;
},
{
place = "{-62.761, 132}";
type = Stem;
},
{
horizontal = 1;
place = "{947, -94}";
type = Stem;
},
{
place = "{1026.239, -132}";
type = Stem;
},
{
place = "{771.239, -132}";
type = Stem;
},
{
horizontal = 1;
place = "{869, -74}";
type = Stem;
}
);
layerId = "D215EC84-7FFD-4436-99F3-284D9B779A16";
paths = (
{
closed = 1;
nodes = (
"382 0 LINE",
"407 141 LINE",
"324 141 LINE",
"406 596 LINE",
"487 596 LINE",
"512 737 LINE",
"168 737 LINE",
"143 596 LINE",
"223 596 LINE",
"144 141 LINE",
"63 141 LINE",
"38 0 LINE"
);
},
{
closed = 1;
nodes = (
"288.239 795 LINE",
"296.239 840 LINE",
"312.239 853 LINE",
"403.239 853 LINE",
"415.239 840 LINE",
"407.239 795 LINE",
"543.239 795 LINE",
"556.239 869 LINE",
"485.239 947 LINE",
"265.239 947 LINE",
"165.239 869 LINE",
"152.239 795 LINE"
);
}
);
width = 420;
}
);
leftKerningGroup = B;
note = uni020A;
rightKerningGroup = H;
unicode = 020A;
},
{
glyphname = Imacron;
lastChange = "2019-09-24 19:39:11 +0000";
layers = (
{
hints = (
{
horizontal = 1;
place = "{0, 141}";
type = Stem;
},
{
horizontal = 1;
place = "{596, 141}";
type = Stem;
},
{
horizontal = 1;
place = "{795, 118}";
type = Stem;
},
{
place = "{120.99, 177}";
type = Stem;
},
{
horizontal = 1;
place = "{0, 141}";
type = Stem;
},
{
horizontal = 1;
place = "{596, 141}";
type = Stem;
},
{
place = "{120.99, 177}";
type = Stem;
},
{
horizontal = 1;
place = "{795, 118}";
type = Stem;
},
{
place = "{-403.424, 460}";
type = Stem;
}
);
layerId = "D215EC84-7FFD-4436-99F3-284D9B779A16";
paths = (
{
closed = 1;
nodes = (
"382 0 LINE",
"407 141 LINE",
"324 141 LINE",
"406 596 LINE",
"487 596 LINE",
"512 737 LINE",
"168 737 LINE",
"143 596 LINE",
"223 596 LINE",
"144 141 LINE",
"63 141 LINE",
"38 0 LINE"
);
},
{
closed = 1;
nodes = (
"574.576 795 LINE",
"595.576 913 LINE",
"131.576 913 LINE",
"110.576 795 LINE"
);
}
);
width = 420;
}
);
leftKerningGroup = B;
note = Imacron;
rightKerningGroup = H;
unicode = 012A;
},
{
glyphname = Iogonek;
lastChange = "2019-10-06 16:02:55 +0000";
layers = (
{
hints = (
{
horizontal = 1;
place = "{0, 141}";
type = Stem;
},
{
horizontal = 1;
place = "{596, 141}";
type = Stem;
},
{
place = "{120.99, 177}";
type = Stem;
},
{
horizontal = 1;
place = "{-180, 102}";
type = Stem;
},
{
place = "{243, 137}";
type = Stem;
},
{
horizontal = 1;
place = "{0, 141}";
type = Stem;
},
{
horizontal = 1;
place = "{596, 141}";
type = Stem;
},
{
place = "{120.99, 177}";
type = Stem;
},
{
horizontal = 1;
place = "{-180, 102}";
type = Stem;
},
{
horizontal = 1;
place = "{-33, 33}";
type = Stem;
},
{
place = "{4.08, 150}";
type = Stem;
}
);
layerId = "D215EC84-7FFD-4436-99F3-284D9B779A16";
paths = (
{
closed = 1;
nodes = (
"362 -180 LINE",
"380 -78 LINE",
"352 -78 LINE",
"337 -60 LINE",
"342 -33 LINE",
"382 0 LINE",
"407 141 LINE",
"324 141 LINE",
"406 596 LINE",
"487 596 LINE",
"512 737 LINE",
"168 737 LINE",
"143 596 LINE",
"223 596 LINE",
"144 141 LINE",
"63 141 LINE",
"38 0 LINE",
"289 0 LINE",
"238 -33 LINE",
"226.078 -101.621 LINE",
"298.532 -180 LINE"
);
}
);
width = 420;
}
);
leftKerningGroup = B;
note = Iogonek;
rightKerningGroup = H;
unicode = 012E;
},
{
glyphname = Itilde;
lastChange = "2019-09-24 19:39:11 +0000";
layers = (
{
hints = (
{
horizontal = 1;
place = "{0, 141}";
type = Stem;
},
{
horizontal = 1;
place = "{596, 141}";
type = Stem;
},
{
horizontal = 1;
place = "{795, 151}";
type = Stem;
},
{
place = "{120.99, 177}";
type = Stem;
},
{
place = "{315, 125.5}";
type = Stem;
},
{
horizontal = 1;
place = "{802, 150}";
type = Stem;
},
{
place = "{-12, 125}";
type = Stem;
},
{
horizontal = 1;
place = "{0, 141}";
type = Stem;
},
{
horizontal = 1;
place = "{596, 141}";
type = Stem;
},
{
place = "{120.99, 177}";
type = Stem;
},
{
horizontal = 1;
place = "{802, 150}";
type = Stem;
},
{
place = "{-438.797, 125}";
type = Stem;
},
{
place = "{-111.797, 125.5}";
type = Stem;
},
{
horizontal = 1;
place = "{795, 151}";
type = Stem;
}
);
layerId = "D215EC84-7FFD-4436-99F3-284D9B779A16";
paths = (
{
closed = 1;
nodes = (
"382 0 LINE",
"407 141 LINE",
"324 141 LINE",
"406 596 LINE",
"487 596 LINE",
"512 737 LINE",
"168 737 LINE",
"143 596 LINE",
"223 596 LINE",
"144 141 LINE",
"63 141 LINE",
"38 0 LINE"
);
},
{
closed = 1;
nodes = (
"493.203 795 LINE",
"576.203 869 LINE",
"589.203 946 LINE",
"461.203 946 LINE",
"456.203 919 LINE",
"437.203 893 LINE",
"417.203 893 LINE",
"381.203 952 LINE",
"201.203 952 LINE",
"120.203 881 LINE",
"105.203 802 LINE",
"233.203 802 LINE",
"238.203 827 LINE",
"257.203 858 LINE",
"277.203 858 LINE",
"313.203 795 LINE"
);
}
);
width = 420;
}
);
leftKerningGroup = B;
note = Itilde;
rightKerningGroup = H;
unicode = 0128;
},
{
glyphname = J;
lastChange = "2019-09-24 19:39:11 +0000";
layers = (
{
hints = (
{
horizontal = 1;
place = "{0, 142}";
type = Stem;
},
{
place = "{30, 187}";
type = Stem;
},
{
place = "{424, 187}";
type = Stem;
}
);
layerId = "D215EC84-7FFD-4436-99F3-284D9B779A16";
paths = (
{
closed = 1;
nodes = (
"502 0 LINE",
"633 111 LINE",
"743 737 LINE",
"554 737 LINE",
"455 177 LINE",
"414 142 LINE",
"277 142 LINE",
"248 177 LINE",
"273 315 LINE",
"84 315 LINE",
"48 111 LINE",
"139 0 LINE"
);
}
);
width = 681;
}
);
leftKerningGroup = J;
note = J;
unicode = 004A;
},
{
glyphname = Jcircumflex;
lastChange = "2019-09-24 19:39:11 +0000";
layers = (
{
hints = (
{
horizontal = 1;
place = "{0, 142}";
type = Stem;
},
{
horizontal = 1;
place = "{795, 152}";
type = Stem;
},
{
place = "{30, 187}";
type = Stem;
},
{
place = "{424, 187}";
type = Stem;
},
{
horizontal = 1;
place = "{0, 142}";
type = Stem;
},
{
place = "{30, 187}";
type = Stem;
},
{
place = "{424, 187}";
type = Stem;
},
{
horizontal = 1;
place = "{795, 152}";
type = Stem;
},
{
place = "{-71.882, 424}";
type = Stem;
}
);
layerId = "D215EC84-7FFD-4436-99F3-284D9B779A16";
paths = (
{
closed = 1;
nodes = (
"502 0 LINE",
"633 111 LINE",
"743 737 LINE",
"554 737 LINE",
"455 177 LINE",
"414 142 LINE",
"277 142 LINE",
"248 177 LINE",
"273 315 LINE",
"84 315 LINE",
"48 111 LINE",
"139 0 LINE"
);
},
{
closed = 1;
nodes = (
"582.118 795 LINE",
"666.118 867 LINE",
"723.118 795 LINE",
"859.118 795 LINE",
"773.118 947 LINE",
"575.118 947 LINE",
"435.118 795 LINE"
);
}
);
width = 681;
}
);
note = Jcircumflex;
unicode = 0134;
},
{
glyphname = K;
lastChange = "2019-09-24 19:39:11 +0000";
layers = (
{
hints = (
{
horizontal = 1;
place = "{0, 737}";
type = Stem;
},
{
place = "{70, 187}";
type = Stem;
}
);
layerId = "D215EC84-7FFD-4436-99F3-284D9B779A16";
paths = (
{
closed = 1;
nodes = (
"257 0 LINE",
"292 199 LINE",
"394.27 298.969 LINE",
"528.988 0 LINE",
"712.382 0 LINE",
"514.118 416.121 LINE",
"842.382 737 LINE",
"615 737 LINE",
"335 444 LINE",
"387 737 LINE",
"198 737 LINE",
"68 0 LINE"
);
}
);
width = 692;
}
);
leftKerningGroup = B;
note = K;
rightKerningGroup = K;
unicode = 004B;
},
{
glyphname = uni0136;
lastChange = "2019-09-24 19:39:11 +0000";
layers = (
{
hints = (
{
horizontal = 1;
place = "{-240, 183}";
type = Stem;
},
{
place = "{70, 187}";
type = Stem;
},
{
horizontal = 1;
place = "{0, 737}";
type = Stem;
},
{
place = "{70, 187}";
type = Stem;
},
{
horizontal = 1;
place = "{-240, 183}";
type = Stem;
},
{
place = "{-82, 220}";
type = Stem;
}
);
layerId = "D215EC84-7FFD-4436-99F3-284D9B779A16";
paths = (
{
closed = 1;
nodes = (
"257 0 LINE",
"292 199 LINE",
"394.27 298.969 LINE",
"528.988 0 LINE",
"712.382 0 LINE",
"514.118 416.121 LINE",
"842.382 737 LINE",
"615 737 LINE",
"335 444 LINE",
"387 737 LINE",
"198 737 LINE",
"68 0 LINE"
);
},
{
closed = 1;
nodes = (
"341 -240 LINE",
"487 -57 LINE",
"297 -57 LINE",
"218 -240 LINE"
);
}
);
width = 692;
}
);
leftKerningGroup = B;
note = uni0136;
rightKerningGroup = K;
unicode = 0136;
},
{
glyphname = L;
lastChange = "2019-09-24 19:39:11 +0000";
layers = (
{
hints = (
{
horizontal = 1;
place = "{0, 152}";
type = Stem;
},
{
place = "{70, 187}";
type = Stem;
}
);
layerId = "D215EC84-7FFD-4436-99F3-284D9B779A16";
paths = (
{
closed = 1;
nodes = (
"597.2 0 LINE",
"624 152 LINE",
"284 152 LINE",
"387 737 LINE",
"198 737 LINE",
"68 0 LINE"
);
}
);
width = 610;
}
);
leftKerningGroup = B;
note = L;
rightKerningGroup = L;
unicode = 004C;
},
{
glyphname = uni01C7;
lastChange = "2019-10-06 16:25:56 +0000";
layers = (
{
background = {
paths = (
{
closed = 1;
nodes = (
"1117 0 LINE",
"1248 111 LINE",
"1358 737 LINE",
"1171 737 LINE",
"1072 177 LINE",
"1031 142 LINE",
"894 142 LINE",
"865 177 LINE",
"890 315 LINE",
"703 315 LINE",
"667 111 LINE",
"758 0 LINE"
);
},
{
closed = 1;
nodes = (
"595.2 0 LINE",
"622 152 LINE",
"284 152 LINE",
"387 737 LINE",
"200 737 LINE",
"70 0 LINE"
);
}
);
};
hints = (
{
horizontal = 1;
place = "{0, 152}";
type = Stem;
},
{
place = "{70, 187}";
type = Stem;
},
{
place = "{647, 187}";
type = Stem;
},
{
place = "{1041, 187}";
type = Stem;
},
{
horizontal = 1;
place = "{0, 152}";
type = Stem;
},
{
place = "{70, 187}";
type = Stem;
},
{
horizontal = 1;
place = "{0, 142}";
type = Stem;
},
{
place = "{647, 187}";
type = Stem;
},
{
place = "{1041, 187}";
type = Stem;
}
);
layerId = "D215EC84-7FFD-4436-99F3-284D9B779A16";
paths = (
{
closed = 1;
nodes = (
"1119 0 LINE",
"1250 111 LINE",
"1360 737 LINE",
"1171 737 LINE",
"1072 177 LINE",
"1031 142 LINE",
"894 142 LINE",
"865 177 LINE",
"890 315 LINE",
"701 315 LINE",
"665 111 LINE",
"756 0 LINE"
);
},
{
closed = 1;
nodes = (
"597.2 0 LINE",
"624 152 LINE",
"284 152 LINE",
"387 737 LINE",
"198 737 LINE",
"68 0 LINE"
);
}
);
width = 1298;
}
);
leftKerningGroup = B;
note = uni01C7;
unicode = 01C7;
},
{
glyphname = Lacute;
lastChange = "2019-09-24 19:39:11 +0000";
layers = (
{
hints = (
{
horizontal = 1;
place = "{0, 152}";
type = Stem;
},
{
horizontal = 1;
place = "{795, 157}";
type = Stem;
},
{
place = "{70, 187}";
type = Stem;
},
{
horizontal = 1;
place = "{0, 152}";
type = Stem;
},
{
place = "{70, 187}";
type = Stem;
},
{
horizontal = 1;
place = "{795, 157}";
type = Stem;
},
{
place = "{-122.5, 287}";
type = Stem;
}
);
layerId = "D215EC84-7FFD-4436-99F3-284D9B779A16";
paths = (
{
closed = 1;
nodes = (
"597.2 0 LINE",
"624 152 LINE",
"284 152 LINE",
"387 737 LINE",
"198 737 LINE",
"68 0 LINE"
);
},
{
closed = 1;
nodes = (
"367.545 795 LINE",
"545.545 952 LINE",
"348.5 952 LINE",
"237.5 795 LINE"
);
}
);
width = 610;
}
);
leftKerningGroup = B;
note = Lacute;
rightKerningGroup = L;
unicode = 0139;
},
{
glyphname = Lcaron;
lastChange = "2019-09-24 19:39:11 +0000";
layers = (
{
hints = (
{
horizontal = 1;
place = "{0, 152}";
type = Stem;
},
{
horizontal = 1;
place = "{554, 183}";
type = Stem;
},
{
place = "{70, 187}";
type = Stem;
},
{
horizontal = 1;
place = "{0, 152}";
type = Stem;
},
{
place = "{70, 187}";
type = Stem;
}
);
layerId = "D215EC84-7FFD-4436-99F3-284D9B779A16";
paths = (
{
closed = 1;
nodes = (
"597.2 0 LINE",
"624 152 LINE",
"284 152 LINE",
"387 737 LINE",
"198 737 LINE",
"68 0 LINE"
);
},
{
closed = 1;
nodes = (
"575 554 LINE",
"721 737 LINE",
"538 737 LINE",
"459 554 LINE"
);
}
);
width = 610;
}
);
leftKerningGroup = B;
note = Lcaron;
rightKerningGroup = L;
unicode = 013D;
},
{
glyphname = uni013B;
lastChange = "2019-09-24 19:39:11 +0000";
layers = (
{
hints = (
{
horizontal = 1;
place = "{-240, 183}";
type = Stem;
},
{
horizontal = 1;
place = "{0, 152}";
type = Stem;
},
{
place = "{70, 187}";
type = Stem;
},
{
horizontal = 1;
place = "{0, 152}";
type = Stem;
},
{
place = "{70, 187}";
type = Stem;
},
{
horizontal = 1;
place = "{-240, 183}";
type = Stem;
},
{
place = "{-141.5, 220}";
type = Stem;
}
);
layerId = "D215EC84-7FFD-4436-99F3-284D9B779A16";
paths = (
{
closed = 1;
nodes = (
"597.2 0 LINE",
"624 152 LINE",
"284 152 LINE",
"387 737 LINE",
"198 737 LINE",
"68 0 LINE"
);
},
{
closed = 1;
nodes = (
"281.5 -240 LINE",
"427.5 -57 LINE",
"237.5 -57 LINE",
"158.5 -240 LINE"
);
}
);
width = 610;
}
);
leftKerningGroup = B;
note = uni013B;
rightKerningGroup = L;
unicode = 013B;
},
{
glyphname = Ldot;
lastChange = "2019-09-24 19:39:11 +0000";
layers = (
{
hints = (
{
horizontal = 1;
place = "{0, 152}";
type = Stem;
},
{
horizontal = 1;
place = "{331.15, 157}";
type = Stem;
},
{
place = "{70, 187}";
type = Stem;
},
{
place = "{385.2, 169}";
type = Stem;
},
{
horizontal = 1;
place = "{0, 152}";
type = Stem;
},
{
place = "{70, 187}";
type = Stem;
}
);
layerId = "D215EC84-7FFD-4436-99F3-284D9B779A16";
paths = (
{
closed = 1;
nodes = (
"597.2 0 LINE",
"624 152 LINE",
"284 152 LINE",
"387 737 LINE",
"198 737 LINE",
"68 0 LINE"
);
},
{
closed = 1;
nodes = (
"615 331 LINE",
"642 488 LINE",
"471 488 LINE",
"444 331 LINE"
);
}
);
width = 610;
}
);
leftKerningGroup = B;
note = Ldot;
rightKerningGroup = L;
unicode = 013F;
},
{
glyphname = uni01C8;
lastChange = "2019-10-06 16:26:08 +0000";
layers = (
{
hints = (
{
horizontal = 1;
place = "{-187, 120}";
type = Stem;
},
{
horizontal = 1;
place = "{0, 152}";
type = Stem;
},
{
horizontal = 1;
place = "{580, 140}";
type = Stem;
},
{
place = "{70, 187}";
type = Stem;
},
{
place = "{702, 186.5}";
type = Stem;
},
{
horizontal = 1;
place = "{0, 152}";
type = Stem;
},
{
place = "{70, 187}";
type = Stem;
},
{
horizontal = 1;
place = "{-187, 120}";
type = Stem;
},
{
horizontal = 1;
place = "{580, 140}";
type = Stem;
},
{
place = "{703, 186.5}";
type = Stem;
},
{
horizontal = 1;
place = "{-187, 120}";
type = Stem;
},
{
place = "{703, 186.5}";
type = Stem;
},
{
horizontal = 1;
place = "{580, 140}";
type = Stem;
},
{
place = "{818.435, 187}";
type = Stem;
},
{
horizontal = 1;
place = "{580, 140}";
type = Stem;
},
{
place = "{511.435, 187}";
type = Stem;
}
);
layerId = "D215EC84-7FFD-4436-99F3-284D9B779A16";
paths = (
{
closed = 1;
nodes = (
"597.2 0 LINE",
"624 152 LINE",
"284 152 LINE",
"387 737 LINE",
"198 737 LINE",
"68 0 LINE"
);
},
{
closed = 1;
nodes = (
"753 -187 LINE",
"876 -90 LINE",
"983 522 LINE",
"794 522 LINE",
"695 -40 LINE",
"662 -67 LINE",
"586 -67 LINE",
"565 -187 LINE"
);
},
{
closed = 1;
nodes = (
"994.435 580 LINE",
"1019.435 720 LINE",
"828.435 720 LINE",
"803.435 580 LINE"
);
}
);
width = 954;
}
);
leftKerningGroup = B;
note = uni01C8;
rightKerningGroup = uni01C8;
unicode = 01C8;
},
{
glyphname = Lslash;
lastChange = "2019-10-06 16:34:38 +0000";
layers = (
{
hints = (
{
horizontal = 1;
place = "{0, 152}";
type = Stem;
},
{
place = "{86, 187}";
type = Stem;
},
{
horizontal = 1;
place = "{0, 152}";
type = Stem;
},
{
place = "{86, 187}";
type = Stem;
}
);
layerId = "D215EC84-7FFD-4436-99F3-284D9B779A16";
paths = (
{
closed = 1;
nodes = (
"597.2 0 LINE",
"624 152 LINE",
"284 152 LINE",
"318.089 345.61 LINE",
"488 415 LINE",
"511 544 LINE",
"340.808 474.649 LINE",
"387 737 LINE",
"198 737 LINE",
"137.08 391.632 LINE",
"57 359 LINE",
"35 230 LINE",
"114.281 262.377 LINE",
"68 0 LINE"
);
}
);
width = 610;
}
);
leftKerningGroup = B;
note = Lslash;
rightKerningGroup = L;
unicode = 0141;
},
{
glyphname = M;
lastChange = "2019-09-24 19:39:11 +0000";
layers = (
{
hints = (
{
horizontal = 1;
place = "{0, 737}";
type = Stem;
},
{
place = "{70, 173.91}";
type = Stem;
},
{
place = "{641, 173.91}";
type = Stem;
}
);
layerId = "D215EC84-7FFD-4436-99F3-284D9B779A16";
paths = (
{
closed = 1;
nodes = (
"243.91 0 LINE",
"315 405 LINE",
"404 32 LINE",
"492 32 LINE",
"712 405 LINE",
"641 0 LINE",
"816.91 0 LINE",
"947 737 LINE",
"750.889 737 LINE",
"484.703 293.446 LINE",
"375.543 737 LINE",
"198 737 LINE",
"68 0 LINE"
);
}
);
width = 885;
}
);
leftKerningGroup = B;
note = M;
rightKerningGroup = H;
unicode = 004D;
},
{
glyphname = N;
lastChange = "2019-09-24 19:39:11 +0000";
layers = (
{
hints = (
{
horizontal = 1;
place = "{0, 737}";
type = Stem;
},
{
place = "{70, 173.91}";
type = Stem;
},
{
place = "{522, 173.91}";
type = Stem;
}
);
layerId = "D215EC84-7FFD-4436-99F3-284D9B779A16";
paths = (
{
closed = 1;
nodes = (
"243.91 0 LINE",
"320 432 LINE",
"356 432 LINE",
"521.52 0 LINE",
"697.91 0 LINE",
"828 737 LINE",
"652 737 LINE",
"570.465 274.966 LINE",
"392.378 737 LINE",
"198 737 LINE",
"68 0 LINE"
);
}
);
width = 766;
}
);
leftKerningGroup = B;
note = N;
rightKerningGroup = H;
unicode = 004E;
},
{
glyphname = uni01CA;
lastChange = "2019-10-06 16:03:54 +0000";
layers = (
{
hints = (
{
horizontal = 1;
place = "{0, 142}";
type = Stem;
},
{
place = "{70, 173.91}";
type = Stem;
},
{
place = "{522, 173.91}";
type = Stem;
},
{
place = "{806, 187}";
type = Stem;
},
{
place = "{1200, 187}";
type = Stem;
},
{
horizontal = 1;
place = "{0, 737}";
type = Stem;
},
{
place = "{70, 173.91}";
type = Stem;
},
{
place = "{522, 173.91}";
type = Stem;
},
{
horizontal = 1;
place = "{0, 142}";
type = Stem;
},
{
place = "{806, 187}";
type = Stem;
},
{
place = "{1200, 187}";
type = Stem;
}
);
layerId = "D215EC84-7FFD-4436-99F3-284D9B779A16";
paths = (
{
closed = 1;
nodes = (
"243.91 0 LINE",
"320 432 LINE",
"356 432 LINE",
"521.52 0 LINE",
"697.91 0 LINE",
"828 737 LINE",
"652 737 LINE",
"570.465 274.966 LINE",
"392.378 737 LINE",
"198 737 LINE",
"68 0 LINE"
);
},
{
closed = 1;
nodes = (
"1278 0 LINE",
"1409 111 LINE",
"1519 737 LINE",
"1330 737 LINE",
"1231 177 LINE",
"1190 142 LINE",
"1053 142 LINE",
"1024 177 LINE",
"1049 315 LINE",
"860 315 LINE",
"824 111 LINE",
"915 0 LINE"
);
}
);
width = 1447;
}
);
leftKerningGroup = B;
note = uni01CA;
unicode = 01CA;
},
{
glyphname = Nacute;
lastChange = "2019-09-24 19:39:11 +0000";
layers = (
{
hints = (
{
horizontal = 1;
place = "{795, 157}";
type = Stem;
},
{
place = "{70, 173.91}";
type = Stem;
},
{
place = "{522, 173.91}";
type = Stem;
},
{
horizontal = 1;
place = "{0, 737}";
type = Stem;
},
{
place = "{70, 173.91}";
type = Stem;
},
{
place = "{522, 173.91}";
type = Stem;
},
{
horizontal = 1;
place = "{795, 157}";
type = Stem;
},
{
place = "{97, 287}";
type = Stem;
}
);
layerId = "D215EC84-7FFD-4436-99F3-284D9B779A16";
paths = (
{
closed = 1;
nodes = (
"243.91 0 LINE",
"320 432 LINE",
"356 432 LINE",
"521.52 0 LINE",
"697.91 0 LINE",
"828 737 LINE",
"652 737 LINE",
"570.465 274.966 LINE",
"392.378 737 LINE",
"198 737 LINE",
"68 0 LINE"
);
},
{
closed = 1;
nodes = (
"587.045 795 LINE",
"765.045 952 LINE",
"568 952 LINE",
"457 795 LINE"
);
}
);
width = 766;
}
);
leftKerningGroup = B;
note = Nacute;
rightKerningGroup = H;
unicode = 0143;
},
{
glyphname = Ncaron;
lastChange = "2019-10-06 15:59:15 +0000";
layers = (
{
hints = (
{
horizontal = 1;
place = "{795, 152}";
type = Stem;
},
{
place = "{70, 173.91}";
type = Stem;
},
{
place = "{522, 173.91}";
type = Stem;
},
{
horizontal = 1;
place = "{0, 737}";
type = Stem;
},
{
place = "{70, 173.91}";
type = Stem;
},
{
place = "{522, 173.91}";
type = Stem;
},
{
horizontal = 1;
place = "{795, 152}";
type = Stem;
},
{
place = "{-182.174, 424}";
type = Stem;
},
{
horizontal = 1;
place = "{947, -152}";
type = Stem;
},
{
place = "{1255.826, -424}";
type = Stem;
}
);
layerId = "D215EC84-7FFD-4436-99F3-284D9B779A16";
paths = (
{
closed = 1;
nodes = (
"243.91 0 LINE",
"320 432 LINE",
"356 432 LINE",
"521.52 0 LINE",
"697.91 0 LINE",
"828 737 LINE",
"652 737 LINE",
"570.465 274.966 LINE",
"392.378 737 LINE",
"198 737 LINE",
"68 0 LINE"
);
},
{
closed = 1;
nodes = (
"608.826 795 LINE",
"748.826 947 LINE",
"601.826 947 LINE",
"517.826 875 LINE",
"460.826 947 LINE",
"324.826 947 LINE",
"410.826 795 LINE"
);
}
);
width = 766;
}
);
leftKerningGroup = B;
note = Ncaron;
rightKerningGroup = H;
unicode = 0147;
},
{
glyphname = uni0145;
lastChange = "2019-09-24 19:39:11 +0000";
layers = (
{
hints = (
{
horizontal = 1;
place = "{-240, 183}";
type = Stem;
},
{
place = "{70, 173.91}";
type = Stem;
},
{
place = "{522, 173.91}";
type = Stem;
},
{
horizontal = 1;
place = "{0, 737}";
type = Stem;
},
{
place = "{70, 173.91}";
type = Stem;
},
{
place = "{522, 173.91}";
type = Stem;
},
{
horizontal = 1;
place = "{-240, 183}";
type = Stem;
},
{
place = "{-98.484, 220}";
type = Stem;
}
);
layerId = "D215EC84-7FFD-4436-99F3-284D9B779A16";
paths = (
{
closed = 1;
nodes = (
"243.91 0 LINE",
"320 432 LINE",
"356 432 LINE",
"521.52 0 LINE",
"697.91 0 LINE",
"828 737 LINE",
"652 737 LINE",
"570.465 274.966 LINE",
"392.378 737 LINE",
"198 737 LINE",
"68 0 LINE"
);
},
{
closed = 1;
nodes = (
"324.516 -240 LINE",
"470.516 -57 LINE",
"280.516 -57 LINE",
"201.516 -240 LINE"
);
}
);
width = 766;
}
);
leftKerningGroup = B;
note = uni0145;
rightKerningGroup = H;
unicode = 0145;
},
{
glyphname = Eng;
lastChange = "2019-10-06 15:59:15 +0000";
layers = (
{
hints = (
{
horizontal = 1;
place = "{-187, 109}";
type = Stem;
},
{
place = "{70, 173.91}";
type = Stem;
},
{
place = "{522, 173.91}";
type = Stem;
},
{
horizontal = 1;
place = "{0, 737}";
type = Stem;
},
{
place = "{70, 173.91}";
type = Stem;
},
{
place = "{522, 173.91}";
type = Stem;
}
);
layerId = "D215EC84-7FFD-4436-99F3-284D9B779A16";
paths = (
{
closed = 1;
nodes = (
"560 -187 LINE",
"682 -90 LINE",
"828 737 LINE",
"652 737 LINE",
"570.284 275.435 LINE",
"392.378 737 LINE",
"198 737 LINE",
"68 0 LINE",
"243.91 0 LINE",
"320 432 LINE",
"356 432 LINE",
"521.52 0 LINE",
"513 -51 LINE",
"481 -78 LINE",
"406 -78 LINE",
"387 -187 LINE"
);
}
);
width = 766;
}
);
leftKerningGroup = B;
note = Eng;
rightKerningGroup = H;
unicode = 014A;
},
{
glyphname = uni01CB;
lastChange = "2019-10-06 16:26:29 +0000";
layers = (
{
background = {
paths = (
{
closed = 1;
nodes = (
"912 -187 LINE",
"1035 -90 LINE",
"1142 522 LINE",
"956 522 LINE",
"857 -40 LINE",
"824 -67 LINE",
"748 -67 LINE",
"727 -187 LINE"
);
},
{
closed = 1;
nodes = (
"1152 580 LINE",
"1176 720 LINE",
"989 720 LINE",
"965 580 LINE"
);
}
);
};
hints = (
{
horizontal = 1;
place = "{-187, 120}";
type = Stem;
},
{
horizontal = 1;
place = "{580, 140}";
type = Stem;
},
{
place = "{70, 173.91}";
type = Stem;
},
{
place = "{522, 173.91}";
type = Stem;
},
{
place = "{864, 186.5}";
type = Stem;
},
{
horizontal = 1;
place = "{0, 737}";
type = Stem;
},
{
place = "{70, 173.91}";
type = Stem;
},
{
place = "{522, 173.91}";
type = Stem;
},
{
horizontal = 1;
place = "{-187, 120}";
type = Stem;
},
{
horizontal = 1;
place = "{580, 140}";
type = Stem;
},
{
place = "{865, 186.5}";
type = Stem;
},
{
horizontal = 1;
place = "{-187, 120}";
type = Stem;
},
{
place = "{865, 186.5}";
type = Stem;
},
{
horizontal = 1;
place = "{580, 140}";
type = Stem;
},
{
place = "{980.435, 187}";
type = Stem;
},
{
horizontal = 1;
place = "{580, 140}";
type = Stem;
},
{
place = "{673.435, 187}";
type = Stem;
}
);
layerId = "D215EC84-7FFD-4436-99F3-284D9B779A16";
paths = (
{
closed = 1;
nodes = (
"243.91 0 LINE",
"320 432 LINE",
"356 432 LINE",
"521.52 0 LINE",
"697.91 0 LINE",
"828 737 LINE",
"652 737 LINE",
"570.465 274.966 LINE",
"392.378 737 LINE",
"198 737 LINE",
"68 0 LINE"
);
},
{
closed = 1;
nodes = (
"915 -187 LINE",
"1038 -90 LINE",
"1145 522 LINE",
"956 522 LINE",
"857 -40 LINE",
"824 -67 LINE",
"748 -67 LINE",
"727 -187 LINE"
);
},
{
closed = 1;
nodes = (
"1156.435 580 LINE",
"1181.435 720 LINE",
"990.435 720 LINE",
"965.435 580 LINE"
);
}
);
width = 1116;
}
);
leftKerningGroup = B;
note = uni01CB;
rightKerningGroup = uni01C8;
unicode = 01CB;
},
{
glyphname = Ntilde;
lastChange = "2019-09-24 19:39:11 +0000";
layers = (
{
hints = (
{
horizontal = 1;
place = "{802, 150}";
type = Stem;
},
{
place = "{150.52, 125}";
type = Stem;
},
{
place = "{522, 173.91}";
type = Stem;
},
{
horizontal = 1;
place = "{795, 151}";
type = Stem;
},
{
place = "{70, 173.91}";
type = Stem;
},
{
place = "{477.52, 125.5}";
type = Stem;
},
{
horizontal = 1;
place = "{0, 737}";
type = Stem;
},
{
place = "{70, 173.91}";
type = Stem;
},
{
place = "{522, 173.91}";
type = Stem;
},
{
horizontal = 1;
place = "{802, 150}";
type = Stem;
},
{
place = "{-264.642, 125}";
type = Stem;
},
{
place = "{62.358, 125.5}";
type = Stem;
},
{
horizontal = 1;
place = "{795, 151}";
type = Stem;
}
);
layerId = "D215EC84-7FFD-4436-99F3-284D9B779A16";
paths = (
{
closed = 1;
nodes = (
"243.91 0 LINE",
"320 432 LINE",
"356 432 LINE",
"521.52 0 LINE",
"697.91 0 LINE",
"828 737 LINE",
"652 737 LINE",
"570.465 274.966 LINE",
"392.378 737 LINE",
"198 737 LINE",
"68 0 LINE"
);
},
{
closed = 1;
nodes = (
"667.358 795 LINE",
"750.358 869 LINE",
"763.358 946 LINE",
"635.358 946 LINE",
"630.358 919 LINE",
"611.358 893 LINE",
"591.358 893 LINE",
"555.358 952 LINE",
"375.358 952 LINE",
"294.358 881 LINE",
"279.358 802 LINE",
"407.358 802 LINE",
"412.358 827 LINE",
"431.358 858 LINE",
"451.358 858 LINE",
"487.358 795 LINE"
);
}
);
width = 766;
}
);
leftKerningGroup = B;
note = Ntilde;
rightKerningGroup = H;
unicode = 00D1;
},
{
glyphname = O;
lastChange = "2019-09-24 19:39:11 +0000";
layers = (
{
hints = (
{
horizontal = 1;
place = "{0, 142}";
type = Stem;
},
{
horizontal = 1;
place = "{595, 142}";
type = Stem;
},
{
place = "{50, 187}";
type = Stem;
},
{
place = "{518, 186}";
type = Stem;
}
);
layerId = "D215EC84-7FFD-4436-99F3-284D9B779A16";
paths = (
{
closed = 1;
nodes = (
"595 0 LINE",
"726 111 LINE",
"816 626 LINE",
"725 737 LINE",
"289 737 LINE",
"158 626 LINE",
"68 111 LINE",
"159 0 LINE"
);
},
{
closed = 1;
nodes = (
"268 177 LINE",
"336 560 LINE",
"378 595 LINE",
"586 595 LINE",
"617 560 LINE",
"549 177 LINE",
"508 142 LINE",
"298 142 LINE"
);
}
);
width = 754;
}
);
leftKerningGroup = C;
note = O;
rightKerningGroup = O;
unicode = 004F;
},
{
glyphname = Oacute;
lastChange = "2019-09-24 19:39:11 +0000";
layers = (
{
hints = (
{
horizontal = 1;
place = "{0, 142}";
type = Stem;
},
{
horizontal = 1;
place = "{595, 142}";
type = Stem;
},
{
horizontal = 1;
place = "{795, 157}";
type = Stem;
},
{
place = "{50, 187}";
type = Stem;
},
{
place = "{518, 186}";
type = Stem;
},
{
horizontal = 1;
place = "{0, 142}";
type = Stem;
},
{
horizontal = 1;
place = "{595, 142}";
type = Stem;
},
{
place = "{50, 187}";
type = Stem;
},
{
place = "{518, 186}";
type = Stem;
},
{
horizontal = 1;
place = "{795, 157}";
type = Stem;
},
{
place = "{92, 287}";
type = Stem;
}
);
layerId = "D215EC84-7FFD-4436-99F3-284D9B779A16";
paths = (
{
closed = 1;
nodes = (
"595 0 LINE",
"726 111 LINE",
"816 626 LINE",
"725 737 LINE",
"289 737 LINE",
"158 626 LINE",
"68 111 LINE",
"159 0 LINE"
);
},
{
closed = 1;
nodes = (
"268 177 LINE",
"336 560 LINE",
"378 595 LINE",
"586 595 LINE",
"617 560 LINE",
"549 177 LINE",
"508 142 LINE",
"298 142 LINE"
);
},
{
closed = 1;
nodes = (
"582.045 795 LINE",
"760.045 952 LINE",
"563 952 LINE",
"452 795 LINE"
);
}
);
width = 754;
}
);
leftKerningGroup = C;
note = Oacute;
rightKerningGroup = O;
unicode = 00D3;
},
{
glyphname = Obreve;
lastChange = "2019-09-24 19:39:11 +0000";
layers = (
{
hints = (
{
horizontal = 1;
place = "{0, 142}";
type = Stem;
},
{
horizontal = 1;
place = "{595, 142}";
type = Stem;
},
{
horizontal = 1;
place = "{795, 94}";
type = Stem;
},
{
place = "{50, 187}";
type = Stem;
},
{
place = "{518, 186}";
type = Stem;
},
{
place = "{438.5, 132}";
type = Stem;
},
{
horizontal = 1;
place = "{873, 74}";
type = Stem;
},
{
place = "{183.5, 132}";
type = Stem;
},
{
horizontal = 1;
place = "{0, 142}";
type = Stem;
},
{
horizontal = 1;
place = "{595, 142}";
type = Stem;
},
{
place = "{50, 187}";
type = Stem;
},
{
place = "{518, 186}";
type = Stem;
},
{
horizontal = 1;
place = "{795, 94}";
type = Stem;
},
{
place = "{-135.174, 132}";
type = Stem;
},
{
place = "{119.826, 132}";
type = Stem;
},
{
horizontal = 1;
place = "{873, 74}";
type = Stem;
}
);
layerId = "D215EC84-7FFD-4436-99F3-284D9B779A16";
paths = (
{
closed = 1;
nodes = (
"595 0 LINE",
"726 111 LINE",
"816 626 LINE",
"725 737 LINE",
"289 737 LINE",
"158 626 LINE",
"68 111 LINE",
"159 0 LINE"
);
},
{
closed = 1;
nodes = (
"268 177 LINE",
"336 560 LINE",
"378 595 LINE",
"586 595 LINE",
"617 560 LINE",
"549 177 LINE",
"508 142 LINE",
"298 142 LINE"
);
},
{
closed = 1;
nodes = (
"625.826 795 LINE",
"725.826 873 LINE",
"738.826 947 LINE",
"602.826 947 LINE",
"594.826 902 LINE",
"578.826 889 LINE",
"487.826 889 LINE",
"475.826 902 LINE",
"483.826 947 LINE",
"347.826 947 LINE",
"334.826 873 LINE",
"405.826 795 LINE"
);
}
);
width = 754;
}
);
leftKerningGroup = C;
note = Obreve;
rightKerningGroup = O;
unicode = 014E;
},
{
glyphname = Ocircumflex;
lastChange = "2019-09-24 19:39:11 +0000";
layers = (
{
hints = (
{
horizontal = 1;
place = "{0, 142}";
type = Stem;
},
{
horizontal = 1;
place = "{595, 142}";
type = Stem;
},
{
horizontal = 1;
place = "{795, 152}";
type = Stem;
},
{
place = "{50, 187}";
type = Stem;
},
{
place = "{518, 186}";
type = Stem;
},
{
horizontal = 1;
place = "{0, 142}";
type = Stem;
},
{
horizontal = 1;
place = "{595, 142}";
type = Stem;
},
{
place = "{50, 187}";
type = Stem;
},
{
place = "{518, 186}";
type = Stem;
},
{
horizontal = 1;
place = "{795, 152}";
type = Stem;
},
{
place = "{-213.382, 424}";
type = Stem;
}
);
layerId = "D215EC84-7FFD-4436-99F3-284D9B779A16";
paths = (
{
closed = 1;
nodes = (
"595 0 LINE",
"726 111 LINE",
"816 626 LINE",
"725 737 LINE",
"289 737 LINE",
"158 626 LINE",
"68 111 LINE",
"159 0 LINE"
);
},
{
closed = 1;
nodes = (
"268 177 LINE",
"336 560 LINE",
"378 595 LINE",
"586 595 LINE",
"617 560 LINE",
"549 177 LINE",
"508 142 LINE",
"298 142 LINE"
);
},
{
closed = 1;
nodes = (
"440.618 795 LINE",
"524.618 867 LINE",
"581.618 795 LINE",
"717.618 795 LINE",
"631.618 947 LINE",
"433.618 947 LINE",
"293.618 795 LINE"
);
}
);
width = 754;
}
);
leftKerningGroup = C;
note = Ocircumflex;
rightKerningGroup = O;
unicode = 00D4;
},
{
glyphname = uni1ED0;
lastChange = "2019-09-24 19:39:11 +0000";
layers = (
{
hints = (
{
horizontal = 1;
place = "{0, 142}";
type = Stem;
},
{
horizontal = 1;
place = "{595, 142}";
type = Stem;
},
{
horizontal = 1;
place = "{876.73, 157}";
type = Stem;
},
{
place = "{50, 187}";
type = Stem;
},
{
place = "{518, 186}";
type = Stem;
},
{
horizontal = 1;
place = "{795, 152}";
type = Stem;
},
{
horizontal = 1;
place = "{0, 142}";
type = Stem;
},
{
horizontal = 1;
place = "{595, 142}";
type = Stem;
},
{
place = "{50, 187}";
type = Stem;
},
{
place = "{518, 186}";
type = Stem;
},
{
horizontal = 1;
place = "{876.73, 157}";
type = Stem;
},
{
place = "{-476.382, 696}";
type = Stem;
},
{
horizontal = 1;
place = "{795, 152}";
type = Stem;
},
{
horizontal = 1;
place = "{795, 152}";
type = Stem;
},
{
place = "{-213.382, 424}";
type = Stem;
},
{
horizontal = 1;
place = "{877, 157}";
type = Stem;
},
{
place = "{359.541, 287}";
type = Stem;
}
);
layerId = "D215EC84-7FFD-4436-99F3-284D9B779A16";
paths = (
{
closed = 1;
nodes = (
"595 0 LINE",
"726 111 LINE",
"816 626 LINE",
"725 737 LINE",
"289 737 LINE",
"158 626 LINE",
"68 111 LINE",
"159 0 LINE"
);
},
{
closed = 1;
nodes = (
"268 177 LINE",
"336 560 LINE",
"378 595 LINE",
"586 595 LINE",
"617 560 LINE",
"549 177 LINE",
"508 142 LINE",
"298 142 LINE"
);
},
{
closed = 1;
nodes = (
"440.618 795 LINE",
"524.618 867 LINE",
"581.618 795 LINE",
"717.618 795 LINE",
"631.618 947 LINE",
"433.618 947 LINE",
"293.618 795 LINE"
);
},
{
closed = 1;
nodes = (
"849.586 877 LINE",
"1027.586 1034 LINE",
"830.541 1034 LINE",
"719.541 877 LINE"
);
}
);
width = 754;
}
);
leftKerningGroup = C;
note = uni1ED0;
rightKerningGroup = O;
unicode = 1ED0;
},
{
glyphname = uni1ED8;
lastChange = "2019-09-24 19:39:11 +0000";
layers = (
{
hints = (
{
horizontal = 1;
place = "{-197, 140}";
type = Stem;
},
{
horizontal = 1;
place = "{0, 142}";
type = Stem;
},
{
horizontal = 1;
place = "{595, 142}";
type = Stem;
},
{
horizontal = 1;
place = "{795, 152}";
type = Stem;
},
{
place = "{50, 187}";
type = Stem;
},
{
place = "{283.5, 187}";
type = Stem;
},
{
place = "{518, 186}";
type = Stem;
},
{
horizontal = 1;
place = "{0, 142}";
type = Stem;
},
{
horizontal = 1;
place = "{595, 142}";
type = Stem;
},
{
place = "{50, 187}";
type = Stem;
},
{
place = "{518, 186}";
type = Stem;
},
{
horizontal = 1;
place = "{795, 152}";
type = Stem;
},
{
place = "{-213.382, 424}";
type = Stem;
},
{
horizontal = 1;
place = "{-197, 140}";
type = Stem;
},
{
place = "{-30.802, 187}";
type = Stem;
},
{
horizontal = 1;
place = "{-197, 140}";
type = Stem;
},
{
place = "{-45.802, 187}";
type = Stem;
}
);
layerId = "D215EC84-7FFD-4436-99F3-284D9B779A16";
paths = (
{
closed = 1;
nodes = (
"595 0 LINE",
"726 111 LINE",
"816 626 LINE",
"725 737 LINE",
"289 737 LINE",
"158 626 LINE",
"68 111 LINE",
"159 0 LINE"
);
},
{
closed = 1;
nodes = (
"437.198 -197 LINE",
"462.198 -57 LINE",
"271.198 -57 LINE",
"246.198 -197 LINE"
);
},
{
closed = 1;
nodes = (
"268 177 LINE",
"336 560 LINE",
"378 595 LINE",
"586 595 LINE",
"617 560 LINE",
"549 177 LINE",
"508 142 LINE",
"298 142 LINE"
);
},
{
closed = 1;
nodes = (
"440.618 795 LINE",
"524.618 867 LINE",
"581.618 795 LINE",
"717.618 795 LINE",
"631.618 947 LINE",
"433.618 947 LINE",
"293.618 795 LINE"
);
}
);
width = 754;
}
);
leftKerningGroup = C;
note = uni1ED8;
rightKerningGroup = O;
unicode = 1ED8;
},
{
glyphname = uni1ED2;
lastChange = "2019-09-24 19:39:11 +0000";
layers = (
{
hints = (
{
horizontal = 1;
place = "{0, 142}";
type = Stem;
},
{
horizontal = 1;
place = "{595, 142}";
type = Stem;
},
{
horizontal = 1;
place = "{876.77, 157}";
type = Stem;
},
{
place = "{50, 187}";
type = Stem;
},
{
place = "{518, 186}";
type = Stem;
},
{
horizontal = 1;
place = "{795, 152}";
type = Stem;
},
{
horizontal = 1;
place = "{0, 142}";
type = Stem;
},
{
horizontal = 1;
place = "{595, 142}";
type = Stem;
},
{
place = "{50, 187}";
type = Stem;
},
{
place = "{518, 186}";
type = Stem;
},
{
horizontal = 1;
place = "{876.77, 157}";
type = Stem;
},
{
place = "{-666.32, 696}";
type = Stem;
},
{
horizontal = 1;
place = "{795, 152}";
type = Stem;
},
{
horizontal = 1;
place = "{795, 152}";
type = Stem;
},
{
place = "{-213.382, 424}";
type = Stem;
},
{
horizontal = 1;
place = "{877, 157}";
type = Stem;
},
{
place = "{-302.334, 287}";
type = Stem;
}
);
layerId = "D215EC84-7FFD-4436-99F3-284D9B779A16";
paths = (
{
closed = 1;
nodes = (
"595 0 LINE",
"726 111 LINE",
"816 626 LINE",
"725 737 LINE",
"289 737 LINE",
"158 626 LINE",
"68 111 LINE",
"159 0 LINE"
);
},
{
closed = 1;
nodes = (
"268 177 LINE",
"336 560 LINE",
"378 595 LINE",
"586 595 LINE",
"617 560 LINE",
"549 177 LINE",
"508 142 LINE",
"298 142 LINE"
);
},
{
closed = 1;
nodes = (
"322.666 877 LINE",
"245.666 1034 LINE",
"74.666 1034 LINE",
"203.666 877 LINE"
);
},
{
closed = 1;
nodes = (
"440.618 795 LINE",
"524.618 867 LINE",
"581.618 795 LINE",
"717.618 795 LINE",
"631.618 947 LINE",
"433.618 947 LINE",
"293.618 795 LINE"
);
}
);
width = 754;
}
);
leftKerningGroup = C;
note = uni1ED2;
rightKerningGroup = O;
unicode = 1ED2;
},
{
glyphname = uni1ED4;
lastChange = "2019-09-24 19:39:11 +0000";
layers = (
{
hints = (
{
horizontal = 1;
place = "{0, 142}";
type = Stem;
},
{
horizontal = 1;
place = "{595, 142}";
type = Stem;
},
{
horizontal = 1;
place = "{795, 152}";
type = Stem;
},
{
horizontal = 1;
place = "{1002.68, 100}";
type = Stem;
},
{
place = "{50, 187}";
type = Stem;
},
{
place = "{573, 127}";
type = Stem;
},
{
place = "{503, 113}";
type = Stem;
},
{
place = "{648, 125}";
type = Stem;
},
{
place = "{518, 186}";
type = Stem;
},
{
horizontal = 1;
place = "{0, 142}";
type = Stem;
},
{
horizontal = 1;
place = "{595, 142}";
type = Stem;
},
{
place = "{50, 187}";
type = Stem;
},
{
place = "{518, 186}";
type = Stem;
},
{
horizontal = 1;
place = "{795, 152}";
type = Stem;
},
{
horizontal = 1;
place = "{1002.68, 100}";
type = Stem;
},
{
place = "{10.618, 127}";
type = Stem;
},
{
place = "{-59.382, 113}";
type = Stem;
},
{
place = "{85.618, 125}";
type = Stem;
},
{
horizontal = 1;
place = "{795, 152}";
type = Stem;
},
{
place = "{-213.382, 424}";
type = Stem;
},
{
horizontal = 1;
place = "{877, 80}";
type = Stem;
},
{
horizontal = 1;
place = "{1003, 100}";
type = Stem;
},
{
place = "{386.404, 127}";
type = Stem;
},
{
place = "{316.404, 113}";
type = Stem;
},
{
place = "{461.404, 125}";
type = Stem;
}
);
layerId = "D215EC84-7FFD-4436-99F3-284D9B779A16";
paths = (
{
closed = 1;
nodes = (
"595 0 LINE",
"726 111 LINE",
"816 626 LINE",
"725 737 LINE",
"289 737 LINE",
"158 626 LINE",
"68 111 LINE",
"159 0 LINE"
);
},
{
closed = 1;
nodes = (
"268 177 LINE",
"336 560 LINE",
"378 595 LINE",
"586 595 LINE",
"617 560 LINE",
"549 177 LINE",
"508 142 LINE",
"298 142 LINE"
);
},
{
closed = 1;
nodes = (
"440.618 795 LINE",
"524.618 867 LINE",
"581.618 795 LINE",
"717.618 795 LINE",
"631.618 947 LINE",
"433.618 947 LINE",
"293.618 795 LINE"
);
},
{
closed = 1;
nodes = (
"848.404 877 LINE",
"855.404 918 LINE",
"936.404 960 LINE",
"954.404 1063 LINE",
"918.404 1103 LINE",
"730.404 1103 LINE",
"680.404 1063 LINE",
"669.404 1003 LINE",
"784.404 1003 LINE",
"790.404 1032 LINE",
"822.404 1032 LINE",
"816.404 1003 LINE",
"731.404 957 LINE",
"717.404 877 LINE"
);
}
);
width = 754;
}
);
leftKerningGroup = C;
note = uni1ED4;
rightKerningGroup = O;
unicode = 1ED4;
},
{
glyphname = uni1ED6;
lastChange = "2019-09-24 19:39:11 +0000";
layers = (
{
hints = (
{
horizontal = 1;
place = "{0, 142}";
type = Stem;
},
{
horizontal = 1;
place = "{595, 142}";
type = Stem;
},
{
horizontal = 1;
place = "{795, 152}";
type = Stem;
},
{
horizontal = 1;
place = "{986, 150}";
type = Stem;
},
{
place = "{160, 125}";
type = Stem;
},
{
place = "{518, 186}";
type = Stem;
},
{
horizontal = 1;
place = "{979, 151}";
type = Stem;
},
{
place = "{50, 187}";
type = Stem;
},
{
place = "{487, 125.5}";
type = Stem;
},
{
horizontal = 1;
place = "{0, 142}";
type = Stem;
},
{
horizontal = 1;
place = "{595, 142}";
type = Stem;
},
{
place = "{50, 187}";
type = Stem;
},
{
place = "{518, 186}";
type = Stem;
},
{
horizontal = 1;
place = "{795, 152}";
type = Stem;
},
{
horizontal = 1;
place = "{986, 150}";
type = Stem;
},
{
place = "{-242.382, 125}";
type = Stem;
},
{
place = "{84.618, 125.5}";
type = Stem;
},
{
horizontal = 1;
place = "{979, 151}";
type = Stem;
},
{
horizontal = 1;
place = "{795, 152}";
type = Stem;
},
{
place = "{-213.382, 424}";
type = Stem;
},
{
horizontal = 1;
place = "{986, 150}";
type = Stem;
},
{
place = "{-223.129, 125}";
type = Stem;
},
{
place = "{103.871, 125.5}";
type = Stem;
},
{
horizontal = 1;
place = "{979, 151}";
type = Stem;
}
);
layerId = "D215EC84-7FFD-4436-99F3-284D9B779A16";
paths = (
{
closed = 1;
nodes = (
"595 0 LINE",
"726 111 LINE",
"816 626 LINE",
"725 737 LINE",
"289 737 LINE",
"158 626 LINE",
"68 111 LINE",
"159 0 LINE"
);
},
{
closed = 1;
nodes = (
"268 177 LINE",
"336 560 LINE",
"378 595 LINE",
"586 595 LINE",
"617 560 LINE",
"549 177 LINE",
"508 142 LINE",
"298 142 LINE"
);
},
{
closed = 1;
nodes = (
"440.618 795 LINE",
"524.618 867 LINE",
"581.618 795 LINE",
"717.618 795 LINE",
"631.618 947 LINE",
"433.618 947 LINE",
"293.618 795 LINE"
);
},
{
closed = 1;
nodes = (
"708.871 979 LINE",
"791.871 1053 LINE",
"804.871 1130 LINE",
"676.871 1130 LINE",
"671.871 1103 LINE",
"652.871 1077 LINE",
"632.871 1077 LINE",
"596.871 1136 LINE",
"416.871 1136 LINE",
"335.871 1065 LINE",
"320.871 986 LINE",
"448.871 986 LINE",
"453.871 1011 LINE",
"472.871 1042 LINE",
"492.871 1042 LINE",
"528.871 979 LINE"
);
}
);
width = 754;
}
);
leftKerningGroup = C;
note = uni1ED6;
rightKerningGroup = O;
unicode = 1ED6;
},
{
glyphname = uni020C;
lastChange = "2019-09-24 19:39:11 +0000";
layers = (
{
hints = (
{
horizontal = 1;
place = "{0, 142}";
type = Stem;
},
{
horizontal = 1;
place = "{595, 142}";
type = Stem;
},
{
horizontal = 1;
place = "{795, 157}";
type = Stem;
},
{
place = "{50, 187}";
type = Stem;
},
{
place = "{518, 186}";
type = Stem;
},
{
horizontal = 1;
place = "{0, 142}";
type = Stem;
},
{
horizontal = 1;
place = "{595, 142}";
type = Stem;
},
{
place = "{50, 187}";
type = Stem;
},
{
place = "{518, 186}";
type = Stem;
},
{
horizontal = 1;
place = "{795, 157}";
type = Stem;
},
{
place = "{-375.52, 497}";
type = Stem;
},
{
horizontal = 1;
place = "{795, 157}";
type = Stem;
},
{
place = "{22.88, 287}";
type = Stem;
},
{
horizontal = 1;
place = "{795, 157}";
type = Stem;
},
{
place = "{-172.524, 287}";
type = Stem;
}
);
layerId = "D215EC84-7FFD-4436-99F3-284D9B779A16";
paths = (
{
closed = 1;
nodes = (
"595 0 LINE",
"726 111 LINE",
"816 626 LINE",
"725 737 LINE",
"289 737 LINE",
"158 626 LINE",
"68 111 LINE",
"159 0 LINE"
);
},
{
closed = 1;
nodes = (
"268 177 LINE",
"336 560 LINE",
"378 595 LINE",
"586 595 LINE",
"617 560 LINE",
"549 177 LINE",
"508 142 LINE",
"298 142 LINE"
);
},
{
closed = 1;
nodes = (
"452.476 795 LINE",
"375.476 952 LINE",
"204.476 952 LINE",
"333.476 795 LINE"
);
},
{
closed = 1;
nodes = (
"647.88 795 LINE",
"570.88 952 LINE",
"399.88 952 LINE",
"528.88 795 LINE"
);
}
);
width = 754;
}
);
leftKerningGroup = C;
note = uni020C;
rightKerningGroup = O;
unicode = 020C;
},
{
glyphname = Odieresis;
lastChange = "2019-09-24 19:39:11 +0000";
layers = (
{
hints = (
{
horizontal = 1;
place = "{0, 142}";
type = Stem;
},
{
horizontal = 1;
place = "{595, 142}";
type = Stem;
},
{
horizontal = 1;
place = "{795, 140}";
type = Stem;
},
{
place = "{147, 175}";
type = Stem;
},
{
place = "{432, 175}";
type = Stem;
},
{
place = "{50, 187}";
type = Stem;
},
{
place = "{518, 186}";
type = Stem;
},
{
horizontal = 1;
place = "{0, 142}";
type = Stem;
},
{
horizontal = 1;
place = "{595, 142}";
type = Stem;
},
{
place = "{50, 187}";
type = Stem;
},
{
place = "{518, 186}";
type = Stem;
},
{
horizontal = 1;
place = "{795, 140}";
type = Stem;
},
{
place = "{-427.989, 175}";
type = Stem;
},
{
place = "{-142.989, 175}";
type = Stem;
},
{
horizontal = 1;
place = "{795, 140}";
type = Stem;
},
{
place = "{-12.989, 187}";
type = Stem;
},
{
horizontal = 1;
place = "{795, 140}";
type = Stem;
},
{
place = "{260.161, 187}";
type = Stem;
}
);
layerId = "D215EC84-7FFD-4436-99F3-284D9B779A16";
paths = (
{
closed = 1;
nodes = (
"595 0 LINE",
"726 111 LINE",
"816 626 LINE",
"725 737 LINE",
"289 737 LINE",
"158 626 LINE",
"68 111 LINE",
"159 0 LINE"
);
},
{
closed = 1;
nodes = (
"268 177 LINE",
"336 560 LINE",
"378 595 LINE",
"586 595 LINE",
"617 560 LINE",
"549 177 LINE",
"508 142 LINE",
"298 142 LINE"
);
},
{
closed = 1;
nodes = (
"470.011 795 LINE",
"495.011 935 LINE",
"304.011 935 LINE",
"279.011 795 LINE"
);
},
{
closed = 1;
nodes = (
"743.161 795 LINE",
"768.161 935 LINE",
"577.161 935 LINE",
"552.161 795 LINE"
);
}
);
width = 754;
}
);
leftKerningGroup = C;
note = Odieresis;
rightKerningGroup = O;
unicode = 00D6;
},
{
glyphname = uni022A;
lastChange = "2019-09-24 19:39:11 +0000";
layers = (
{
guideLines = (
{
position = "{607, 967}";
}
);
hints = (
{
horizontal = 1;
place = "{0, 142}";
type = Stem;
},
{
horizontal = 1;
place = "{595, 142}";
type = Stem;
},
{
horizontal = 1;
place = "{795, 140}";
type = Stem;
},
{
horizontal = 1;
place = "{967, 118}";
type = Stem;
},
{
place = "{147, 175}";
type = Stem;
},
{
place = "{432, 175}";
type = Stem;
},
{
place = "{50, 187}";
type = Stem;
},
{
place = "{518, 186}";
type = Stem;
},
{
horizontal = 1;
place = "{0, 142}";
type = Stem;
},
{
horizontal = 1;
place = "{595, 142}";
type = Stem;
},
{
place = "{50, 187}";
type = Stem;
},
{
place = "{518, 186}";
type = Stem;
},
{
horizontal = 1;
place = "{795, 140}";
type = Stem;
},
{
place = "{-427.989, 175}";
type = Stem;
},
{
place = "{-142.989, 175}";
type = Stem;
},
{
horizontal = 1;
place = "{795, 140}";
type = Stem;
},
{
place = "{-12.989, 187}";
type = Stem;
},
{
horizontal = 1;
place = "{795, 140}";
type = Stem;
},
{
place = "{260.161, 187}";
type = Stem;
},
{
horizontal = 1;
place = "{966.223, 118}";
type = Stem;
},
{
place = "{-204.423, 460}";
type = Stem;
}
);
layerId = "D215EC84-7FFD-4436-99F3-284D9B779A16";
paths = (
{
closed = 1;
nodes = (
"595 0 LINE",
"726 111 LINE",
"816 626 LINE",
"725 737 LINE",
"289 737 LINE",
"158 626 LINE",
"68 111 LINE",
"159 0 LINE"
);
},
{
closed = 1;
nodes = (
"268 177 LINE",
"336 560 LINE",
"378 595 LINE",
"586 595 LINE",
"617 560 LINE",
"549 177 LINE",
"508 142 LINE",
"298 142 LINE"
);
},
{
closed = 1;
nodes = (
"470.011 795 LINE",
"495.011 935 LINE",
"304.011 935 LINE",
"279.011 795 LINE"
);
},
{
closed = 1;
nodes = (
"743.161 795 LINE",
"768.161 935 LINE",
"577.161 935 LINE",
"552.161 795 LINE"
);
},
{
closed = 1;
nodes = (
"773.577 966.223 LINE",
"794.577 1084.223 LINE",
"330.577 1084.223 LINE",
"309.577 966.223 LINE"
);
}
);
width = 754;
}
);
leftKerningGroup = C;
note = uni022A;
rightKerningGroup = O;
unicode = 022A;
},
{
glyphname = uni0230;
lastChange = "2019-09-24 19:39:11 +0000";
layers = (
{
hints = (
{
horizontal = 1;
place = "{0, 142}";
type = Stem;
},
{
horizontal = 1;
place = "{595, 142}";
type = Stem;
},
{
horizontal = 1;
place = "{795, 140}";
type = Stem;
},
{
horizontal = 1;
place = "{967, 118}";
type = Stem;
},
{
place = "{50, 187}";
type = Stem;
},
{
place = "{283.5, 187}";
type = Stem;
},
{
place = "{518, 186}";
type = Stem;
},
{
horizontal = 1;
place = "{0, 142}";
type = Stem;
},
{
horizontal = 1;
place = "{595, 142}";
type = Stem;
},
{
place = "{50, 187}";
type = Stem;
},
{
place = "{518, 186}";
type = Stem;
},
{
horizontal = 1;
place = "{966.223, 118}";
type = Stem;
},
{
place = "{-204.423, 460}";
type = Stem;
},
{
horizontal = 1;
place = "{795, 140}";
type = Stem;
},
{
place = "{129.935, 187}";
type = Stem;
}
);
layerId = "D215EC84-7FFD-4436-99F3-284D9B779A16";
paths = (
{
closed = 1;
nodes = (
"595 0 LINE",
"726 111 LINE",
"816 626 LINE",
"725 737 LINE",
"289 737 LINE",
"158 626 LINE",
"68 111 LINE",
"159 0 LINE"
);
},
{
closed = 1;
nodes = (
"268 177 LINE",
"336 560 LINE",
"378 595 LINE",
"586 595 LINE",
"617 560 LINE",
"549 177 LINE",
"508 142 LINE",
"298 142 LINE"
);
},
{
closed = 1;
nodes = (
"612.935 795 LINE",
"637.935 935 LINE",
"446.935 935 LINE",
"421.935 795 LINE"
);
},
{
closed = 1;
nodes = (
"773.577 966.223 LINE",
"794.577 1084.223 LINE",
"330.577 1084.223 LINE",
"309.577 966.223 LINE"
);
}
);
width = 754;
}
);
leftKerningGroup = C;
note = uni0230;
rightKerningGroup = O;
unicode = 0230;
},
{
glyphname = uni1ECC;
lastChange = "2019-09-24 19:39:11 +0000";
layers = (
{
hints = (
{
horizontal = 1;
place = "{-197, 140}";
type = Stem;
},
{
horizontal = 1;
place = "{0, 142}";
type = Stem;
},
{
horizontal = 1;
place = "{595, 142}";
type = Stem;
},
{
place = "{50, 187}";
type = Stem;
},
{
place = "{283.5, 187}";
type = Stem;
},
{
place = "{518, 186}";
type = Stem;
},
{
horizontal = 1;
place = "{0, 142}";
type = Stem;
},
{
horizontal = 1;
place = "{595, 142}";
type = Stem;
},
{
place = "{50, 187}";
type = Stem;
},
{
place = "{518, 186}";
type = Stem;
},
{
horizontal = 1;
place = "{-197, 140}";
type = Stem;
},
{
place = "{-30.802, 187}";
type = Stem;
},
{
horizontal = 1;
place = "{-197, 140}";
type = Stem;
},
{
place = "{-45.802, 187}";
type = Stem;
}
);
layerId = "D215EC84-7FFD-4436-99F3-284D9B779A16";
paths = (
{
closed = 1;
nodes = (
"595 0 LINE",
"726 111 LINE",
"816 626 LINE",
"725 737 LINE",
"289 737 LINE",
"158 626 LINE",
"68 111 LINE",
"159 0 LINE"
);
},
{
closed = 1;
nodes = (
"437.198 -197 LINE",
"462.198 -57 LINE",
"271.198 -57 LINE",
"246.198 -197 LINE"
);
},
{
closed = 1;
nodes = (
"268 177 LINE",
"336 560 LINE",
"378 595 LINE",
"586 595 LINE",
"617 560 LINE",
"549 177 LINE",
"508 142 LINE",
"298 142 LINE"
);
}
);
width = 754;
}
);
leftKerningGroup = C;
note = uni1ECC;
rightKerningGroup = O;
unicode = 1ECC;
},
{
glyphname = Ograve;
lastChange = "2019-09-24 19:39:11 +0000";
layers = (
{
hints = (
{
horizontal = 1;
place = "{0, 142}";
type = Stem;
},
{
horizontal = 1;
place = "{595, 142}";
type = Stem;
},
{
horizontal = 1;
place = "{795, 157}";
type = Stem;
},
{
place = "{50, 187}";
type = Stem;
},
{
place = "{518, 186}";
type = Stem;
},
{
horizontal = 1;
place = "{0, 142}";
type = Stem;
},
{
horizontal = 1;
place = "{595, 142}";
type = Stem;
},
{
place = "{50, 187}";
type = Stem;
},
{
place = "{518, 186}";
type = Stem;
},
{
horizontal = 1;
place = "{795, 157}";
type = Stem;
},
{
place = "{-58.5, 287}";
type = Stem;
}
);
layerId = "D215EC84-7FFD-4436-99F3-284D9B779A16";
paths = (
{
closed = 1;
nodes = (
"595 0 LINE",
"726 111 LINE",
"816 626 LINE",
"725 737 LINE",
"289 737 LINE",
"158 626 LINE",
"68 111 LINE",
"159 0 LINE"
);
},
{
closed = 1;
nodes = (
"268 177 LINE",
"336 560 LINE",
"378 595 LINE",
"586 595 LINE",
"617 560 LINE",
"549 177 LINE",
"508 142 LINE",
"298 142 LINE"
);
},
{
closed = 1;
nodes = (
"566.5 795 LINE",
"489.5 952 LINE",
"318.5 952 LINE",
"447.5 795 LINE"
);
}
);
width = 754;
}
);
leftKerningGroup = C;
note = Ograve;
rightKerningGroup = O;
unicode = 00D2;
},
{
glyphname = uni1ECE;
lastChange = "2019-09-24 19:39:11 +0000";
layers = (
{
hints = (
{
horizontal = 1;
place = "{0, 142}";
type = Stem;
},
{
horizontal = 1;
place = "{595, 142}";
type = Stem;
},
{
horizontal = 1;
place = "{795, 80}";
type = Stem;
},
{
horizontal = 1;
place = "{921, 100}";
type = Stem;
},
{
place = "{50, 187}";
type = Stem;
},
{
place = "{312, 127}";
type = Stem;
},
{
place = "{518, 186}";
type = Stem;
},
{
place = "{242, 113}";
type = Stem;
},
{
place = "{387, 125}";
type = Stem;
},
{
horizontal = 1;
place = "{0, 142}";
type = Stem;
},
{
horizontal = 1;
place = "{595, 142}";
type = Stem;
},
{
place = "{50, 187}";
type = Stem;
},
{
place = "{518, 186}";
type = Stem;
},
{
horizontal = 1;
place = "{795, 80}";
type = Stem;
},
{
horizontal = 1;
place = "{921, 100}";
type = Stem;
},
{
place = "{112, 127}";
type = Stem;
},
{
place = "{42, 113}";
type = Stem;
},
{
place = "{187, 125}";
type = Stem;
}
);
layerId = "D215EC84-7FFD-4436-99F3-284D9B779A16";
paths = (
{
closed = 1;
nodes = (
"595 0 LINE",
"726 111 LINE",
"816 626 LINE",
"725 737 LINE",
"289 737 LINE",
"158 626 LINE",
"68 111 LINE",
"159 0 LINE"
);
},
{
closed = 1;
nodes = (
"268 177 LINE",
"336 560 LINE",
"378 595 LINE",
"586 595 LINE",
"617 560 LINE",
"549 177 LINE",
"508 142 LINE",
"298 142 LINE"
);
},
{
closed = 1;
nodes = (
"574 795 LINE",
"581 836 LINE",
"662 878 LINE",
"680 981 LINE",
"644 1021 LINE",
"456 1021 LINE",
"406 981 LINE",
"395 921 LINE",
"510 921 LINE",
"516 950 LINE",
"548 950 LINE",
"542 921 LINE",
"457 875 LINE",
"443 795 LINE"
);
}
);
width = 754;
}
);
leftKerningGroup = C;
note = uni1ECE;
rightKerningGroup = O;
unicode = 1ECE;
},
{
glyphname = Ohorn;
lastChange = "2019-10-06 16:22:08 +0000";
layers = (
{
hints = (
{
horizontal = 1;
place = "{0, 142}";
type = Stem;
},
{
horizontal = 1;
place = "{596, 88}";
type = Stem;
},
{
place = "{50, 187}";
type = Stem;
},
{
place = "{518, 186}";
type = Stem;
},
{
horizontal = 1;
place = "{595, 142}";
type = Stem;
},
{
horizontal = 1;
place = "{0, 142}";
type = Stem;
},
{
horizontal = 1;
place = "{595, 142}";
type = Stem;
},
{
place = "{50, 187}";
type = Stem;
},
{
place = "{518, 186}";
type = Stem;
},
{
horizontal = 1;
place = "{596.038, 88}";
type = Stem;
},
{
place = "{393.464, 262}";
type = Stem;
}
);
layerId = "D215EC84-7FFD-4436-99F3-284D9B779A16";
paths = (
{
closed = 1;
nodes = (
"595 0 LINE",
"726 111 LINE",
"810.764 596.038 LINE",
"905.464 596.038 LINE",
"1048.464 802.038 LINE",
"856.464 802.038 LINE",
"817.464 684.038 LINE",
"768.419 684.038 LINE",
"725 737 LINE",
"289 737 LINE",
"158 626 LINE",
"68 111 LINE",
"159 0 LINE"
);
},
{
closed = 1;
nodes = (
"268 177 LINE",
"336 560 LINE",
"378 595 LINE",
"586 595 LINE",
"617 560 LINE",
"549 177 LINE",
"508 142 LINE",
"298 142 LINE"
);
}
);
width = 754;
}
);
leftKerningGroup = C;
note = Ohorn;
rightKerningGroup = O;
unicode = 01A0;
},
{
glyphname = uni1EDA;
lastChange = "2019-10-06 16:22:08 +0000";
layers = (
{
hints = (
{
horizontal = 1;
place = "{0, 142}";
type = Stem;
},
{
horizontal = 1;
place = "{595, 142}";
type = Stem;
},
{
horizontal = 1;
place = "{795, 157}";
type = Stem;
},
{
place = "{50, 187}";
type = Stem;
},
{
place = "{518, 186}";
type = Stem;
},
{
horizontal = 1;
place = "{596, 88}";
type = Stem;
},
{
horizontal = 1;
place = "{0, 142}";
type = Stem;
},
{
horizontal = 1;
place = "{596, 88}";
type = Stem;
},
{
place = "{50, 187}";
type = Stem;
},
{
place = "{518, 186}";
type = Stem;
},
{
horizontal = 1;
place = "{595, 142}";
type = Stem;
},
{
horizontal = 1;
place = "{0, 142}";
type = Stem;
},
{
horizontal = 1;
place = "{595, 142}";
type = Stem;
},
{
place = "{50, 187}";
type = Stem;
},
{
place = "{518, 186}";
type = Stem;
},
{
horizontal = 1;
place = "{596.038, 88}";
type = Stem;
},
{
place = "{393.464, 262}";
type = Stem;
},
{
horizontal = 1;
place = "{795, 157}";
type = Stem;
},
{
place = "{92, 287}";
type = Stem;
}
);
layerId = "D215EC84-7FFD-4436-99F3-284D9B779A16";
paths = (
{
closed = 1;
nodes = (
"595 0 LINE",
"726 111 LINE",
"810.764 596.038 LINE",
"905.464 596.038 LINE",
"1048.464 802.038 LINE",
"856.464 802.038 LINE",
"817.464 684.038 LINE",
"768.419 684.038 LINE",
"725 737 LINE",
"289 737 LINE",
"158 626 LINE",
"68 111 LINE",
"159 0 LINE"
);
},
{
closed = 1;
nodes = (
"268 177 LINE",
"336 560 LINE",
"378 595 LINE",
"586 595 LINE",
"617 560 LINE",
"549 177 LINE",
"508 142 LINE",
"298 142 LINE"
);
},
{
closed = 1;
nodes = (
"582.045 795 LINE",
"760.045 952 LINE",
"563 952 LINE",
"452 795 LINE"
);
}
);
width = 754;
}
);
leftKerningGroup = C;
note = uni1EDA;
rightKerningGroup = O;
unicode = 1EDA;
},
{
glyphname = uni1EE2;
lastChange = "2019-10-06 16:22:08 +0000";
layers = (
{
hints = (
{
horizontal = 1;
place = "{-197, 140}";
type = Stem;
},
{
horizontal = 1;
place = "{0, 142}";
type = Stem;
},
{
horizontal = 1;
place = "{596, 88}";
type = Stem;
},
{
place = "{50, 187}";
type = Stem;
},
{
place = "{283.5, 187}";
type = Stem;
},
{
place = "{518, 186}";
type = Stem;
},
{
horizontal = 1;
place = "{595, 142}";
type = Stem;
},
{
horizontal = 1;
place = "{0, 142}";
type = Stem;
},
{
horizontal = 1;
place = "{596, 88}";
type = Stem;
},
{
place = "{50, 187}";
type = Stem;
},
{
place = "{518, 186}";
type = Stem;
},
{
horizontal = 1;
place = "{595, 142}";
type = Stem;
},
{
horizontal = 1;
place = "{0, 142}";
type = Stem;
},
{
horizontal = 1;
place = "{595, 142}";
type = Stem;
},
{
place = "{50, 187}";
type = Stem;
},
{
place = "{518, 186}";
type = Stem;
},
{
horizontal = 1;
place = "{596.038, 88}";
type = Stem;
},
{
place = "{393.464, 262}";
type = Stem;
},
{
horizontal = 1;
place = "{-197, 140}";
type = Stem;
},
{
place = "{-30.802, 187}";
type = Stem;
},
{
horizontal = 1;
place = "{-197, 140}";
type = Stem;
},
{
place = "{-45.802, 187}";
type = Stem;
}
);
layerId = "D215EC84-7FFD-4436-99F3-284D9B779A16";
paths = (
{
closed = 1;
nodes = (
"595 0 LINE",
"726 111 LINE",
"810.764 596.038 LINE",
"905.464 596.038 LINE",
"1048.464 802.038 LINE",
"856.464 802.038 LINE",
"817.464 684.038 LINE",
"768.419 684.038 LINE",
"725 737 LINE",
"289 737 LINE",
"158 626 LINE",
"68 111 LINE",
"159 0 LINE"
);
},
{
closed = 1;
nodes = (
"437.198 -197 LINE",
"462.198 -57 LINE",
"271.198 -57 LINE",
"246.198 -197 LINE"
);
},
{
closed = 1;
nodes = (
"268 177 LINE",
"336 560 LINE",
"378 595 LINE",
"586 595 LINE",
"617 560 LINE",
"549 177 LINE",
"508 142 LINE",
"298 142 LINE"
);
}
);
width = 754;
}
);
leftKerningGroup = C;
note = uni1EE2;
rightKerningGroup = O;
unicode = 1EE2;
},
{
glyphname = uni1EDC;
lastChange = "2019-10-06 16:22:08 +0000";
layers = (
{
hints = (
{
horizontal = 1;
place = "{0, 142}";
type = Stem;
},
{
horizontal = 1;
place = "{595, 142}";
type = Stem;
},
{
horizontal = 1;
place = "{795, 157}";
type = Stem;
},
{
place = "{50, 187}";
type = Stem;
},
{
place = "{518, 186}";
type = Stem;
},
{
horizontal = 1;
place = "{596, 88}";
type = Stem;
},
{
horizontal = 1;
place = "{0, 142}";
type = Stem;
},
{
horizontal = 1;
place = "{596, 88}";
type = Stem;
},
{
place = "{50, 187}";
type = Stem;
},
{
place = "{518, 186}";
type = Stem;
},
{
horizontal = 1;
place = "{595, 142}";
type = Stem;
},
{
horizontal = 1;
place = "{0, 142}";
type = Stem;
},
{
horizontal = 1;
place = "{595, 142}";
type = Stem;
},
{
place = "{50, 187}";
type = Stem;
},
{
place = "{518, 186}";
type = Stem;
},
{
horizontal = 1;
place = "{596.038, 88}";
type = Stem;
},
{
place = "{393.464, 262}";
type = Stem;
},
{
horizontal = 1;
place = "{795, 157}";
type = Stem;
},
{
place = "{-58.5, 287}";
type = Stem;
}
);
layerId = "D215EC84-7FFD-4436-99F3-284D9B779A16";
paths = (
{
closed = 1;
nodes = (
"595 0 LINE",
"726 111 LINE",
"810.764 596.038 LINE",
"905.464 596.038 LINE",
"1048.464 802.038 LINE",
"856.464 802.038 LINE",
"817.464 684.038 LINE",
"768.419 684.038 LINE",
"725 737 LINE",
"289 737 LINE",
"158 626 LINE",
"68 111 LINE",
"159 0 LINE"
);
},
{
closed = 1;
nodes = (
"268 177 LINE",
"336 560 LINE",
"378 595 LINE",
"586 595 LINE",
"617 560 LINE",
"549 177 LINE",
"508 142 LINE",
"298 142 LINE"
);
},
{
closed = 1;
nodes = (
"566.5 795 LINE",
"489.5 952 LINE",
"318.5 952 LINE",
"447.5 795 LINE"
);
}
);
width = 754;
}
);
leftKerningGroup = C;
note = uni1EDC;
rightKerningGroup = O;
unicode = 1EDC;
},
{
glyphname = uni1EDE;
lastChange = "2019-10-06 16:22:08 +0000";
layers = (
{
hints = (
{
horizontal = 1;
place = "{0, 142}";
type = Stem;
},
{
horizontal = 1;
place = "{595, 142}";
type = Stem;
},
{
horizontal = 1;
place = "{921, 100}";
type = Stem;
},
{
place = "{50, 187}";
type = Stem;
},
{
place = "{312, 127}";
type = Stem;
},
{
place = "{518, 186}";
type = Stem;
},
{
horizontal = 1;
place = "{795, 80}";
type = Stem;
},
{
place = "{387, 125}";
type = Stem;
},
{
place = "{242, 113}";
type = Stem;
},
{
horizontal = 1;
place = "{596, 88}";
type = Stem;
},
{
horizontal = 1;
place = "{0, 142}";
type = Stem;
},
{
horizontal = 1;
place = "{596, 88}";
type = Stem;
},
{
place = "{50, 187}";
type = Stem;
},
{
place = "{518, 186}";
type = Stem;
},
{
horizontal = 1;
place = "{595, 142}";
type = Stem;
},
{
horizontal = 1;
place = "{0, 142}";
type = Stem;
},
{
horizontal = 1;
place = "{595, 142}";
type = Stem;
},
{
place = "{50, 187}";
type = Stem;
},
{
place = "{518, 186}";
type = Stem;
},
{
horizontal = 1;
place = "{596.038, 88}";
type = Stem;
},
{
place = "{393.464, 262}";
type = Stem;
},
{
horizontal = 1;
place = "{795, 80}";
type = Stem;
},
{
horizontal = 1;
place = "{921, 100}";
type = Stem;
},
{
place = "{112, 127}";
type = Stem;
},
{
place = "{42, 113}";
type = Stem;
},
{
place = "{187, 125}";
type = Stem;
}
);
layerId = "D215EC84-7FFD-4436-99F3-284D9B779A16";
paths = (
{
closed = 1;
nodes = (
"595 0 LINE",
"726 111 LINE",
"810.764 596.038 LINE",
"905.464 596.038 LINE",
"1048.464 802.038 LINE",
"856.464 802.038 LINE",
"817.464 684.038 LINE",
"768.419 684.038 LINE",
"725 737 LINE",
"289 737 LINE",
"158 626 LINE",
"68 111 LINE",
"159 0 LINE"
);
},
{
closed = 1;
nodes = (
"268 177 LINE",
"336 560 LINE",
"378 595 LINE",
"586 595 LINE",
"617 560 LINE",
"549 177 LINE",
"508 142 LINE",
"298 142 LINE"
);
},
{
closed = 1;
nodes = (
"574 795 LINE",
"581 836 LINE",
"662 878 LINE",
"680 981 LINE",
"644 1021 LINE",
"456 1021 LINE",
"406 981 LINE",
"395 921 LINE",
"510 921 LINE",
"516 950 LINE",
"548 950 LINE",
"542 921 LINE",
"457 875 LINE",
"443 795 LINE"
);
}
);
width = 754;
}
);
leftKerningGroup = C;
note = uni1EDE;
rightKerningGroup = O;
unicode = 1EDE;
},
{
glyphname = uni1EE0;
lastChange = "2019-10-06 16:22:08 +0000";
layers = (
{
hints = (
{
horizontal = 1;
place = "{0, 142}";
type = Stem;
},
{
horizontal = 1;
place = "{595, 142}";
type = Stem;
},
{
horizontal = 1;
place = "{802, 150}";
type = Stem;
},
{
place = "{155, 125}";
type = Stem;
},
{
place = "{518, 186}";
type = Stem;
},
{
horizontal = 1;
place = "{795, 151}";
type = Stem;
},
{
place = "{50, 187}";
type = Stem;
},
{
place = "{482, 125.5}";
type = Stem;
},
{
horizontal = 1;
place = "{596, 88}";
type = Stem;
},
{
horizontal = 1;
place = "{0, 142}";
type = Stem;
},
{
horizontal = 1;
place = "{596, 88}";
type = Stem;
},
{
place = "{50, 187}";
type = Stem;
},
{
place = "{518, 186}";
type = Stem;
},
{
horizontal = 1;
place = "{595, 142}";
type = Stem;
},
{
horizontal = 1;
place = "{0, 142}";
type = Stem;
},
{
horizontal = 1;
place = "{595, 142}";
type = Stem;
},
{
place = "{50, 187}";
type = Stem;
},
{
place = "{518, 186}";
type = Stem;
},
{
horizontal = 1;
place = "{596.038, 88}";
type = Stem;
},
{
place = "{393.464, 262}";
type = Stem;
},
{
horizontal = 1;
place = "{802, 150}";
type = Stem;
},
{
place = "{-269.642, 125}";
type = Stem;
},
{
place = "{57.358, 125.5}";
type = Stem;
},
{
horizontal = 1;
place = "{795, 151}";
type = Stem;
}
);
layerId = "D215EC84-7FFD-4436-99F3-284D9B779A16";
paths = (
{
closed = 1;
nodes = (
"595 0 LINE",
"726 111 LINE",
"810.764 596.038 LINE",
"905.464 596.038 LINE",
"1048.464 802.038 LINE",
"856.464 802.038 LINE",
"817.464 684.038 LINE",
"768.419 684.038 LINE",
"725 737 LINE",
"289 737 LINE",
"158 626 LINE",
"68 111 LINE",
"159 0 LINE"
);
},
{
closed = 1;
nodes = (
"268 177 LINE",
"336 560 LINE",
"378 595 LINE",
"586 595 LINE",
"617 560 LINE",
"549 177 LINE",
"508 142 LINE",
"298 142 LINE"
);
},
{
closed = 1;
nodes = (
"662.358 795 LINE",
"745.358 869 LINE",
"758.358 946 LINE",
"630.358 946 LINE",
"625.358 919 LINE",
"606.358 893 LINE",
"586.358 893 LINE",
"550.358 952 LINE",
"370.358 952 LINE",
"289.358 881 LINE",
"274.358 802 LINE",
"402.358 802 LINE",
"407.358 827 LINE",
"426.358 858 LINE",
"446.358 858 LINE",
"482.358 795 LINE"
);
}
);
width = 754;
}
);
leftKerningGroup = C;
note = uni1EE0;
rightKerningGroup = O;
unicode = 1EE0;
},
{
glyphname = Ohungarumlaut;
lastChange = "2019-09-24 19:39:11 +0000";
layers = (
{
hints = (
{
horizontal = 1;
place = "{0, 142}";
type = Stem;
},
{
horizontal = 1;
place = "{595, 142}";
type = Stem;
},
{
horizontal = 1;
place = "{795, 157}";
type = Stem;
},
{
place = "{50, 187}";
type = Stem;
},
{
place = "{518, 186}";
type = Stem;
},
{
horizontal = 1;
place = "{0, 142}";
type = Stem;
},
{
horizontal = 1;
place = "{595, 142}";
type = Stem;
},
{
place = "{50, 187}";
type = Stem;
},
{
place = "{518, 186}";
type = Stem;
},
{
horizontal = 1;
place = "{795, 157}";
type = Stem;
},
{
place = "{-237.359, 497}";
type = Stem;
},
{
horizontal = 1;
place = "{795, 157}";
type = Stem;
},
{
place = "{211.677, 287}";
type = Stem;
},
{
horizontal = 1;
place = "{795, 157}";
type = Stem;
},
{
place = "{-18.359, 287}";
type = Stem;
}
);
layerId = "D215EC84-7FFD-4436-99F3-284D9B779A16";
paths = (
{
closed = 1;
nodes = (
"595 0 LINE",
"726 111 LINE",
"816 626 LINE",
"725 737 LINE",
"289 737 LINE",
"158 626 LINE",
"68 111 LINE",
"159 0 LINE"
);
},
{
closed = 1;
nodes = (
"268 177 LINE",
"336 560 LINE",
"378 595 LINE",
"586 595 LINE",
"617 560 LINE",
"549 177 LINE",
"508 142 LINE",
"298 142 LINE"
);
},
{
closed = 1;
nodes = (
"471.686 795 LINE",
"649.686 952 LINE",
"452.641 952 LINE",
"341.641 795 LINE"
);
},
{
closed = 1;
nodes = (
"701.722 795 LINE",
"879.722 952 LINE",
"682.677 952 LINE",
"571.677 795 LINE"
);
}
);
width = 754;
}
);
leftKerningGroup = C;
note = Ohungarumlaut;
rightKerningGroup = O;
unicode = 0150;
},
{
glyphname = uni020E;
lastChange = "2019-10-06 15:59:15 +0000";
layers = (
{
hints = (
{
horizontal = 1;
place = "{0, 142}";
type = Stem;
},
{
horizontal = 1;
place = "{595, 142}";
type = Stem;
},
{
horizontal = 1;
place = "{853, 93}";
type = Stem;
},
{
place = "{183.5, 132}";
type = Stem;
},
{
place = "{438.5, 132}";
type = Stem;
},
{
place = "{50, 187}";
type = Stem;
},
{
place = "{518, 186}";
type = Stem;
},
{
horizontal = 1;
place = "{0, 142}";
type = Stem;
},
{
horizontal = 1;
place = "{595, 142}";
type = Stem;
},
{
place = "{50, 187}";
type = Stem;
},
{
place = "{518, 186}";
type = Stem;
},
{
horizontal = 1;
place = "{853, 93}";
type = Stem;
},
{
place = "{-148.606, 132}";
type = Stem;
},
{
place = "{106.394, 132}";
type = Stem;
},
{
horizontal = 1;
place = "{947, -94}";
type = Stem;
},
{
place = "{1195.394, -132}";
type = Stem;
},
{
place = "{940.394, -132}";
type = Stem;
},
{
horizontal = 1;
place = "{869, -74}";
type = Stem;
}
);
layerId = "D215EC84-7FFD-4436-99F3-284D9B779A16";
paths = (
{
closed = 1;
nodes = (
"595 0 LINE",
"726 111 LINE",
"816 626 LINE",
"725 737 LINE",
"289 737 LINE",
"158 626 LINE",
"68 111 LINE",
"159 0 LINE"
);
},
{
closed = 1;
nodes = (
"268 177 LINE",
"336 560 LINE",
"378 595 LINE",
"586 595 LINE",
"617 560 LINE",
"549 177 LINE",
"508 142 LINE",
"298 142 LINE"
);
},
{
closed = 1;
nodes = (
"457.394 795 LINE",
"465.394 840 LINE",
"481.394 853 LINE",
"572.394 853 LINE",
"584.394 840 LINE",
"576.394 795 LINE",
"712.394 795 LINE",
"725.394 869 LINE",
"654.394 947 LINE",
"434.394 947 LINE",
"334.394 869 LINE",
"321.394 795 LINE"
);
}
);
width = 754;
}
);
leftKerningGroup = C;
note = uni020E;
rightKerningGroup = O;
unicode = 020E;
},
{
glyphname = Omacron;
lastChange = "2019-09-24 19:39:11 +0000";
layers = (
{
hints = (
{
horizontal = 1;
place = "{0, 142}";
type = Stem;
},
{
horizontal = 1;
place = "{595, 142}";
type = Stem;
},
{
horizontal = 1;
place = "{795, 118}";
type = Stem;
},
{
place = "{50, 187}";
type = Stem;
},
{
place = "{518, 186}";
type = Stem;
},
{
horizontal = 1;
place = "{0, 142}";
type = Stem;
},
{
horizontal = 1;
place = "{595, 142}";
type = Stem;
},
{
place = "{50, 187}";
type = Stem;
},
{
place = "{518, 186}";
type = Stem;
},
{
horizontal = 1;
place = "{795, 118}";
type = Stem;
},
{
place = "{-234.27, 460}";
type = Stem;
}
);
layerId = "D215EC84-7FFD-4436-99F3-284D9B779A16";
paths = (
{
closed = 1;
nodes = (
"595 0 LINE",
"726 111 LINE",
"816 626 LINE",
"725 737 LINE",
"289 737 LINE",
"158 626 LINE",
"68 111 LINE",
"159 0 LINE"
);
},
{
closed = 1;
nodes = (
"268 177 LINE",
"336 560 LINE",
"378 595 LINE",
"586 595 LINE",
"617 560 LINE",
"549 177 LINE",
"508 142 LINE",
"298 142 LINE"
);
},
{
closed = 1;
nodes = (
"743.73 795 LINE",
"764.73 913 LINE",
"300.73 913 LINE",
"279.73 795 LINE"
);
}
);
width = 754;
}
);
leftKerningGroup = C;
note = Omacron;
rightKerningGroup = O;
unicode = 014C;
},
{
glyphname = uni01EA;
lastChange = "2019-10-06 16:06:15 +0000";
layers = (
{
hints = (
{
horizontal = 1;
place = "{0, 142}";
type = Stem;
},
{
horizontal = 1;
place = "{595, 142}";
type = Stem;
},
{
place = "{50, 187}";
type = Stem;
},
{
place = "{518, 186}";
type = Stem;
},
{
horizontal = 1;
place = "{-180, 102}";
type = Stem;
},
{
place = "{456, 149}";
type = Stem;
},
{
horizontal = 1;
place = "{0, 142}";
type = Stem;
},
{
horizontal = 1;
place = "{595, 142}";
type = Stem;
},
{
place = "{50, 187}";
type = Stem;
},
{
place = "{518, 186}";
type = Stem;
},
{
horizontal = 1;
place = "{-180, 102}";
type = Stem;
},
{
horizontal = 1;
place = "{-33, 33}";
type = Stem;
},
{
place = "{217.08, 150}";
type = Stem;
}
);
layerId = "D215EC84-7FFD-4436-99F3-284D9B779A16";
paths = (
{
closed = 1;
nodes = (
"575 -180 LINE",
"593 -78 LINE",
"565 -78 LINE",
"550 -60 LINE",
"555 -33 LINE",
"726 111 LINE",
"816 626 LINE",
"725 737 LINE",
"289 737 LINE",
"158 626 LINE",
"68 111 LINE",
"159 0 LINE",
"502 0 LINE",
"451 -33 LINE",
"439.078 -101.621 LINE",
"511.532 -180 LINE"
);
},
{
closed = 1;
nodes = (
"268 177 LINE",
"336 560 LINE",
"378 595 LINE",
"586 595 LINE",
"617 560 LINE",
"549 177 LINE",
"508 142 LINE",
"298 142 LINE"
);
}
);
width = 754;
}
);
leftKerningGroup = C;
note = uni01EA;
rightKerningGroup = O;
unicode = 01EA;
},
{
glyphname = Oslash;
lastChange = "2019-10-06 15:59:54 +0000";
layers = (
{
hints = (
{
horizontal = 1;
place = "{0, 142}";
type = Stem;
},
{
horizontal = 1;
place = "{595, 142}";
type = Stem;
},
{
place = "{50, 187}";
type = Stem;
},
{
place = "{518, 186}";
type = Stem;
},
{
horizontal = 1;
place = "{0, 142}";
type = Stem;
},
{
horizontal = 1;
place = "{595, 142}";
type = Stem;
},
{
place = "{50, 187}";
type = Stem;
},
{
place = "{518, 186}";
type = Stem;
}
);
layerId = "D215EC84-7FFD-4436-99F3-284D9B779A16";
paths = (
{
closed = 1;
nodes = (
"595 0 LINE",
"726 111 LINE",
"816 626 LINE",
"725 737 LINE",
"289 737 LINE",
"158 626 LINE",
"68 111 LINE",
"159 0 LINE"
);
},
{
closed = 1;
nodes = (
"602.141 476.309 LINE",
"549 177 LINE",
"508 142 LINE",
"336.114 142 LINE"
);
},
{
closed = 1;
nodes = (
"336 560 LINE",
"378 595 LINE",
"548.2 595 LINE",
"283.515 264.387 LINE"
);
}
);
width = 754;
}
);
leftKerningGroup = C;
note = Oslash;
rightKerningGroup = O;
unicode = 00D8;
},
{
glyphname = Oslashacute;
lastChange = "2019-10-06 15:59:51 +0000";
layers = (
{
hints = (
{
horizontal = 1;
place = "{0, 142}";
type = Stem;
},
{
horizontal = 1;
place = "{595, 142}";
type = Stem;
},
{
horizontal = 1;
place = "{795, 157}";
type = Stem;
},
{
place = "{50, 187}";
type = Stem;
},
{
place = "{518, 186}";
type = Stem;
},
{
horizontal = 1;
place = "{0, 142}";
type = Stem;
},
{
horizontal = 1;
place = "{595, 142}";
type = Stem;
},
{
place = "{50, 187}";
type = Stem;
},
{
place = "{518, 186}";
type = Stem;
},
{
horizontal = 1;
place = "{0, 142}";
type = Stem;
},
{
horizontal = 1;
place = "{595, 142}";
type = Stem;
},
{
place = "{50, 187}";
type = Stem;
},
{
place = "{518, 186}";
type = Stem;
},
{
horizontal = 1;
place = "{795, 157}";
type = Stem;
},
{
place = "{92, 287}";
type = Stem;
}
);
layerId = "D215EC84-7FFD-4436-99F3-284D9B779A16";
paths = (
{
closed = 1;
nodes = (
"595 0 LINE",
"726 111 LINE",
"816 626 LINE",
"725 737 LINE",
"289 737 LINE",
"158 626 LINE",
"68 111 LINE",
"159 0 LINE"
);
},
{
closed = 1;
nodes = (
"602.141 476.309 LINE",
"549 177 LINE",
"508 142 LINE",
"336.114 142 LINE"
);
},
{
closed = 1;
nodes = (
"336 560 LINE",
"378 595 LINE",
"548.2 595 LINE",
"283.515 264.387 LINE"
);
},
{
closed = 1;
nodes = (
"582.045 795 LINE",
"760.045 952 LINE",
"563 952 LINE",
"452 795 LINE"
);
}
);
width = 754;
}
);
leftKerningGroup = C;
note = Oslashacute;
rightKerningGroup = O;
unicode = 01FE;
},
{
glyphname = Otilde;
lastChange = "2019-09-24 19:39:11 +0000";
layers = (
{
hints = (
{
horizontal = 1;
place = "{0, 142}";
type = Stem;
},
{
horizontal = 1;
place = "{595, 142}";
type = Stem;
},
{
horizontal = 1;
place = "{802, 150}";
type = Stem;
},
{
place = "{155, 125}";
type = Stem;
},
{
place = "{518, 186}";
type = Stem;
},
{
horizontal = 1;
place = "{795, 151}";
type = Stem;
},
{
place = "{50, 187}";
type = Stem;
},
{
place = "{482, 125.5}";
type = Stem;
},
{
horizontal = 1;
place = "{0, 142}";
type = Stem;
},
{
horizontal = 1;
place = "{595, 142}";
type = Stem;
},
{
place = "{50, 187}";
type = Stem;
},
{
place = "{518, 186}";
type = Stem;
},
{
horizontal = 1;
place = "{802, 150}";
type = Stem;
},
{
place = "{-269.642, 125}";
type = Stem;
},
{
place = "{57.358, 125.5}";
type = Stem;
},
{
horizontal = 1;
place = "{795, 151}";
type = Stem;
}
);
layerId = "D215EC84-7FFD-4436-99F3-284D9B779A16";
paths = (
{
closed = 1;
nodes = (
"595 0 LINE",
"726 111 LINE",
"816 626 LINE",
"725 737 LINE",
"289 737 LINE",
"158 626 LINE",
"68 111 LINE",
"159 0 LINE"
);
},
{
closed = 1;
nodes = (
"268 177 LINE",
"336 560 LINE",
"378 595 LINE",
"586 595 LINE",
"617 560 LINE",
"549 177 LINE",
"508 142 LINE",
"298 142 LINE"
);
},
{
closed = 1;
nodes = (
"662.358 795 LINE",
"745.358 869 LINE",
"758.358 946 LINE",
"630.358 946 LINE",
"625.358 919 LINE",
"606.358 893 LINE",
"586.358 893 LINE",
"550.358 952 LINE",
"370.358 952 LINE",
"289.358 881 LINE",
"274.358 802 LINE",
"402.358 802 LINE",
"407.358 827 LINE",
"426.358 858 LINE",
"446.358 858 LINE",
"482.358 795 LINE"
);
}
);
width = 754;
}
);
leftKerningGroup = C;
note = Otilde;
rightKerningGroup = O;
unicode = 00D5;
},
{
glyphname = uni022C;
lastChange = "2019-09-24 19:39:11 +0000";
layers = (
{
guideLines = (
{
position = "{1279.427, 1001}";
}
);
hints = (
{
horizontal = 1;
place = "{0, 142}";
type = Stem;
},
{
horizontal = 1;
place = "{595, 142}";
type = Stem;
},
{
horizontal = 1;
place = "{802, 150}";
type = Stem;
},
{
horizontal = 1;
place = "{1001, 118}";
type = Stem;
},
{
place = "{50, 187}";
type = Stem;
},
{
place = "{518, 186}";
type = Stem;
},
{
place = "{155, 125}";
type = Stem;
},
{
place = "{482, 125.5}";
type = Stem;
},
{
horizontal = 1;
place = "{795, 151}";
type = Stem;
},
{
horizontal = 1;
place = "{0, 142}";
type = Stem;
},
{
horizontal = 1;
place = "{595, 142}";
type = Stem;
},
{
place = "{50, 187}";
type = Stem;
},
{
place = "{518, 186}";
type = Stem;
},
{
horizontal = 1;
place = "{802, 150}";
type = Stem;
},
{
place = "{-269.642, 125}";
type = Stem;
},
{
place = "{57.358, 125.5}";
type = Stem;
},
{
horizontal = 1;
place = "{795, 151}";
type = Stem;
},
{
horizontal = 1;
place = "{1000.692, 118}";
type = Stem;
},
{
place = "{-207.169, 460}";
type = Stem;
}
);
layerId = "D215EC84-7FFD-4436-99F3-284D9B779A16";
paths = (
{
closed = 1;
nodes = (
"595 0 LINE",
"726 111 LINE",
"816 626 LINE",
"725 737 LINE",
"289 737 LINE",
"158 626 LINE",
"68 111 LINE",
"159 0 LINE"
);
},
{
closed = 1;
nodes = (
"268 177 LINE",
"336 560 LINE",
"378 595 LINE",
"586 595 LINE",
"617 560 LINE",
"549 177 LINE",
"508 142 LINE",
"298 142 LINE"
);
},
{
closed = 1;
nodes = (
"662.358 795 LINE",
"745.358 869 LINE",
"758.358 946 LINE",
"630.358 946 LINE",
"625.358 919 LINE",
"606.358 893 LINE",
"586.358 893 LINE",
"550.358 952 LINE",
"370.358 952 LINE",
"289.358 881 LINE",
"274.358 802 LINE",
"402.358 802 LINE",
"407.358 827 LINE",
"426.358 858 LINE",
"446.358 858 LINE",
"482.358 795 LINE"
);
},
{
closed = 1;
nodes = (
"770.831 1000.692 LINE",
"791.831 1118.692 LINE",
"327.831 1118.692 LINE",
"306.831 1000.692 LINE"
);
}
);
width = 754;
}
);
leftKerningGroup = C;
note = uni022C;
rightKerningGroup = O;
unicode = 022C;
},
{
glyphname = OE;
lastChange = "2019-09-24 19:39:11 +0000";
layers = (
{
hints = (
{
horizontal = 1;
place = "{0, 152}";
type = Stem;
},
{
horizontal = 1;
place = "{308, 141}";
type = Stem;
},
{
horizontal = 1;
place = "{585, 152}";
type = Stem;
},
{
place = "{50, 187}";
type = Stem;
},
{
place = "{518, 196.8}";
type = Stem;
}
);
layerId = "D215EC84-7FFD-4436-99F3-284D9B779A16";
paths = (
{
closed = 1;
nodes = (
"1081 0 LINE",
"1108 152 LINE",
"733 152 LINE",
"760 308 LINE",
"1098 308 LINE",
"1123 449 LINE",
"785 449 LINE",
"809 585 LINE",
"1184 585 LINE",
"1211 737 LINE",
"289 737 LINE",
"158 626 LINE",
"68 111 LINE",
"159 0 LINE"
);
},
{
closed = 1;
nodes = (
"268 177 LINE",
"336 560 LINE",
"378 595 LINE",
"586 595 LINE",
"617 560 LINE",
"549 177 LINE",
"508 142 LINE",
"298 142 LINE"
);
}
);
width = 1139;
}
);
leftKerningGroup = C;
note = OE;
rightKerningGroup = AE;
unicode = 0152;
},
{
glyphname = P;
lastChange = "2019-10-06 16:06:39 +0000";
layers = (
{
hints = (
{
horizontal = 1;
place = "{231, 142}";
type = Stem;
},
{
horizontal = 1;
place = "{595, 142}";
type = Stem;
},
{
place = "{70, 187}";
type = Stem;
},
{
place = "{493.2, 181}";
type = Stem;
}
);
layerId = "D215EC84-7FFD-4436-99F3-284D9B779A16";
paths = (
{
closed = 1;
nodes = (
"256.89 0 LINE",
"297.89 231 LINE",
"605.89 231 LINE",
"736.89 342 LINE",
"786.89 626 LINE",
"694.89 737 LINE",
"197.89 737 LINE",
"67.89 0 LINE"
);
},
{
closed = 1;
nodes = (
"361.89 595 LINE",
"562.89 595 LINE",
"591.89 560 LINE",
"564.89 408 LINE",
"523.89 373 LINE",
"322.89 373 LINE"
);
}
);
width = 689;
}
);
leftKerningGroup = B;
note = P;
rightKerningGroup = P;
unicode = 0050;
},
{
glyphname = Thorn;
lastChange = "2019-10-06 16:06:50 +0000";
layers = (
{
hints = (
{
horizontal = 1;
place = "{125, 142}";
type = Stem;
},
{
horizontal = 1;
place = "{489, 142}";
type = Stem;
},
{
place = "{70, 187}";
type = Stem;
},
{
place = "{487.2, 187}";
type = Stem;
}
);
layerId = "D215EC84-7FFD-4436-99F3-284D9B779A16";
paths = (
{
closed = 1;
nodes = (
"256.71 -1 LINE",
"278.71 125 LINE",
"586.71 125 LINE",
"717.71 236 LINE",
"767.71 520 LINE",
"675.71 631 LINE",
"367.71 631 LINE",
"386.71 736 LINE",
"197.71 736 LINE",
"67.71 -1 LINE"
);
},
{
closed = 1;
nodes = (
"342.71 489 LINE",
"543.71 489 LINE",
"572.71 454 LINE",
"545.71 302 LINE",
"504.71 267 LINE",
"303.71 267 LINE"
);
}
);
width = 689;
}
);
leftKerningGroup = B;
note = Thorn;
rightKerningGroup = Thorn;
unicode = 00DE;
},
{
glyphname = Q;
lastChange = "2019-09-24 19:39:11 +0000";
layers = (
{
hints = (
{
horizontal = 1;
place = "{0, 142}";
type = Stem;
},
{
horizontal = 1;
place = "{595, 142}";
type = Stem;
},
{
place = "{50, 187}";
type = Stem;
},
{
place = "{318, 138}";
type = Stem;
},
{
place = "{518, 186}";
type = Stem;
},
{
place = "{322, 130}";
type = Stem;
}
);
layerId = "D215EC84-7FFD-4436-99F3-284D9B779A16";
paths = (
{
closed = 1;
nodes = (
"432.483 -88 LINE",
"448 0 LINE",
"595 0 LINE",
"725.572 111 LINE",
"816.381 626 LINE",
"724.953 737 LINE",
"288.953 737 LINE",
"158.381 626 LINE",
"67.572 111 LINE",
"159 0 LINE",
"306 0 LINE",
"290.483 -88 LINE"
);
},
{
closed = 1;
nodes = (
"268.21 177 LINE",
"335.743 560 LINE",
"377.915 595 LINE",
"585.915 595 LINE",
"616.743 560 LINE",
"549.21 177 LINE",
"508.038 142 LINE",
"470.038 142 LINE",
"483.792 220 LINE",
"349.792 220 LINE",
"336.038 142 LINE",
"298.038 142 LINE"
);
}
);
width = 754;
}
);
leftKerningGroup = C;
note = Q;
rightKerningGroup = O;
unicode = 0051;
},
{
glyphname = R;
lastChange = "2019-09-24 19:39:11 +0000";
layers = (
{
hints = (
{
horizontal = 1;
place = "{251, 142}";
type = Stem;
},
{
horizontal = 1;
place = "{595, 142}";
type = Stem;
},
{
place = "{70, 187}";
type = Stem;
},
{
place = "{502.2, 182}";
type = Stem;
}
);
layerId = "D215EC84-7FFD-4436-99F3-284D9B779A16";
paths = (
{
closed = 1;
nodes = (
"257 0 LINE",
"301 251 LINE",
"477 251 LINE",
"530.163 0 LINE",
"709.12 0 LINE",
"646.147 273.882 LINE",
"750 362 LINE",
"797 626 LINE",
"704 737 LINE",
"198 737 LINE",
"68 0 LINE"
);
},
{
closed = 1;
nodes = (
"362 595 LINE",
"572 595 LINE",
"601 560 LINE",
"578 428 LINE",
"536 393 LINE",
"326 393 LINE"
);
}
);
width = 742;
}
);
leftKerningGroup = B;
note = R;
rightKerningGroup = R;
unicode = 0052;
},
{
glyphname = Racute;
lastChange = "2019-09-24 19:39:11 +0000";
layers = (
{
hints = (
{
horizontal = 1;
place = "{251, 142}";
type = Stem;
},
{
horizontal = 1;
place = "{595, 142}";
type = Stem;
},
{
horizontal = 1;
place = "{795, 157}";
type = Stem;
},
{
place = "{70, 187}";
type = Stem;
},
{
place = "{502.2, 182}";
type = Stem;
},
{
horizontal = 1;
place = "{251, 142}";
type = Stem;
},
{
horizontal = 1;
place = "{595, 142}";
type = Stem;
},
{
place = "{70, 187}";
type = Stem;
},
{
place = "{502.2, 182}";
type = Stem;
},
{
horizontal = 1;
place = "{795, 157}";
type = Stem;
},
{
place = "{51.33, 287}";
type = Stem;
}
);
layerId = "D215EC84-7FFD-4436-99F3-284D9B779A16";
paths = (
{
closed = 1;
nodes = (
"257 0 LINE",
"301 251 LINE",
"477 251 LINE",
"530.163 0 LINE",
"709.12 0 LINE",
"646.147 273.882 LINE",
"750 362 LINE",
"797 626 LINE",
"704 737 LINE",
"198 737 LINE",
"68 0 LINE"
);
},
{
closed = 1;
nodes = (
"362 595 LINE",
"572 595 LINE",
"601 560 LINE",
"578 428 LINE",
"536 393 LINE",
"326 393 LINE"
);
},
{
closed = 1;
nodes = (
"541.375 795 LINE",
"719.375 952 LINE",
"522.33 952 LINE",
"411.33 795 LINE"
);
}
);
width = 742;
}
);
leftKerningGroup = B;
note = Racute;
rightKerningGroup = R;
unicode = 0154;
},
{
glyphname = Rcaron;
lastChange = "2019-10-06 15:59:15 +0000";
layers = (
{
hints = (
{
horizontal = 1;
place = "{251, 142}";
type = Stem;
},
{
horizontal = 1;
place = "{595, 142}";
type = Stem;
},
{
horizontal = 1;
place = "{795, 152}";
type = Stem;
},
{
place = "{70, 187}";
type = Stem;
},
{
place = "{502.2, 182}";
type = Stem;
},
{
horizontal = 1;
place = "{251, 142}";
type = Stem;
},
{
horizontal = 1;
place = "{595, 142}";
type = Stem;
},
{
place = "{70, 187}";
type = Stem;
},
{
place = "{502.2, 182}";
type = Stem;
},
{
horizontal = 1;
place = "{795, 152}";
type = Stem;
},
{
place = "{-227.844, 424}";
type = Stem;
},
{
horizontal = 1;
place = "{947, -152}";
type = Stem;
},
{
place = "{1210.156, -424}";
type = Stem;
}
);
layerId = "D215EC84-7FFD-4436-99F3-284D9B779A16";
paths = (
{
closed = 1;
nodes = (
"257 0 LINE",
"301 251 LINE",
"477 251 LINE",
"530.163 0 LINE",
"709.12 0 LINE",
"646.147 273.882 LINE",
"750 362 LINE",
"797 626 LINE",
"704 737 LINE",
"198 737 LINE",
"68 0 LINE"
);
},
{
closed = 1;
nodes = (
"362 595 LINE",
"572 595 LINE",
"601 560 LINE",
"578 428 LINE",
"536 393 LINE",
"326 393 LINE"
);
},
{
closed = 1;
nodes = (
"563.156 795 LINE",
"703.156 947 LINE",
"556.156 947 LINE",
"472.156 875 LINE",
"415.156 947 LINE",
"279.156 947 LINE",
"365.156 795 LINE"
);
}
);
width = 742;
}
);
leftKerningGroup = B;
note = Rcaron;
rightKerningGroup = R;
unicode = 0158;
},
{
glyphname = uni0156;
lastChange = "2019-09-24 19:39:11 +0000";
layers = (
{
hints = (
{
horizontal = 1;
place = "{-240, 183}";
type = Stem;
},
{
horizontal = 1;
place = "{251, 142}";
type = Stem;
},
{
horizontal = 1;
place = "{595, 142}";
type = Stem;
},
{
place = "{70, 187}";
type = Stem;
},
{
place = "{502.2, 182}";
type = Stem;
},
{
horizontal = 1;
place = "{251, 142}";
type = Stem;
},
{
horizontal = 1;
place = "{595, 142}";
type = Stem;
},
{
place = "{70, 187}";
type = Stem;
},
{
place = "{502.2, 182}";
type = Stem;
},
{
horizontal = 1;
place = "{-240, 183}";
type = Stem;
},
{
place = "{-78.054, 220}";
type = Stem;
}
);
layerId = "D215EC84-7FFD-4436-99F3-284D9B779A16";
paths = (
{
closed = 1;
nodes = (
"257 0 LINE",
"301 251 LINE",
"477 251 LINE",
"530.163 0 LINE",
"709.12 0 LINE",
"646.147 273.882 LINE",
"750 362 LINE",
"797 626 LINE",
"704 737 LINE",
"198 737 LINE",
"68 0 LINE"
);
},
{
closed = 1;
nodes = (
"344.946 -240 LINE",
"490.946 -57 LINE",
"300.946 -57 LINE",
"221.946 -240 LINE"
);
},
{
closed = 1;
nodes = (
"362 595 LINE",
"572 595 LINE",
"601 560 LINE",
"578 428 LINE",
"536 393 LINE",
"326 393 LINE"
);
}
);
width = 742;
}
);
leftKerningGroup = B;
note = uni0156;
rightKerningGroup = R;
unicode = 0156;
},
{
glyphname = uni0210;
lastChange = "2019-09-24 19:39:11 +0000";
layers = (
{
hints = (
{
horizontal = 1;
place = "{251, 142}";
type = Stem;
},
{
horizontal = 1;
place = "{595, 142}";
type = Stem;
},
{
horizontal = 1;
place = "{795, 157}";
type = Stem;
},
{
place = "{70, 187}";
type = Stem;
},
{
place = "{502.2, 182}";
type = Stem;
},
{
horizontal = 1;
place = "{251, 142}";
type = Stem;
},
{
horizontal = 1;
place = "{595, 142}";
type = Stem;
},
{
place = "{70, 187}";
type = Stem;
},
{
place = "{502.2, 182}";
type = Stem;
},
{
horizontal = 1;
place = "{795, 157}";
type = Stem;
},
{
place = "{-416.19, 497}";
type = Stem;
},
{
horizontal = 1;
place = "{795, 157}";
type = Stem;
},
{
place = "{-17.79, 287}";
type = Stem;
},
{
horizontal = 1;
place = "{795, 157}";
type = Stem;
},
{
place = "{-213.194, 287}";
type = Stem;
}
);
layerId = "D215EC84-7FFD-4436-99F3-284D9B779A16";
paths = (
{
closed = 1;
nodes = (
"257 0 LINE",
"301 251 LINE",
"477 251 LINE",
"530.163 0 LINE",
"709.12 0 LINE",
"646.147 273.882 LINE",
"750 362 LINE",
"797 626 LINE",
"704 737 LINE",
"198 737 LINE",
"68 0 LINE"
);
},
{
closed = 1;
nodes = (
"362 595 LINE",
"572 595 LINE",
"601 560 LINE",
"578 428 LINE",
"536 393 LINE",
"326 393 LINE"
);
},
{
closed = 1;
nodes = (
"411.806 795 LINE",
"334.806 952 LINE",
"163.806 952 LINE",
"292.806 795 LINE"
);
},
{
closed = 1;
nodes = (
"607.21 795 LINE",
"530.21 952 LINE",
"359.21 952 LINE",
"488.21 795 LINE"
);
}
);
width = 742;
}
);
leftKerningGroup = B;
note = uni0210;
rightKerningGroup = R;
unicode = 0210;
},
